<?xml version="1.0" encoding="utf-8"?>
<!-- Generator: Adobe Illustrator 16.0.3, SVG Export Plug-In . SVG Version: 6.00 Build 0)  -->
<!DOCTYPE svg PUBLIC "-//W3C//DTD SVG 1.1//EN" "http://www.w3.org/Graphics/SVG/1.1/DTD/svg11.dtd">
<svg version="1.1" id="Calque_1" xmlns="http://www.w3.org/2000/svg" xmlns:xlink="http://www.w3.org/1999/xlink" x="0px" y="0px"
	 width="800px" height="438.71px" viewBox="0 0 800 438.71" enable-background="new 0 0 800 438.71" xml:space="preserve">
<rect x="21.303" y="259.396" fill="#C80C0F" width="34.33" height="34.324"/>
<rect x="55.633" y="259.396" fill="#DFAD00" width="34.34" height="34.324"/>
<rect x="89.973" y="259.396" fill="#D16004" width="34.326" height="34.324"/>
<rect x="124.299" y="259.396" fill="#72224C" width="34.34" height="34.324"/>
<rect x="158.639" y="259.396" fill="#B86F84" width="34.343" height="34.324"/>
<rect x="192.982" y="259.396" fill="#A582A5" width="34.319" height="34.324"/>
<rect x="227.301" y="259.396" fill="#6C9698" width="34.34" height="34.324"/>
<rect x="261.641" y="259.396" fill="#9AA468" width="34.338" height="34.324"/>
<rect x="295.979" y="259.396" fill="#5F8163" width="34.346" height="34.324"/>
<rect x="330.325" y="259.396" fill="#266365" width="34.327" height="34.324"/>
<polygon fill="#505250" points="47.083,350.713 41.754,350.713 41.754,329.895 26.921,329.895 26.921,350.713 21.598,350.713 
	21.598,307.498 26.921,307.498 26.921,325.168 41.754,325.168 41.754,307.498 47.083,307.498 "/>
<path fill="#505250" d="M66.168,307.49h7.139l11.621,43.223h-5.571l-3.081-11.863H62.473l-3.209,11.863h-5.566L66.168,307.49z
	 M63.563,334.49h11.621l-5.511-20.887h-0.119L63.563,334.49z"/>
<path fill="#505250" d="M91.061,307.49h5.33v30.396c0,6.349,2.061,9.319,7.32,9.319c5.69,0,7.393-3.27,7.393-9.319V307.49h5.32
	v30.396c0,8.29-4.239,13.673-12.713,13.673c-8.652,0-12.65-4.779-12.65-13.673V307.49z"/>
<polygon fill="#505250" points="139.687,350.713 134.363,350.713 134.363,312.225 123.529,312.225 123.529,307.498 150.583,307.498 
	150.583,312.225 139.687,312.225 "/>
<polygon fill="#505250" points="158.164,307.49 180.5,307.49 180.5,312.217 163.487,312.217 163.487,325.777 179.527,325.777 
	179.527,330.498 163.487,330.498 163.487,345.988 181.227,345.988 181.227,350.713 158.164,350.713 "/>
<polygon fill="#505250" points="207.884,307.49 230.22,307.49 230.22,312.217 213.208,312.217 213.208,325.777 229.25,325.777 
	229.25,330.498 213.208,330.498 213.208,345.988 230.947,345.988 230.947,350.713 207.884,350.713 "/>
<path fill="#505250" d="M265.95,335.879c-0.484,8.176-3.695,15.688-13.137,15.688c-12.287,0-13.921-11.565-13.921-22.466
	c0-10.893,1.995-22.452,13.921-22.452c8.841,0,12.53,4.957,12.772,13.44h-5.567c-0.125-4.912-1.692-9.076-7.205-9.076
	c-7.384,0-8.351,8.1-8.351,18.088s0.967,18.098,8.351,18.098c6.473,0,7.389-6.045,7.569-11.32H265.95z"/>
<path fill="#505250" d="M301.744,329.102c0,10.895-1.997,22.466-13.923,22.466c-11.922,0-13.924-11.571-13.924-22.466
	c0-10.893,2.002-22.453,13.924-22.453C299.747,306.648,301.744,318.209,301.744,329.102 M279.469,329.102
	c0,9.988,0.971,18.098,8.352,18.098c7.389,0,8.353-8.109,8.353-18.098c0-9.982-0.964-18.088-8.353-18.088
	C280.44,311.014,279.469,319.119,279.469,329.102"/>
<polygon fill="#505250" points="311.75,307.49 317.071,307.49 317.071,345.988 334.624,345.988 334.624,350.713 311.75,350.713 "/>
<polygon fill="#505250" points="342.215,307.49 364.549,307.49 364.549,312.217 347.539,312.217 347.539,325.777 363.574,325.777 
	363.574,330.498 347.539,330.498 347.539,345.988 365.278,345.988 365.278,350.713 342.215,350.713 "/>
<polygon fill="#505250" points="21.597,368.057 43.934,368.057 43.934,372.773 26.921,372.773 26.921,386.34 42.963,386.34 
	42.963,391.055 26.921,391.055 26.921,406.547 44.66,406.547 44.66,411.268 21.597,411.268 "/>
<polygon fill="#505250" points="55.331,368.057 62.235,368.057 76.516,404.133 76.638,404.133 76.638,368.057 81.959,368.057 
	81.959,411.268 74.638,411.268 60.773,376.289 60.652,376.289 60.652,411.268 55.331,411.268 "/>
<polygon fill="#505250" points="160.635,411.276 155.307,411.276 155.307,390.453 140.473,390.453 140.473,411.276 135.151,411.276 
	135.151,368.057 140.473,368.057 140.473,385.727 155.307,385.727 155.307,368.057 160.635,368.057 "/>
<path fill="#505250" d="M181.847,368.057h7.138l11.623,43.221h-5.572l-3.08-11.867h-13.805l-3.209,11.867h-5.565L181.847,368.057z
	 M179.241,395.049h11.623l-5.513-20.877h-0.118L179.241,395.049z"/>
<rect x="209.342" y="368.057" fill="#505250" width="5.322" height="43.22"/>
<polygon fill="#505250" points="227.389,368.057 234.295,368.057 248.576,404.133 248.697,404.133 248.697,368.057 254.02,368.057 
	254.02,411.268 246.698,411.268 232.834,376.289 232.713,376.289 232.713,411.268 227.389,411.268 "/>
<path fill="#505250" d="M275.234,368.057h7.14l11.621,43.221h-5.566l-3.086-11.867h-13.808l-3.207,11.867h-5.566L275.234,368.057z
	 M272.627,395.049h11.619l-5.508-20.877h-0.119L272.627,395.049z"/>
<path fill="#505250" d="M302.252,368.057h5.322v30.389c0,6.348,2.06,9.316,7.327,9.316c5.688,0,7.385-3.266,7.385-9.316v-30.389
	h5.328v30.389c0,8.289-4.239,13.67-12.713,13.67c-8.657,0-12.649-4.779-12.649-13.67V368.057z"/>
<polygon fill="#505250" points="352.989,411.276 347.668,411.276 347.668,372.777 336.833,372.777 336.833,368.057 363.891,368.057 
	363.891,372.777 352.989,372.777 "/>
<path fill="#B8B7AA" d="M158.909,226.533c-16.668,0-29.786-6.5-38.246-18.324c-0.387-0.555-0.75-1.094-1.126-1.664v34.789h72.143
	v-22.852C179.76,224.041,168.944,226.533,158.909,226.533"/>
<path fill="#B8B7AA" d="M141.75,101.068c14.344-14.729,30.941-25.617,48.833-33.25c0.37-0.162,0.733-0.285,1.097-0.438V34.875
	h-72.144v74.132H88.92V34.875H21.304v206.459H88.92v-86.813h22.767v-0.039C115.396,136.379,125.167,118.455,141.75,101.068"/>
<path fill="#505250" d="M296.861,34.875v74.131h-32.415V34.875H191.68v32.506c11.967-4.436,23.567-6.678,35.692-6.678
	c18.453,0,27.892,6.701,27.892,20.668c0,15.014-10.813,30.701-32.592,46.135c-7.142,5.205-17.378,11.148-30.992,16.832
	c-10.64,4.678-23.39,9.527-38.57,14.582c-1.004,3.469-1.508,6.91-1.508,9.17c0,14.809,9.016,22.035,27.883,22.035
	c4.033,0,8.103-0.328,12.195-0.933c8.741-1.237,17.162-3.612,25.539-7.237c12.895-5.633,28.325-15.043,47.227-27.435h1.336
	l0.064-0.034v0.034h31.015v86.813h67.776V34.875H296.861z"/>
<path fill="#B8B7AA" d="M214.58,85.018c-3.392,0-8.431,1.863-15.075,5.621c-2.446,1.381-5.467,2.875-7.824,4.514
	c-4.014,2.749-7.963,5.83-11.803,9.834c-6.311,5.586-11.432,12.217-16.121,19.283c-0.951,1.639-3.198,6.344-6.76,14.699
	c14.415-6.293,25.867-12.252,34.684-18.293c3.748-2.387,7.17-5.094,9.856-7.51c11.897-11.092,17.755-18.738,17.755-23.652
	C219.292,86.531,217.729,85.018,214.58,85.018"/>
<path fill="#505250" d="M191.68,218.482v22.852h72.771v-67.721c-18.72,13.59-34.296,24.699-47.681,32.355
	C208.133,211.156,199.881,215.32,191.68,218.482"/>
<rect x="400.213" y="34.413" fill="#C80C0F" width="377.684" height="377.685"/>
<path fill="#FFFFFF" d="M467.162,139.395c-0.483,8.17-3.688,15.68-13.135,15.68c-12.279,0-13.923-11.564-13.923-22.459
	c0-10.896,1.998-22.455,13.923-22.455c8.836,0,12.53,4.961,12.772,13.443h-5.567c-0.119-4.911-1.697-9.086-7.205-9.086
	c-7.384,0-8.349,8.104-8.349,18.098c0,9.988,0.965,18.1,8.349,18.1c6.475,0,7.387-6.05,7.567-11.32H467.162z"/>
<path fill="#FFFFFF" d="M474.207,131.586c0-7.389,3.151-10.656,10.895-10.656c9.865,0,9.865,5.938,9.865,9.322v18.1
	c0,1.332,0,2.605,1.576,2.605c0.665,0,0.967-0.127,1.21-0.303v3.635c-0.364,0.057-1.694,0.305-2.96,0.305
	c-1.947,0-4.363,0-4.605-4.182h-0.127c-1.627,2.906-4.777,4.664-7.807,4.664c-6.051,0-8.835-3.639-8.835-9.447
	c0-4.539,1.94-7.689,6.111-8.955l6.843-2.061c3.688-1.15,3.688-2.182,3.688-4.902c0-3.027-1.816-4.785-5.198-4.785
	c-5.569,0-5.569,5.209-5.569,6.354v0.307H474.207z M489.887,136.547c-1.885,2-6.358,2.422-8.662,3.818
	c-1.631,1.027-2.481,2.295-2.481,5.145c0,3.264,1.158,5.568,4.603,5.568c3.33,0,6.541-2.848,6.541-6.178V136.547z"/>
<path fill="#FFFFFF" d="M505.393,121.781h4.846v3.811h0.115c1.332-2.959,4.727-4.662,7.867-4.662c3.754,0,5.996,1.453,7.025,5.145
	c1.456-2.838,4.361-5.145,7.686-5.145c8.535,0,8.535,6.482,8.535,10.29v23.007h-5.082v-22.398c0-2.48-0.183-6.533-4.363-6.533
	c-2.355,0-6.053,1.443-6.053,6.533v22.398h-5.076v-22.398c0-2.48-0.19-6.533-4.362-6.533c-2.361,0-6.058,1.443-6.058,6.533v22.398
	h-5.08V121.781z"/>
<path fill="#FFFFFF" d="M551.663,121.781h4.846v3.988h0.115c0.672-2.414,3.513-4.836,7.017-4.836c7.693,0,10.594,6.84,10.594,16.461
	c0,7.395-2.176,17.68-10.594,17.68c-2.898,0-5.619-1.756-6.774-4.541h-0.114v14.346h-5.089V121.781z M562.98,150.715
	c4.72,0,5.93-4.967,5.93-13.32c0-7.139-1.21-12.107-5.93-12.107c-5.631,0-6.541,5.328-6.541,12.711
	C556.439,144.289,557.538,150.715,562.98,150.715"/>
<path fill="#FFFFFF" d="M604.098,154.227h-4.842v-3.822h-0.123c-1.334,2.969-4.726,4.67-7.869,4.67
	c-8.531,0-8.531-6.484-8.531-10.293v-23h5.086v22.395c0,2.48,0.175,6.539,4.779,6.539c2.726,0,6.414-1.809,6.414-6.539v-22.395
	h5.086V154.227z"/>
<path fill="#FFFFFF" d="M627.721,131.279c0-4.115-1.094-6.354-4.785-6.354c-1.635,0-5.264,0.428-5.264,4.969
	c0,3.811,3.992,4.535,7.99,5.865c3.936,1.328,7.93,2.723,7.93,9.148c0,6.836-4.426,10.159-10.475,10.159
	c-11.016,0-11.137-8.161-11.137-11.499h5.089c0,3.939,1.088,7.51,6.048,7.51c1.634,0,5.389-0.785,5.389-5.393
	c0-4.357-3.998-5.264-7.933-6.588c-3.931-1.338-7.985-2.484-7.985-9.203c0-6.057,4.715-8.965,10.348-8.965
	c9.449,0,9.806,6.541,9.865,10.35H627.721z"/>
<path fill="#FFFFFF" d="M437.32,194.146h3.64v-9.615h10.888v9.615h4.294v7.324h-4.294v15.627c0,1.875,0.85,2.543,2.605,2.543h1.688
	v7.256c-1.993,0.244-4.11,0.359-5.928,0.359c-6.654,0-9.254-1.088-9.254-8.348v-17.438h-3.64V194.146z"/>
<path fill="#FFFFFF" d="M471.408,212.369v4.301c0,3.516,1.455,4.424,2.967,4.424c1.936,0,3.087-1.219,3.087-5.697h9.804
	c-0.121,7.926-3.808,12.352-12.827,12.352c-10.536,0-13.923-4.721-13.923-17.193c0-12.525,4.119-17.252,13.923-17.252
	c8.71,0,13.132,3.875,13.132,15.736v3.33H471.408z M477.402,204.984c0-3.443-0.729-5.029-3.027-5.029
	c-2.238,0-2.967,1.586-2.967,5.029v1.455h5.994V204.984z"/>
<path fill="#FFFFFF" d="M509.918,206.984c0-2.662-0.236-4.234-0.722-5.266c-0.481-1.031-1.272-1.395-2.427-1.395
	c-2.477,0-3.203,2.174-3.203,10.23c0,8.059,0.727,10.172,3.203,10.172c2.004,0,3.148-1.27,3.148-5.393v-2.117h9.807
	c0,5.146-0.785,8.717-2.902,11.076c-2.119,2.359-5.511,3.451-10.053,3.451c-8.346,0-14.1-2.545-14.1-16.639
	c0-15.502,6.48-17.803,14.644-17.803c9.69,0,12.411,5.515,12.411,13.682H509.918z"/>
<path fill="#FFFFFF" d="M525.793,183.682h10.898v14.104h0.116c1.819-3.453,4.905-4.482,7.563-4.482c4.488,0,8.541,2.064,8.541,8.9
	v24.693h-10.894v-21.604c0-2.721-0.728-3.869-2.663-3.869c-1.941,0-2.664,1.148-2.664,3.869v21.604h-10.898V183.682z"/>
<path fill="#FFFFFF" d="M560.314,194.146h10.529v4.002h0.128c1.388-3.206,4.173-4.846,7.923-4.846c4.783,0,8.539,1.877,8.539,8.9
	v24.693h-10.896v-21.604c0-2.721-0.726-3.869-2.666-3.869c-1.937,0-2.658,1.148-2.658,3.869v21.604h-10.899V194.146z"/>
<path fill="#FFFFFF" d="M595.02,183.682h10.895v8.104H595.02V183.682z M595.02,194.146h10.895v32.75H595.02V194.146z"/>
<path fill="#FFFFFF" d="M629.535,223.213h-0.127c-1.086,3.32-3.75,4.541-6.832,4.541c-6.297,0-10.052-3.879-10.052-16.531
	c0-12.107,2.481-17.914,9.81-17.914c3.871,0,6.105,1.689,7.439,5.324h0.126v-4.486h10.53v43.406h-10.895V223.213z M626.508,201.418
	c-2.543,0-3.09,2.061-3.09,9.076c0,7.082,0.547,9.139,3.09,9.139c2.479,0,3.027-2.057,3.027-9.139
	C629.535,203.479,628.986,201.418,626.508,201.418"/>
<path fill="#FFFFFF" d="M648.012,194.146h10.9v21.615c0,2.725,0.723,3.879,2.66,3.879s2.667-1.154,2.667-3.879v-21.615h10.894v32.75
	H664.6v-3.992h-0.121c-1.395,3.203-4.18,4.84-7.932,4.84c-4.777,0-8.535-1.877-8.535-8.896V194.146z"/>
<path fill="#FFFFFF" d="M692.465,212.369v4.301c0,3.516,1.457,4.424,2.964,4.424c1.936,0,3.088-1.219,3.088-5.697h9.804
	c-0.121,7.926-3.808,12.352-12.826,12.352c-10.539,0-13.925-4.721-13.925-17.193c0-12.525,4.12-17.252,13.925-17.252
	c8.711,0,13.131,3.875,13.131,15.736v3.33H692.465z M698.457,204.984c0-3.443-0.729-5.029-3.028-5.029
	c-2.237,0-2.964,1.586-2.964,5.029v1.455h5.992V204.984z"/>
</svg>
