<?xml version="1.0" encoding="utf-8"?>
<!-- Generator: Adobe Illustrator 16.0.3, SVG Export Plug-In . SVG Version: 6.00 Build 0)  -->
<!DOCTYPE svg PUBLIC "-//W3C//DTD SVG 1.1//EN" "http://www.w3.org/Graphics/SVG/1.1/DTD/svg11.dtd">
<svg version="1.1" xmlns="http://www.w3.org/2000/svg" xmlns:xlink="http://www.w3.org/1999/xlink" x="0px" y="0px"
	 width="1534.185px" height="1619.138px" viewBox="0 0 1534.185 1619.138" enable-background="new 0 0 1534.185 1619.138"
	 xml:space="preserve">
<g id="Calque_1">
	<rect y="-8.504" width="1534.185" height="1627.642"/>
</g>
<g id="Calque_2">
	<path fill="#FFFFFF" d="M1391.494,495.922c-0.137-0.997-0.568-1.932-1.227-2.703l-257.92-297.659
		c-0.66-0.763-1.524-1.313-2.493-1.604L751.935,82.991c-0.149-0.044-0.308-0.044-0.458-0.064c-0.198-0.038-0.388-0.065-0.595-0.077
		c-0.384-0.039-0.759-0.015-1.14,0.039c-0.186,0.024-0.356,0.024-0.545,0.074l-0.235,0.028L371.038,193.957
		c-0.964,0.291-1.831,0.841-2.497,1.604L110.629,493.219c-0.659,0.771-1.089,1.706-1.228,2.703l-56.07,389.854
		c-0.144,0.999,0.006,2.019,0.423,2.938l163.62,358.287c0.422,0.912,1.093,1.693,1.946,2.236l331.354,212.92
		c0.844,0.563,1.837,0.848,2.848,0.848h393.854c0.666,0,1.295-0.175,1.92-0.416c0.154-0.057,0.293-0.129,0.449-0.201
		c0.152-0.086,0.332-0.125,0.473-0.23l331.367-212.92c0.414-0.268,0.782-0.596,1.1-0.955l0.032-0.021l0.009-0.021
		c0.325-0.376,0.593-0.793,0.791-1.238l163.621-358.287c0.423-0.919,0.568-1.939,0.43-2.938L1391.494,495.922z M1434.586,869.529
		l-245.168-282.942l-53.281-370.568l245.152,282.934L1434.586,869.529z M177.201,969.035l34.541,240.273L70.79,900.653
		L177.201,969.035z M64.237,883.93l50.371-350.252l60.609,421.572L64.237,883.93z M188.92,976.567l409.198,262.975H226.73
		L188.92,976.567z M186.936,962.782L120.3,499.271L749.457,94.944l429.967,496.203l72.852,506.674l-122.794,141.721H617.588
		L186.936,962.782z M1176.657,571.858L766.173,98.146l357.465,104.963L1176.657,571.858z M1192.187,605.876l243.197,280.65
		l-173.981,200.769L1192.187,605.876z M1254.264,1111.632l18.383,127.91h-129.23L1254.264,1111.632z M1120.353,1250.076
		l-173.97,200.763l-312.4-200.763H1120.353z M1134.289,1250.076h126.5l-285.448,183.433L1134.289,1250.076z M1263.387,1101.092
		l158.957-183.437l-140.946,308.646L1263.387,1101.092z M375.494,203.63l341.309-100.208L142.57,472.451L375.494,203.63z
		 M240.101,1250.076h374.408l314.935,202.394H555.063L240.101,1250.076z"/>
</g>
</svg>
