<?xml version="1.0" encoding="utf-8"?>
<!-- Generator: Adobe Illustrator 16.0.3, SVG Export Plug-In . SVG Version: 6.00 Build 0)  -->
<!DOCTYPE svg PUBLIC "-//W3C//DTD SVG 1.1//EN" "http://www.w3.org/Graphics/SVG/1.1/DTD/svg11.dtd">
<svg version="1.1" xmlns="http://www.w3.org/2000/svg" xmlns:xlink="http://www.w3.org/1999/xlink" x="0px" y="0px"
	 width="1534.185px" height="2223.138px" viewBox="0 0 1534.185 2223.138" enable-background="new 0 0 1534.185 2223.138"
	 xml:space="preserve">
<g id="Calque_1">
	<rect y="-8.504" width="1534.185" height="2231.642"/>
</g>
<g id="Calque_2">
	<polygon fill="#FFFFFF" points="79.976,1853.215 112.618,1853.215 112.618,1694.423 62.295,1694.423 62.295,1728.766 
		35.094,1728.766 35.094,1670.287 220.061,1670.287 220.061,1728.766 192.519,1728.766 192.519,1694.423 142.539,1694.423 
		142.539,1853.215 175.182,1853.215 175.182,1877.355 79.976,1877.355 	"/>
	<polygon fill="#FFFFFF" points="245.064,1853.215 275.669,1853.215 275.669,1694.423 245.064,1694.423 245.064,1670.287 
		412.695,1670.287 412.695,1728.427 385.157,1728.427 385.157,1694.423 305.587,1694.423 305.587,1761.073 391.275,1761.073 
		391.275,1785.206 305.587,1785.206 305.587,1853.215 385.832,1853.215 385.832,1818.191 413.708,1818.191 413.708,1877.355 
		245.064,1877.355 	"/>
	<path fill="#FFFFFF" d="M442.616,1853.215h30.596v-158.792h-30.596v-24.136h90.102v24.136h-29.586v158.792h32.305v24.141h-92.821
		V1853.215z M516.737,1774.679v-2.049l75.144-78.545h-26.87v-23.798h87.052v24.136h-26.18l-73.105,77.527l71.058,81.265h31.286
		v24.141h-49.642L516.737,1774.679z"/>
	<polygon fill="#FFFFFF" points="677.742,1853.215 708.349,1853.215 708.349,1694.423 677.742,1694.423 677.742,1670.287 
		738.944,1670.287 850.81,1829.068 850.81,1694.423 820.546,1694.423 820.546,1670.287 909.629,1670.287 909.629,1694.423 
		879.374,1694.423 879.374,1877.355 852.513,1877.355 736.565,1713.807 736.565,1853.215 766.822,1853.215 766.822,1877.355 
		677.742,1877.355 	"/>
	<polygon fill="#FFFFFF" points="932.062,1853.215 962.665,1853.215 962.665,1694.423 932.062,1694.423 932.062,1670.287 
		1022.856,1670.287 1022.856,1694.423 992.584,1694.423 992.584,1853.215 1022.856,1853.215 1022.856,1877.355 932.062,1877.355 	
		"/>
	<path fill="#FFFFFF" d="M1048.687,1853.215h30.604v-158.792h-30.604v-24.136h90.106v24.136h-29.588v158.792h32.306v24.141h-92.824
		V1853.215z M1122.811,1774.679v-2.049l75.144-78.545h-26.863v-23.798h87.045v24.136h-26.186l-73.102,77.527l71.069,81.265h31.28
		v24.141h-49.65L1122.811,1774.679z"/>
	<path fill="#FFFFFF" d="M1238.85,1853.215h26.514l64.264-158.792h-29.576v-24.136h72.76l74.126,182.928h26.861v24.141h-88.746
		v-24.141h30.942l-15.983-39.781h-89.422l-15.646,39.781h30.604v24.141h-86.698V1853.215z M1390.824,1789.288l-35.35-90.1
		l-35.371,90.1H1390.824z"/>
	<rect x="537.656" y="1959.831" fill="#FFFFFF" width="433.576" height="4.332"/>
	<polygon fill="#FFFFFF" points="154.008,2084.979 159.978,2084.979 159.978,2054.014 154.008,2054.014 154.008,2049.306 
		172.566,2049.306 172.566,2054.014 165.81,2054.014 165.81,2084.979 181.452,2084.979 181.452,2077.746 186.888,2077.746 
		186.888,2089.685 154.008,2089.685 	"/>
	<path fill="#FFFFFF" d="M187.955,2084.979h5.175l12.527-30.965h-5.774v-4.708h14.198l14.451,35.673h5.241v4.706h-17.305v-4.706
		h6.037l-3.124-7.763H201.95l-3.056,7.763h5.969v4.706h-16.908V2084.979z M217.593,2072.515l-6.898-17.574l-6.89,17.574H217.593z"/>
	<path fill="#FFFFFF" d="M248.628,2088.36v-9.42h5.302v5.771c1.988,0.533,5.036,1.062,8.22,1.062c5.569,0,9.55-1.858,9.55-6.104
		c0-10.34-22.411-5.496-22.411-20.021c0-7.425,5.901-11.14,14.452-11.14c4.31,0,9.017,0.929,12.334,2.061v9.277h-5.376v-5.832
		c-1.718-0.398-4.31-0.798-6.763-0.798c-5.494,0-9.008,2.122-9.008,5.902c0,9.679,22.409,5.175,22.409,20.152
		c0,8.024-6.501,11.211-14.857,11.211C257.577,2090.481,252.405,2089.424,248.628,2088.36"/>
	<polygon fill="#FFFFFF" points="282.637,2084.979 288.604,2084.979 288.604,2054.014 282.637,2054.014 282.637,2049.306 
		315.322,2049.306 315.322,2060.642 309.956,2060.642 309.956,2054.014 294.448,2054.014 294.448,2067.009 311.151,2067.009 
		311.151,2071.717 294.448,2071.717 294.448,2084.979 310.09,2084.979 310.09,2078.146 315.526,2078.146 315.526,2089.685 
		282.637,2089.685 	"/>
	<path fill="#FFFFFF" d="M321.231,2069.663c0-12.865,8.356-21.155,21.478-21.155c5.968,0,11.54,1.726,14.46,3.119v10.607h-5.64
		v-7.425c-2.25-0.796-5.57-1.395-8.548-1.395c-9.153,0-15.714,5.642-15.714,15.978c0,10.809,7.221,16.05,15.975,16.05
		c5.299,0,10.346-1.988,13.927-4.05v5.571c-2.982,1.589-8.095,3.518-14.392,3.518
		C330.052,2090.481,321.231,2082.785,321.231,2069.663"/>
	<polygon fill="#FFFFFF" points="369.764,2084.979 376.13,2084.979 376.13,2054.014 366.319,2054.014 366.319,2060.712 
		361.012,2060.712 361.012,2049.306 397.085,2049.306 397.085,2060.712 391.708,2060.712 391.708,2054.014 381.963,2054.014 
		381.963,2084.979 388.331,2084.979 388.331,2089.685 369.764,2089.685 	"/>
	<polygon fill="#FFFFFF" points="400.936,2084.979 406.904,2084.979 406.904,2054.014 400.936,2054.014 400.936,2049.306 
		418.637,2049.306 418.637,2054.014 412.736,2054.014 412.736,2084.979 418.637,2084.979 418.637,2089.685 400.936,2089.685 	"/>
	<path fill="#FFFFFF" d="M423.015,2069.526c0-12.202,8.422-21.019,20.75-21.019c12.331,0,20.749,8.816,20.749,21.019
		c0,12.2-8.418,20.955-20.749,20.955C431.437,2090.481,423.015,2081.727,423.015,2069.526 M458.543,2069.526
		c0-9.812-6.093-16.11-14.778-16.11c-8.62,0-14.725,6.368-14.725,16.11c0,9.813,6.037,16.051,14.725,16.051
		C452.382,2085.577,458.543,2079.271,458.543,2069.526"/>
	<polygon fill="#FFFFFF" points="468.898,2084.979 474.867,2084.979 474.867,2054.014 468.898,2054.014 468.898,2049.306 
		480.836,2049.306 502.644,2080.269 502.644,2054.014 496.742,2054.014 496.742,2049.306 514.123,2049.306 514.123,2054.014 
		508.22,2054.014 508.22,2089.685 502.981,2089.685 480.367,2057.791 480.367,2084.979 486.269,2084.979 486.269,2089.685 
		468.898,2089.685 	"/>
	<polygon fill="#FFFFFF" points="538.985,2084.979 545.342,2084.979 545.342,2054.014 535.531,2054.014 535.531,2060.712 
		530.232,2060.712 530.232,2049.306 566.293,2049.306 566.293,2060.712 560.929,2060.712 560.929,2054.014 551.184,2054.014 
		551.184,2084.979 557.549,2084.979 557.549,2089.685 538.985,2089.685 	"/>
	<polygon fill="#FFFFFF" points="570.147,2084.979 576.116,2084.979 576.116,2054.014 570.147,2054.014 570.147,2049.306 
		602.835,2049.306 602.835,2060.642 597.464,2060.642 597.464,2054.014 581.948,2054.014 581.948,2067.009 598.66,2067.009 
		598.66,2071.717 581.948,2071.717 581.948,2084.979 597.601,2084.979 597.601,2078.146 603.035,2078.146 603.035,2089.685 
		570.147,2089.685 	"/>
	<path fill="#FFFFFF" d="M608.744,2069.663c0-12.865,8.353-21.155,21.476-21.155c5.968,0,11.537,1.726,14.458,3.119v10.607h-5.637
		v-7.425c-2.261-0.796-5.569-1.395-8.558-1.395c-9.143,0-15.705,5.642-15.705,15.978c0,10.809,7.222,16.05,15.974,16.05
		c5.3,0,10.347-1.988,13.926-4.05v5.571c-2.99,1.589-8.093,3.518-14.391,3.518C617.565,2090.481,608.744,2082.785,608.744,2069.663"
		/>
	<polygon fill="#FFFFFF" points="649.716,2084.979 655.686,2084.979 655.686,2054.014 649.716,2054.014 649.716,2049.306 
		667.486,2049.306 667.486,2054.014 661.527,2054.014 661.527,2066.942 683.137,2066.942 683.137,2054.014 677.169,2054.014 
		677.169,2049.306 694.862,2049.306 694.862,2054.014 688.97,2054.014 688.97,2084.979 694.862,2084.979 694.862,2089.685 
		677.169,2089.685 677.169,2084.979 683.137,2084.979 683.137,2071.849 661.527,2071.849 661.527,2084.979 667.486,2084.979 
		667.486,2089.685 649.716,2089.685 	"/>
	<polygon fill="#FFFFFF" points="699.978,2084.979 705.946,2084.979 705.946,2054.014 699.978,2054.014 699.978,2049.306 
		711.912,2049.306 733.719,2080.269 733.719,2054.014 727.819,2054.014 727.819,2049.306 745.191,2049.306 745.191,2054.014 
		739.291,2054.014 739.291,2089.685 734.052,2089.685 711.447,2057.791 711.447,2084.979 717.348,2084.979 717.348,2089.685 
		699.978,2089.685 	"/>
	<polygon fill="#FFFFFF" points="749.57,2084.979 755.538,2084.979 755.538,2054.014 749.57,2054.014 749.57,2049.306 
		767.28,2049.306 767.28,2054.014 761.376,2054.014 761.376,2084.979 767.28,2084.979 767.28,2089.685 749.57,2089.685 	"/>
	<path fill="#FFFFFF" d="M791.745,2090.481c-12.006-0.396-20.03-9.019-20.03-20.955c0-12.202,8.356-21.019,20.759-21.019
		c12.325,0,20.749,8.816,20.749,21.019c0,9.947-5.571,17.638-14.451,20.021l8.482,4.974l-3.116,4.445L791.745,2090.481z
		 M807.254,2069.526c0-9.812-6.104-16.11-14.78-16.11c-8.688,0-14.79,6.368-14.79,16.11c0,9.813,6.102,16.051,14.79,16.051
		C801.09,2085.577,807.254,2079.271,807.254,2069.526"/>
	<path fill="#FFFFFF" d="M822.51,2076.224v-22.21h-5.9v-4.708h17.633v4.708h-5.9v21.745c0,6.894,4.707,9.486,10.275,9.486
		c5.572,0,10.143-2.656,10.143-9.548v-21.684h-6.096v-4.708h17.44v4.708h-5.9v21.814c0,9.346-6.229,14.653-15.779,14.653
		C829.805,2090.481,822.51,2086.104,822.51,2076.224"/>
	<polygon fill="#FFFFFF" points="863.946,2084.979 869.915,2084.979 869.915,2054.014 863.946,2054.014 863.946,2049.306 
		896.635,2049.306 896.635,2060.642 891.267,2060.642 891.267,2054.014 875.747,2054.014 875.747,2067.009 892.46,2067.009 
		892.46,2071.717 875.747,2071.717 875.747,2084.979 891.394,2084.979 891.394,2078.146 896.838,2078.146 896.838,2089.685 
		863.946,2089.685 	"/>
	<path fill="#FFFFFF" d="M902.939,2088.36v-9.42h5.3v5.771c1.99,0.533,5.038,1.062,8.221,1.062c5.571,0,9.549-1.858,9.549-6.104
		c0-10.34-22.407-5.496-22.407-20.021c0-7.425,5.9-11.14,14.457-11.14c4.301,0,9.008,0.929,12.329,2.061v9.277h-5.367v-5.832
		c-1.728-0.398-4.319-0.798-6.766-0.798c-5.502,0-9.018,2.122-9.018,5.902c0,9.679,22.411,5.175,22.411,20.152
		c0,8.024-6.491,11.211-14.857,11.211C911.889,2090.481,906.717,2089.424,902.939,2088.36"/>
	<path fill="#FFFFFF" d="M951.543,2069.721c0-12.458,7.823-21.213,21.807-21.213c6.239,0,12.006,1.727,15.323,3.316v9.744h-5.435
		v-6.559c-2.59-0.798-6.105-1.595-9.687-1.595c-10.208,0-16.176,6.3-16.176,16.18c0,9.946,5.968,15.912,16.042,15.912
		c3.783,0,7.163-0.863,10.016-1.929v-10.469h-9.414v-4.642h18.564v4.642h-3.715v13.524c-3.116,1.658-8.553,3.849-15.578,3.849
		C959.831,2090.482,951.543,2082.521,951.543,2069.721"/>
	<path fill="#FFFFFF" d="M996.767,2084.979h5.968v-30.965h-5.968v-4.707h18.896c9.674,0,16.111,4.776,16.111,12.332
		c0,5.439-3.254,9.481-8.891,11.073l6.831,12.267h5.571v4.706h-9.549l-8.549-15.445h-8.621v10.739h5.9v4.706h-17.7V2084.979z
		 M1015.789,2069.663c7.162,0,10.083-3.315,10.083-7.826c0-4.513-2.989-7.823-10.083-7.823h-7.223v15.649H1015.789z"/>
	<path fill="#FFFFFF" d="M1036.548,2084.979h5.171l12.526-30.965h-5.763v-4.708h14.188l14.453,35.673h5.239v4.706h-17.304v-4.706
		h6.028l-3.117-7.763h-17.429l-3.058,7.763h5.969v4.706h-16.904V2084.979z M1066.184,2072.515l-6.898-17.574l-6.891,17.574H1066.184
		z"/>
	<path fill="#FFFFFF" d="M1084.354,2084.979h5.965v-30.965h-5.965v-4.708h18.303c9.743,0,16.109,4.974,16.109,12.797
		c0,7.825-6.366,12.795-16.109,12.795h-6.505v10.081h7.163v4.706h-18.961V2084.979z M1096.151,2070.188h6.639
		c7.153,0,10.073-3.575,10.073-8.085c0-4.507-2.92-8.089-10.073-8.089h-6.639V2070.188z"/>
	<polygon fill="#FFFFFF" points="1122.547,2084.979 1128.517,2084.979 1128.517,2054.014 1122.547,2054.014 1122.547,2049.306 
		1140.32,2049.306 1140.32,2054.014 1134.349,2054.014 1134.349,2066.942 1155.963,2066.942 1155.963,2054.014 1149.994,2054.014 
		1149.994,2049.306 1167.695,2049.306 1167.695,2054.014 1161.796,2054.014 1161.796,2084.979 1167.695,2084.979 1167.695,2089.685 
		1149.994,2089.685 1149.994,2084.979 1155.963,2084.979 1155.963,2071.849 1134.349,2071.849 1134.349,2084.979 1140.32,2084.979 
		1140.32,2089.685 1122.547,2089.685 	"/>
	<polygon fill="#FFFFFF" points="1172.809,2084.979 1178.777,2084.979 1178.777,2054.014 1172.809,2054.014 1172.809,2049.306 
		1190.511,2049.306 1190.511,2054.014 1184.609,2054.014 1184.609,2084.979 1190.511,2084.979 1190.511,2089.685 1172.809,2089.685 
			"/>
	<path fill="#FFFFFF" d="M1214.977,2090.481c-11.995-0.396-20.021-9.019-20.021-20.955c0-12.202,8.353-21.019,20.747-21.019
		c12.338,0,20.762,8.816,20.762,21.019c0,9.947-5.572,17.638-14.462,20.021l8.49,4.974l-3.113,4.445L1214.977,2090.481z
		 M1230.493,2069.526c0-9.812-6.103-16.11-14.79-16.11c-8.677,0-14.778,6.368-14.778,16.11c0,9.813,6.102,16.051,14.778,16.051
		C1224.332,2085.577,1230.493,2079.271,1230.493,2069.526"/>
	<path fill="#FFFFFF" d="M1245.748,2076.224v-22.21h-5.897v-4.708h17.63v4.708h-5.899v21.745c0,6.894,4.71,9.486,10.278,9.486
		c5.572,0,10.142-2.656,10.142-9.548v-21.684h-6.095v-4.708h17.432v4.708h-5.9v21.814c0,9.346-6.232,14.653-15.773,14.653
		C1253.038,2090.481,1245.748,2086.104,1245.748,2076.224"/>
	<polygon fill="#FFFFFF" points="1287.188,2084.979 1293.156,2084.979 1293.156,2054.014 1287.188,2054.014 1287.188,2049.306 
		1319.875,2049.306 1319.875,2060.642 1314.509,2060.642 1314.509,2054.014 1298.989,2054.014 1298.989,2067.009 1315.693,2067.009 
		1315.693,2071.717 1298.989,2071.717 1298.989,2084.979 1314.636,2084.979 1314.636,2078.146 1320.071,2078.146 1320.071,2089.685 
		1287.188,2089.685 	"/>
	<path fill="#FFFFFF" d="M1326.182,2088.36v-9.42h5.299v5.771c1.989,0.533,5.039,1.062,8.221,1.062c5.571,0,9.55-1.858,9.55-6.104
		c0-10.34-22.408-5.496-22.408-20.021c0-7.425,5.901-11.14,14.452-11.14c4.307,0,9.014,0.929,12.331,2.061v9.277h-5.373v-5.832
		c-1.718-0.398-4.311-0.798-6.766-0.798c-5.504,0-9.008,2.122-9.008,5.902c0,9.679,22.399,5.175,22.399,20.152
		c0,8.024-6.493,11.211-14.85,11.211C1335.121,2090.481,1329.96,2089.424,1326.182,2088.36"/>
	<path fill="#FFFFFF" d="M238.548,2173.731h5.966v-30.963h-5.966v-4.707h18.691c13.132,0,21.42,7.43,21.42,20.221
		c0,12.729-8.288,20.155-21.42,20.155h-18.691V2173.731z M257.239,2173.731c9.879,0,15.451-5.705,15.451-15.449
		c0-9.809-5.572-15.514-15.451-15.514h-6.889v30.963H257.239z"/>
	<polygon fill="#FFFFFF" points="283.17,2173.731 289.138,2173.731 289.138,2142.769 283.17,2142.769 283.17,2138.062 
		315.857,2138.062 315.857,2149.397 310.489,2149.397 310.489,2142.769 294.971,2142.769 294.971,2155.764 311.68,2155.764 
		311.68,2160.473 294.971,2160.473 294.971,2173.731 310.614,2173.731 310.614,2166.903 316.058,2166.903 316.058,2178.438 
		283.17,2178.438 	"/>
	<polygon fill="#FFFFFF" points="336.147,2173.731 342.115,2173.731 342.115,2142.769 336.147,2142.769 336.147,2138.062 
		354.714,2138.062 354.714,2142.769 347.948,2142.769 347.948,2173.731 363.595,2173.731 363.595,2166.509 369.037,2166.509 
		369.037,2178.438 336.147,2178.438 	"/>
	<path fill="#FFFFFF" d="M370.093,2173.731h5.183l12.521-30.963h-5.767v-4.707h14.189l14.452,35.67h5.241v4.706h-17.305v-4.706
		h6.036l-3.125-7.76h-17.429l-3.048,7.76h5.961v4.706h-16.909V2173.731z M399.732,2161.269l-6.89-17.571l-6.898,17.571H399.732z"/>
	<polygon fill="#FFFFFF" points="430.311,2173.731 436.271,2173.731 436.271,2142.769 430.311,2142.769 430.311,2138.062 
		448.071,2138.062 448.071,2142.769 442.112,2142.769 442.112,2155.694 463.724,2155.694 463.724,2142.769 457.758,2142.769 
		457.758,2138.062 475.459,2138.062 475.459,2142.769 469.557,2142.769 469.557,2173.731 475.459,2173.731 475.459,2178.438 
		457.758,2178.438 457.758,2173.731 463.724,2173.731 463.724,2160.6 442.112,2160.6 442.112,2173.731 448.071,2173.731 
		448.071,2178.438 430.311,2178.438 	"/>
	<path fill="#FFFFFF" d="M477.98,2173.731h5.172l12.533-30.963h-5.777v-4.707h14.189l14.458,35.67h5.244v4.706h-17.306v-4.706h6.037
		l-3.125-7.76h-17.432l-3.054,7.76h5.969v4.706H477.98V2173.731z M507.62,2161.269l-6.894-17.571l-6.897,17.571H507.62z"/>
	<path fill="#FFFFFF" d="M528.642,2164.979v-22.211h-5.909v-4.707h17.642v4.707h-5.901v21.747c0,6.896,4.708,9.484,10.276,9.484
		c5.569,0,10.142-2.655,10.142-9.547v-21.685h-6.095v-4.707h17.432v4.707h-5.901v21.813c0,9.347-6.231,14.649-15.773,14.649
		C535.929,2179.231,528.642,2174.856,528.642,2164.979"/>
	<polygon fill="#FFFFFF" points="577.638,2173.731 584.005,2173.731 584.005,2142.769 574.185,2142.769 574.185,2149.466 
		568.885,2149.466 568.885,2138.062 604.949,2138.062 604.949,2149.466 599.581,2149.466 599.581,2142.769 589.84,2142.769 
		589.84,2173.731 596.205,2173.731 596.205,2178.438 577.638,2178.438 	"/>
	<polygon fill="#FFFFFF" points="608.81,2173.731 614.778,2173.731 614.778,2142.769 608.81,2142.769 608.81,2138.062 
		641.487,2138.062 641.487,2149.397 636.12,2149.397 636.12,2142.769 620.61,2142.769 620.61,2155.764 637.313,2155.764 
		637.313,2160.473 620.61,2160.473 620.61,2173.731 636.257,2173.731 636.257,2166.903 641.688,2166.903 641.688,2178.438 
		608.81,2178.438 	"/>
	<polygon fill="#FFFFFF" points="661.787,2173.731 667.75,2173.731 667.75,2142.769 661.787,2142.769 661.787,2138.062 
		694.466,2138.062 694.466,2149.397 689.098,2149.397 689.098,2142.769 673.582,2142.769 673.582,2155.764 690.292,2155.764 
		690.292,2160.473 673.582,2160.473 673.582,2173.731 689.234,2173.731 689.234,2166.903 694.666,2166.903 694.666,2178.438 
		661.787,2178.438 	"/>
	<path fill="#FFFFFF" d="M700.375,2158.416c0-12.857,8.356-21.15,21.482-21.15c5.963,0,11.534,1.722,14.446,3.118v10.608h-5.628
		v-7.426c-2.26-0.797-5.566-1.391-8.555-1.391c-9.15,0-15.708,5.635-15.708,15.974c0,10.808,7.218,16.048,15.978,16.048
		c5.299,0,10.331-1.988,13.913-4.048v5.568c-2.98,1.595-8.084,3.514-14.378,3.514
		C709.195,2179.231,700.375,2171.547,700.375,2158.416"/>
	<path fill="#FFFFFF" d="M741.347,2158.282c0-12.199,8.424-21.017,20.75-21.017c12.332,0,20.758,8.817,20.758,21.017
		c0,12.197-8.426,20.949-20.758,20.949C749.771,2179.231,741.347,2170.479,741.347,2158.282 M776.887,2158.282
		c0-9.809-6.103-16.106-14.789-16.106c-8.609,0-14.713,6.362-14.713,16.106c0,9.813,6.036,16.046,14.713,16.046
		C770.716,2174.328,776.887,2168.026,776.887,2158.282"/>
	<polygon fill="#FFFFFF" points="787.232,2173.731 793.203,2173.731 793.203,2142.769 787.232,2142.769 787.232,2138.062 
		805.797,2138.062 805.797,2142.769 799.034,2142.769 799.034,2173.731 814.678,2173.731 814.678,2166.509 820.113,2166.509 
		820.113,2178.438 787.232,2178.438 	"/>
	<polygon fill="#FFFFFF" points="823.768,2173.731 829.739,2173.731 829.739,2142.769 823.768,2142.769 823.768,2138.062 
		856.455,2138.062 856.455,2149.397 851.088,2149.397 851.088,2142.769 835.573,2142.769 835.573,2155.764 852.272,2155.764 
		852.272,2160.473 835.573,2160.473 835.573,2173.731 851.215,2173.731 851.215,2166.903 856.65,2166.903 856.65,2178.438 
		823.768,2178.438 	"/>
	<polygon fill="#FFFFFF" points="876.75,2173.731 882.709,2173.731 882.709,2142.769 876.75,2142.769 876.75,2138.062 
		909.425,2138.062 909.425,2149.397 904.058,2149.397 904.058,2142.769 888.551,2142.769 888.551,2155.764 905.254,2155.764 
		905.254,2160.473 888.551,2160.473 888.551,2173.731 904.193,2173.731 904.193,2166.903 909.629,2166.903 909.629,2178.438 
		876.75,2178.438 	"/>
	<polygon fill="#FFFFFF" points="915.267,2173.731 921.233,2173.731 921.233,2142.769 915.267,2142.769 915.267,2138.062 
		927.203,2138.062 949.019,2169.022 949.019,2142.769 943.119,2142.769 943.119,2138.062 960.482,2138.062 960.482,2142.769 
		954.592,2142.769 954.592,2178.438 949.349,2178.438 926.737,2146.549 926.737,2173.731 932.64,2173.731 932.64,2178.438 
		915.267,2178.438 	"/>
	<polygon fill="#FFFFFF" points="979.328,2173.731 985.287,2173.731 985.287,2142.769 979.328,2142.769 979.328,2138.062 
		997.098,2138.062 997.098,2142.769 991.119,2142.769 991.119,2155.694 1012.74,2155.694 1012.74,2142.769 1006.771,2142.769 
		1006.771,2138.062 1024.474,2138.062 1024.474,2142.769 1018.573,2142.769 1018.573,2173.731 1024.474,2173.731 1024.474,2178.438 
		1006.771,2178.438 1006.771,2173.731 1012.74,2173.731 1012.74,2160.6 991.119,2160.6 991.119,2173.731 997.098,2173.731 
		997.098,2178.438 979.328,2178.438 	"/>
	<path fill="#FFFFFF" d="M1026.997,2173.731h5.173l12.529-30.963h-5.768v-4.707h14.188l14.452,35.67h5.241v4.706h-17.303v-4.706
		h6.024l-3.115-7.76h-17.429l-3.057,7.76h5.968v4.706h-16.905V2173.731z M1056.637,2161.269l-6.901-17.571l-6.891,17.571H1056.637z"
		/>
	<polygon fill="#FFFFFF" points="1074.804,2173.731 1080.771,2173.731 1080.771,2142.769 1074.804,2142.769 1074.804,2138.062 
		1092.505,2138.062 1092.505,2142.769 1086.604,2142.769 1086.604,2173.731 1092.505,2173.731 1092.505,2178.438 1074.804,2178.438 
			"/>
	<polygon fill="#FFFFFF" points="1097.55,2173.731 1103.518,2173.731 1103.518,2142.769 1097.55,2142.769 1097.55,2138.062 
		1109.478,2138.062 1131.295,2169.022 1131.295,2142.769 1125.394,2142.769 1125.394,2138.062 1142.767,2138.062 1142.767,2142.769 
		1136.863,2142.769 1136.863,2178.438 1131.623,2178.438 1109.013,2146.549 1109.013,2173.731 1114.921,2173.731 1114.921,2178.438 
		1097.55,2178.438 	"/>
	<path fill="#FFFFFF" d="M1143.365,2173.731h5.172l12.529-30.963h-5.764v-4.707h14.188l14.449,35.67h5.242v4.706h-17.304v-4.706
		h6.028l-3.117-7.76h-17.433l-3.054,7.76h5.969v4.706h-16.907V2173.731z M1173.004,2161.269l-6.893-17.571l-6.899,17.571H1173.004z"
		/>
	<path fill="#FFFFFF" d="M1194.026,2164.979v-22.211h-5.903v-4.707h17.633v4.707h-5.896v21.747c0,6.896,4.707,9.484,10.275,9.484
		s10.143-2.655,10.143-9.547v-21.685h-6.097v-4.707h17.432v4.707h-5.9v21.813c0,9.347-6.231,14.649-15.772,14.649
		C1201.313,2179.231,1194.026,2174.856,1194.026,2164.979"/>
	<polygon fill="#FFFFFF" points="1243.022,2173.731 1249.39,2173.731 1249.39,2142.769 1239.577,2142.769 1239.577,2149.466 
		1234.271,2149.466 1234.271,2138.062 1270.344,2138.062 1270.344,2149.466 1264.967,2149.466 1264.967,2142.769 1255.221,2142.769 
		1255.221,2173.731 1261.59,2173.731 1261.59,2178.438 1243.022,2178.438 	"/>
	<path fill="#FFFFFF" d="M1391.494,495.922c-0.137-0.997-0.568-1.932-1.227-2.703l-257.92-297.659
		c-0.66-0.763-1.524-1.313-2.493-1.604L751.935,82.991c-0.149-0.044-0.308-0.044-0.458-0.064c-0.198-0.038-0.388-0.065-0.595-0.077
		c-0.384-0.039-0.759-0.015-1.14,0.039c-0.186,0.024-0.356,0.024-0.545,0.074l-0.235,0.028L371.038,193.957
		c-0.964,0.291-1.831,0.841-2.497,1.604L110.629,493.219c-0.659,0.771-1.089,1.706-1.228,2.703l-56.07,389.854
		c-0.144,0.999,0.006,2.019,0.423,2.938l163.62,358.287c0.422,0.912,1.093,1.693,1.946,2.236l331.354,212.92
		c0.844,0.563,1.837,0.848,2.848,0.848h393.854c0.666,0,1.295-0.175,1.92-0.416c0.154-0.057,0.293-0.129,0.449-0.201
		c0.152-0.086,0.332-0.125,0.473-0.23l331.367-212.92c0.414-0.268,0.782-0.596,1.1-0.955l0.032-0.021l0.009-0.021
		c0.325-0.376,0.593-0.793,0.791-1.238l163.621-358.287c0.423-0.919,0.568-1.939,0.43-2.938L1391.494,495.922z M1434.586,869.529
		l-245.168-282.942l-53.281-370.568l245.152,282.934L1434.586,869.529z M177.201,969.035l34.541,240.273L70.79,900.653
		L177.201,969.035z M64.237,883.93l50.371-350.252l60.609,421.572L64.237,883.93z M188.92,976.567l409.198,262.975H226.73
		L188.92,976.567z M186.936,962.782L120.3,499.271L749.457,94.944l429.967,496.203l72.852,506.674l-122.794,141.721H617.588
		L186.936,962.782z M1176.657,571.858L766.173,98.146l357.465,104.963L1176.657,571.858z M1192.187,605.876l243.197,280.65
		l-173.981,200.769L1192.187,605.876z M1254.264,1111.632l18.383,127.91h-129.23L1254.264,1111.632z M1120.353,1250.076
		l-173.97,200.763l-312.4-200.763H1120.353z M1134.289,1250.076h126.5l-285.448,183.433L1134.289,1250.076z M1263.387,1101.092
		l158.957-183.437l-140.946,308.646L1263.387,1101.092z M375.494,203.63l341.309-100.208L142.57,472.451L375.494,203.63z
		 M240.101,1250.076h374.408l314.935,202.394H555.063L240.101,1250.076z"/>
</g>
</svg>
