<?xml version="1.0" encoding="utf-8"?>
<!-- Generator: Adobe Illustrator 16.0.3, SVG Export Plug-In . SVG Version: 6.00 Build 0)  -->
<!DOCTYPE svg PUBLIC "-//W3C//DTD SVG 1.1//EN" "http://www.w3.org/Graphics/SVG/1.1/DTD/svg11.dtd">
<svg version="1.1" xmlns="http://www.w3.org/2000/svg" xmlns:xlink="http://www.w3.org/1999/xlink" x="0px" y="0px"
	 width="1509.154px" height="552px" viewBox="0 0 1509.154 552" enable-background="new 0 0 1509.154 552" xml:space="preserve">
<g id="Calque_2">
	<rect x="-5.504" width="1517.658" height="552"/>
</g>
<g id="Calque_1">
	<polygon fill="#FFFFFF" points="81.882,200.215 114.524,200.215 114.524,41.423 64.201,41.423 64.201,75.766 37,75.766 37,17.287 
		221.967,17.287 221.967,75.766 194.425,75.766 194.425,41.423 144.445,41.423 144.445,200.215 177.088,200.215 177.088,224.355 
		81.882,224.355 	"/>
	<polygon fill="#FFFFFF" points="246.97,200.215 277.575,200.215 277.575,41.423 246.97,41.423 246.97,17.287 414.601,17.287 
		414.601,75.427 387.063,75.427 387.063,41.423 307.493,41.423 307.493,108.073 393.181,108.073 393.181,132.206 307.493,132.206 
		307.493,200.215 387.738,200.215 387.738,165.191 415.614,165.191 415.614,224.355 246.97,224.355 	"/>
	<path fill="#FFFFFF" d="M444.521,200.215h30.596V41.423h-30.596V17.287h90.102v24.136h-29.586v158.792h32.305v24.141h-92.821
		V200.215z M518.643,121.679v-2.049l75.144-78.545h-26.87V17.287h87.052v24.136h-26.18l-73.105,77.527l71.058,81.265h31.286v24.141
		h-49.642L518.643,121.679z"/>
	<polygon fill="#FFFFFF" points="679.647,200.215 710.254,200.215 710.254,41.423 679.647,41.423 679.647,17.287 740.85,17.287 
		852.715,176.068 852.715,41.423 822.452,41.423 822.452,17.287 911.535,17.287 911.535,41.423 881.28,41.423 881.28,224.355 
		854.418,224.355 738.471,60.807 738.471,200.215 768.728,200.215 768.728,224.355 679.647,224.355 	"/>
	<polygon fill="#FFFFFF" points="933.967,200.215 964.571,200.215 964.571,41.423 933.967,41.423 933.967,17.287 1024.762,17.287 
		1024.762,41.423 994.49,41.423 994.49,200.215 1024.762,200.215 1024.762,224.355 933.967,224.355 	"/>
	<path fill="#FFFFFF" d="M1050.592,200.215h30.604V41.423h-30.604V17.287h90.106v24.136h-29.588v158.792h32.306v24.141h-92.824
		V200.215z M1124.716,121.679v-2.049l75.144-78.545h-26.863V17.287h87.045v24.136h-26.186l-73.102,77.527l71.069,81.265h31.28
		v24.141h-49.65L1124.716,121.679z"/>
	<path fill="#FFFFFF" d="M1240.755,200.215h26.514l64.264-158.792h-29.576V17.287h72.76l74.126,182.928h26.861v24.141h-88.746
		v-24.141h30.942l-15.983-39.781h-89.422l-15.646,39.781h30.604v24.141h-86.698V200.215z M1392.73,136.288l-35.35-90.1l-35.371,90.1
		H1392.73z"/>
	<rect x="539.562" y="306.831" fill="#FFFFFF" width="433.576" height="4.332"/>
	<polygon fill="#FFFFFF" points="155.914,431.979 161.883,431.979 161.883,401.014 155.914,401.014 155.914,396.306 
		174.472,396.306 174.472,401.014 167.716,401.014 167.716,431.979 183.358,431.979 183.358,424.746 188.794,424.746 
		188.794,436.685 155.914,436.685 	"/>
	<path fill="#FFFFFF" d="M189.861,431.979h5.175l12.527-30.965h-5.774v-4.708h14.198l14.451,35.673h5.241v4.706h-17.305v-4.706
		h6.037l-3.124-7.763h-17.431l-3.056,7.763h5.969v4.706h-16.908V431.979z M219.499,419.515l-6.898-17.574l-6.89,17.574H219.499z"/>
	<path fill="#FFFFFF" d="M250.534,435.36v-9.42h5.302v5.771c1.988,0.533,5.036,1.062,8.22,1.062c5.569,0,9.55-1.858,9.55-6.104
		c0-10.34-22.411-5.496-22.411-20.021c0-7.425,5.901-11.14,14.452-11.14c4.31,0,9.017,0.929,12.334,2.061v9.277h-5.376v-5.832
		c-1.718-0.398-4.31-0.798-6.763-0.798c-5.494,0-9.008,2.122-9.008,5.902c0,9.679,22.409,5.175,22.409,20.152
		c0,8.024-6.501,11.211-14.857,11.211C259.483,437.481,254.311,436.424,250.534,435.36"/>
	<polygon fill="#FFFFFF" points="284.542,431.979 290.51,431.979 290.51,401.014 284.542,401.014 284.542,396.306 317.228,396.306 
		317.228,407.642 311.861,407.642 311.861,401.014 296.354,401.014 296.354,414.009 313.057,414.009 313.057,418.717 
		296.354,418.717 296.354,431.979 311.996,431.979 311.996,425.146 317.432,425.146 317.432,436.685 284.542,436.685 	"/>
	<path fill="#FFFFFF" d="M323.137,416.663c0-12.865,8.356-21.155,21.478-21.155c5.968,0,11.54,1.726,14.46,3.119v10.607h-5.64
		v-7.425c-2.25-0.796-5.57-1.395-8.548-1.395c-9.153,0-15.714,5.642-15.714,15.978c0,10.809,7.221,16.05,15.975,16.05
		c5.299,0,10.346-1.988,13.927-4.05v5.571c-2.982,1.589-8.095,3.518-14.392,3.518C331.958,437.481,323.137,429.785,323.137,416.663"
		/>
	<polygon fill="#FFFFFF" points="371.67,431.979 378.036,431.979 378.036,401.014 368.225,401.014 368.225,407.712 362.918,407.712 
		362.918,396.306 398.991,396.306 398.991,407.712 393.614,407.712 393.614,401.014 383.869,401.014 383.869,431.979 
		390.237,431.979 390.237,436.685 371.67,436.685 	"/>
	<polygon fill="#FFFFFF" points="402.842,431.979 408.81,431.979 408.81,401.014 402.842,401.014 402.842,396.306 420.542,396.306 
		420.542,401.014 414.642,401.014 414.642,431.979 420.542,431.979 420.542,436.685 402.842,436.685 	"/>
	<path fill="#FFFFFF" d="M424.921,416.526c0-12.202,8.422-21.019,20.75-21.019c12.331,0,20.749,8.816,20.749,21.019
		c0,12.2-8.418,20.955-20.749,20.955C433.343,437.481,424.921,428.727,424.921,416.526 M460.449,416.526
		c0-9.812-6.093-16.11-14.778-16.11c-8.62,0-14.725,6.368-14.725,16.11c0,9.813,6.037,16.051,14.725,16.051
		C454.288,432.577,460.449,426.271,460.449,416.526"/>
	<polygon fill="#FFFFFF" points="470.804,431.979 476.773,431.979 476.773,401.014 470.804,401.014 470.804,396.306 
		482.742,396.306 504.549,427.269 504.549,401.014 498.648,401.014 498.648,396.306 516.028,396.306 516.028,401.014 
		510.126,401.014 510.126,436.685 504.887,436.685 482.273,404.791 482.273,431.979 488.174,431.979 488.174,436.685 
		470.804,436.685 	"/>
	<polygon fill="#FFFFFF" points="540.891,431.979 547.248,431.979 547.248,401.014 537.437,401.014 537.437,407.712 
		532.138,407.712 532.138,396.306 568.199,396.306 568.199,407.712 562.835,407.712 562.835,401.014 553.089,401.014 
		553.089,431.979 559.455,431.979 559.455,436.685 540.891,436.685 	"/>
	<polygon fill="#FFFFFF" points="572.053,431.979 578.022,431.979 578.022,401.014 572.053,401.014 572.053,396.306 
		604.741,396.306 604.741,407.642 599.37,407.642 599.37,401.014 583.854,401.014 583.854,414.009 600.566,414.009 600.566,418.717 
		583.854,418.717 583.854,431.979 599.506,431.979 599.506,425.146 604.941,425.146 604.941,436.685 572.053,436.685 	"/>
	<path fill="#FFFFFF" d="M610.65,416.663c0-12.865,8.353-21.155,21.476-21.155c5.968,0,11.537,1.726,14.458,3.119v10.607h-5.637
		v-7.425c-2.261-0.796-5.569-1.395-8.558-1.395c-9.143,0-15.705,5.642-15.705,15.978c0,10.809,7.222,16.05,15.974,16.05
		c5.3,0,10.347-1.988,13.926-4.05v5.571c-2.99,1.589-8.093,3.518-14.391,3.518C619.471,437.481,610.65,429.785,610.65,416.663"/>
	<polygon fill="#FFFFFF" points="651.622,431.979 657.591,431.979 657.591,401.014 651.622,401.014 651.622,396.306 
		669.392,396.306 669.392,401.014 663.433,401.014 663.433,413.942 685.043,413.942 685.043,401.014 679.075,401.014 
		679.075,396.306 696.768,396.306 696.768,401.014 690.876,401.014 690.876,431.979 696.768,431.979 696.768,436.685 
		679.075,436.685 679.075,431.979 685.043,431.979 685.043,418.849 663.433,418.849 663.433,431.979 669.392,431.979 
		669.392,436.685 651.622,436.685 	"/>
	<polygon fill="#FFFFFF" points="701.884,431.979 707.852,431.979 707.852,401.014 701.884,401.014 701.884,396.306 
		713.818,396.306 735.625,427.269 735.625,401.014 729.725,401.014 729.725,396.306 747.097,396.306 747.097,401.014 
		741.197,401.014 741.197,436.685 735.958,436.685 713.353,404.791 713.353,431.979 719.254,431.979 719.254,436.685 
		701.884,436.685 	"/>
	<polygon fill="#FFFFFF" points="751.476,431.979 757.444,431.979 757.444,401.014 751.476,401.014 751.476,396.306 
		769.186,396.306 769.186,401.014 763.282,401.014 763.282,431.979 769.186,431.979 769.186,436.685 751.476,436.685 	"/>
	<path fill="#FFFFFF" d="M793.651,437.481c-12.006-0.396-20.03-9.019-20.03-20.955c0-12.202,8.356-21.019,20.759-21.019
		c12.325,0,20.749,8.816,20.749,21.019c0,9.947-5.571,17.638-14.451,20.021l8.482,4.974l-3.116,4.445L793.651,437.481z
		 M809.16,416.526c0-9.812-6.104-16.11-14.78-16.11c-8.688,0-14.79,6.368-14.79,16.11c0,9.813,6.102,16.051,14.79,16.051
		C802.996,432.577,809.16,426.271,809.16,416.526"/>
	<path fill="#FFFFFF" d="M824.416,423.224v-22.21h-5.9v-4.708h17.633v4.708h-5.9v21.745c0,6.894,4.707,9.486,10.275,9.486
		c5.572,0,10.143-2.656,10.143-9.548v-21.684h-6.096v-4.708h17.44v4.708h-5.9v21.814c0,9.346-6.229,14.653-15.779,14.653
		C831.71,437.481,824.416,433.104,824.416,423.224"/>
	<polygon fill="#FFFFFF" points="865.852,431.979 871.821,431.979 871.821,401.014 865.852,401.014 865.852,396.306 
		898.541,396.306 898.541,407.642 893.172,407.642 893.172,401.014 877.653,401.014 877.653,414.009 894.366,414.009 
		894.366,418.717 877.653,418.717 877.653,431.979 893.299,431.979 893.299,425.146 898.744,425.146 898.744,436.685 
		865.852,436.685 	"/>
	<path fill="#FFFFFF" d="M904.845,435.36v-9.42h5.3v5.771c1.99,0.533,5.038,1.062,8.221,1.062c5.571,0,9.549-1.858,9.549-6.104
		c0-10.34-22.407-5.496-22.407-20.021c0-7.425,5.9-11.14,14.457-11.14c4.301,0,9.008,0.929,12.329,2.061v9.277h-5.367v-5.832
		c-1.728-0.398-4.319-0.798-6.766-0.798c-5.502,0-9.018,2.122-9.018,5.902c0,9.679,22.411,5.175,22.411,20.152
		c0,8.024-6.491,11.211-14.857,11.211C913.794,437.481,908.623,436.424,904.845,435.36"/>
	<path fill="#FFFFFF" d="M953.449,416.721c0-12.458,7.823-21.213,21.807-21.213c6.239,0,12.006,1.727,15.323,3.316v9.744h-5.435
		v-6.559c-2.59-0.798-6.105-1.595-9.687-1.595c-10.208,0-16.176,6.3-16.176,16.18c0,9.946,5.968,15.912,16.042,15.912
		c3.783,0,7.163-0.863,10.016-1.929v-10.469h-9.414v-4.642h18.564v4.642h-3.715v13.524c-3.116,1.658-8.553,3.849-15.578,3.849
		C961.737,437.482,953.449,429.521,953.449,416.721"/>
	<path fill="#FFFFFF" d="M998.672,431.979h5.968v-30.965h-5.968v-4.707h18.896c9.674,0,16.111,4.776,16.111,12.332
		c0,5.439-3.254,9.481-8.891,11.073l6.831,12.267h5.571v4.706h-9.549l-8.549-15.445h-8.621v10.739h5.9v4.706h-17.7V431.979z
		 M1017.695,416.663c7.162,0,10.083-3.315,10.083-7.826c0-4.513-2.989-7.823-10.083-7.823h-7.223v15.649H1017.695z"/>
	<path fill="#FFFFFF" d="M1038.454,431.979h5.171l12.526-30.965h-5.763v-4.708h14.188l14.453,35.673h5.239v4.706h-17.304v-4.706
		h6.028l-3.117-7.763h-17.429l-3.058,7.763h5.969v4.706h-16.904V431.979z M1068.089,419.515l-6.898-17.574l-6.891,17.574H1068.089z"
		/>
	<path fill="#FFFFFF" d="M1086.259,431.979h5.965v-30.965h-5.965v-4.708h18.303c9.743,0,16.109,4.974,16.109,12.797
		c0,7.825-6.366,12.795-16.109,12.795h-6.505v10.081h7.163v4.706h-18.961V431.979z M1098.057,417.188h6.639
		c7.153,0,10.073-3.575,10.073-8.085c0-4.507-2.92-8.089-10.073-8.089h-6.639V417.188z"/>
	<polygon fill="#FFFFFF" points="1124.453,431.979 1130.422,431.979 1130.422,401.014 1124.453,401.014 1124.453,396.306 
		1142.226,396.306 1142.226,401.014 1136.254,401.014 1136.254,413.942 1157.869,413.942 1157.869,401.014 1151.9,401.014 
		1151.9,396.306 1169.601,396.306 1169.601,401.014 1163.702,401.014 1163.702,431.979 1169.601,431.979 1169.601,436.685 
		1151.9,436.685 1151.9,431.979 1157.869,431.979 1157.869,418.849 1136.254,418.849 1136.254,431.979 1142.226,431.979 
		1142.226,436.685 1124.453,436.685 	"/>
	<polygon fill="#FFFFFF" points="1174.714,431.979 1180.683,431.979 1180.683,401.014 1174.714,401.014 1174.714,396.306 
		1192.417,396.306 1192.417,401.014 1186.515,401.014 1186.515,431.979 1192.417,431.979 1192.417,436.685 1174.714,436.685 	"/>
	<path fill="#FFFFFF" d="M1216.882,437.481c-11.995-0.396-20.021-9.019-20.021-20.955c0-12.202,8.353-21.019,20.747-21.019
		c12.338,0,20.762,8.816,20.762,21.019c0,9.947-5.572,17.638-14.462,20.021l8.49,4.974l-3.113,4.445L1216.882,437.481z
		 M1232.399,416.526c0-9.812-6.103-16.11-14.79-16.11c-8.677,0-14.778,6.368-14.778,16.11c0,9.813,6.102,16.051,14.778,16.051
		C1226.238,432.577,1232.399,426.271,1232.399,416.526"/>
	<path fill="#FFFFFF" d="M1247.654,423.224v-22.21h-5.897v-4.708h17.63v4.708h-5.899v21.745c0,6.894,4.71,9.486,10.278,9.486
		c5.572,0,10.142-2.656,10.142-9.548v-21.684h-6.095v-4.708h17.432v4.708h-5.9v21.814c0,9.346-6.232,14.653-15.773,14.653
		C1254.944,437.481,1247.654,433.104,1247.654,423.224"/>
	<polygon fill="#FFFFFF" points="1289.094,431.979 1295.062,431.979 1295.062,401.014 1289.094,401.014 1289.094,396.306 
		1321.781,396.306 1321.781,407.642 1316.415,407.642 1316.415,401.014 1300.895,401.014 1300.895,414.009 1317.599,414.009 
		1317.599,418.717 1300.895,418.717 1300.895,431.979 1316.542,431.979 1316.542,425.146 1321.977,425.146 1321.977,436.685 
		1289.094,436.685 	"/>
	<path fill="#FFFFFF" d="M1328.087,435.36v-9.42h5.299v5.771c1.989,0.533,5.039,1.062,8.221,1.062c5.571,0,9.55-1.858,9.55-6.104
		c0-10.34-22.408-5.496-22.408-20.021c0-7.425,5.901-11.14,14.452-11.14c4.307,0,9.014,0.929,12.331,2.061v9.277h-5.373v-5.832
		c-1.718-0.398-4.311-0.798-6.766-0.798c-5.504,0-9.008,2.122-9.008,5.902c0,9.679,22.399,5.175,22.399,20.152
		c0,8.024-6.493,11.211-14.85,11.211C1337.027,437.481,1331.866,436.424,1328.087,435.36"/>
	<path fill="#FFFFFF" d="M240.454,520.731h5.966v-30.963h-5.966v-4.707h18.691c13.132,0,21.42,7.43,21.42,20.221
		c0,12.729-8.288,20.155-21.42,20.155h-18.691V520.731z M259.145,520.731c9.879,0,15.451-5.705,15.451-15.449
		c0-9.809-5.572-15.514-15.451-15.514h-6.889v30.963H259.145z"/>
	<polygon fill="#FFFFFF" points="285.076,520.731 291.043,520.731 291.043,489.769 285.076,489.769 285.076,485.062 
		317.763,485.062 317.763,496.397 312.395,496.397 312.395,489.769 296.876,489.769 296.876,502.764 313.585,502.764 
		313.585,507.473 296.876,507.473 296.876,520.731 312.52,520.731 312.52,513.903 317.964,513.903 317.964,525.438 285.076,525.438 
			"/>
	<polygon fill="#FFFFFF" points="338.053,520.731 344.021,520.731 344.021,489.769 338.053,489.769 338.053,485.062 356.62,485.062 
		356.62,489.769 349.854,489.769 349.854,520.731 365.5,520.731 365.5,513.509 370.942,513.509 370.942,525.438 338.053,525.438 	
		"/>
	<path fill="#FFFFFF" d="M371.999,520.731h5.183l12.521-30.963h-5.767v-4.707h14.189l14.452,35.67h5.241v4.706h-17.305v-4.706h6.036
		l-3.125-7.76h-17.429l-3.048,7.76h5.961v4.706h-16.909V520.731z M401.638,508.269l-6.89-17.571l-6.898,17.571H401.638z"/>
	<polygon fill="#FFFFFF" points="432.216,520.731 438.177,520.731 438.177,489.769 432.216,489.769 432.216,485.062 
		449.977,485.062 449.977,489.769 444.018,489.769 444.018,502.694 465.629,502.694 465.629,489.769 459.664,489.769 
		459.664,485.062 477.365,485.062 477.365,489.769 471.462,489.769 471.462,520.731 477.365,520.731 477.365,525.438 
		459.664,525.438 459.664,520.731 465.629,520.731 465.629,507.6 444.018,507.6 444.018,520.731 449.977,520.731 449.977,525.438 
		432.216,525.438 	"/>
	<path fill="#FFFFFF" d="M479.886,520.731h5.172l12.533-30.963h-5.777v-4.707h14.189l14.458,35.67h5.244v4.706h-17.306v-4.706h6.037
		l-3.125-7.76h-17.432l-3.054,7.76h5.969v4.706h-16.908V520.731z M509.525,508.269l-6.894-17.571l-6.897,17.571H509.525z"/>
	<path fill="#FFFFFF" d="M530.547,511.979v-22.211h-5.909v-4.707h17.642v4.707h-5.901v21.747c0,6.896,4.708,9.484,10.276,9.484
		c5.569,0,10.142-2.655,10.142-9.547v-21.685h-6.095v-4.707h17.432v4.707h-5.901v21.813c0,9.347-6.231,14.649-15.773,14.649
		C537.834,526.231,530.547,521.856,530.547,511.979"/>
	<polygon fill="#FFFFFF" points="579.544,520.731 585.911,520.731 585.911,489.769 576.091,489.769 576.091,496.466 
		570.791,496.466 570.791,485.062 606.855,485.062 606.855,496.466 601.487,496.466 601.487,489.769 591.746,489.769 
		591.746,520.731 598.111,520.731 598.111,525.438 579.544,525.438 	"/>
	<polygon fill="#FFFFFF" points="610.716,520.731 616.684,520.731 616.684,489.769 610.716,489.769 610.716,485.062 
		643.393,485.062 643.393,496.397 638.026,496.397 638.026,489.769 622.516,489.769 622.516,502.764 639.219,502.764 
		639.219,507.473 622.516,507.473 622.516,520.731 638.163,520.731 638.163,513.903 643.594,513.903 643.594,525.438 
		610.716,525.438 	"/>
	<polygon fill="#FFFFFF" points="663.693,520.731 669.656,520.731 669.656,489.769 663.693,489.769 663.693,485.062 
		696.372,485.062 696.372,496.397 691.004,496.397 691.004,489.769 675.488,489.769 675.488,502.764 692.198,502.764 
		692.198,507.473 675.488,507.473 675.488,520.731 691.14,520.731 691.14,513.903 696.572,513.903 696.572,525.438 663.693,525.438 
			"/>
	<path fill="#FFFFFF" d="M702.28,505.416c0-12.857,8.356-21.15,21.482-21.15c5.963,0,11.534,1.722,14.446,3.118v10.608h-5.628
		v-7.426c-2.26-0.797-5.566-1.391-8.555-1.391c-9.15,0-15.708,5.635-15.708,15.974c0,10.808,7.218,16.048,15.978,16.048
		c5.299,0,10.331-1.988,13.913-4.048v5.568c-2.98,1.595-8.084,3.514-14.378,3.514C711.101,526.231,702.28,518.547,702.28,505.416"/>
	<path fill="#FFFFFF" d="M743.253,505.282c0-12.199,8.424-21.017,20.75-21.017c12.332,0,20.758,8.817,20.758,21.017
		c0,12.197-8.426,20.949-20.758,20.949C751.677,526.231,743.253,517.479,743.253,505.282 M778.792,505.282
		c0-9.809-6.103-16.106-14.789-16.106c-8.609,0-14.713,6.362-14.713,16.106c0,9.813,6.036,16.046,14.713,16.046
		C772.622,521.328,778.792,515.026,778.792,505.282"/>
	<polygon fill="#FFFFFF" points="789.138,520.731 795.109,520.731 795.109,489.769 789.138,489.769 789.138,485.062 
		807.703,485.062 807.703,489.769 800.94,489.769 800.94,520.731 816.583,520.731 816.583,513.509 822.019,513.509 822.019,525.438 
		789.138,525.438 	"/>
	<polygon fill="#FFFFFF" points="825.673,520.731 831.645,520.731 831.645,489.769 825.673,489.769 825.673,485.062 
		858.361,485.062 858.361,496.397 852.994,496.397 852.994,489.769 837.479,489.769 837.479,502.764 854.178,502.764 
		854.178,507.473 837.479,507.473 837.479,520.731 853.121,520.731 853.121,513.903 858.556,513.903 858.556,525.438 
		825.673,525.438 	"/>
	<polygon fill="#FFFFFF" points="878.656,520.731 884.615,520.731 884.615,489.769 878.656,489.769 878.656,485.062 
		911.331,485.062 911.331,496.397 905.963,496.397 905.963,489.769 890.457,489.769 890.457,502.764 907.16,502.764 907.16,507.473 
		890.457,507.473 890.457,520.731 906.099,520.731 906.099,513.903 911.535,513.903 911.535,525.438 878.656,525.438 	"/>
	<polygon fill="#FFFFFF" points="917.172,520.731 923.139,520.731 923.139,489.769 917.172,489.769 917.172,485.062 
		929.109,485.062 950.924,516.022 950.924,489.769 945.025,489.769 945.025,485.062 962.388,485.062 962.388,489.769 
		956.498,489.769 956.498,525.438 951.254,525.438 928.643,493.549 928.643,520.731 934.545,520.731 934.545,525.438 
		917.172,525.438 	"/>
	<polygon fill="#FFFFFF" points="981.234,520.731 987.193,520.731 987.193,489.769 981.234,489.769 981.234,485.062 
		999.003,485.062 999.003,489.769 993.025,489.769 993.025,502.694 1014.646,502.694 1014.646,489.769 1008.677,489.769 
		1008.677,485.062 1026.379,485.062 1026.379,489.769 1020.479,489.769 1020.479,520.731 1026.379,520.731 1026.379,525.438 
		1008.677,525.438 1008.677,520.731 1014.646,520.731 1014.646,507.6 993.025,507.6 993.025,520.731 999.003,520.731 
		999.003,525.438 981.234,525.438 	"/>
	<path fill="#FFFFFF" d="M1028.903,520.731h5.173l12.529-30.963h-5.768v-4.707h14.188l14.452,35.67h5.241v4.706h-17.303v-4.706
		h6.024l-3.115-7.76h-17.429l-3.057,7.76h5.968v4.706h-16.905V520.731z M1058.542,508.269l-6.901-17.571l-6.891,17.571H1058.542z"/>
	<polygon fill="#FFFFFF" points="1076.709,520.731 1082.677,520.731 1082.677,489.769 1076.709,489.769 1076.709,485.062 
		1094.411,485.062 1094.411,489.769 1088.51,489.769 1088.51,520.731 1094.411,520.731 1094.411,525.438 1076.709,525.438 	"/>
	<polygon fill="#FFFFFF" points="1099.456,520.731 1105.423,520.731 1105.423,489.769 1099.456,489.769 1099.456,485.062 
		1111.383,485.062 1133.201,516.022 1133.201,489.769 1127.299,489.769 1127.299,485.062 1144.672,485.062 1144.672,489.769 
		1138.769,489.769 1138.769,525.438 1133.529,525.438 1110.918,493.549 1110.918,520.731 1116.827,520.731 1116.827,525.438 
		1099.456,525.438 	"/>
	<path fill="#FFFFFF" d="M1145.271,520.731h5.172l12.529-30.963h-5.764v-4.707h14.188l14.449,35.67h5.242v4.706h-17.304v-4.706
		h6.028l-3.117-7.76h-17.433l-3.054,7.76h5.969v4.706h-16.907V520.731z M1174.91,508.269l-6.893-17.571l-6.899,17.571H1174.91z"/>
	<path fill="#FFFFFF" d="M1195.932,511.979v-22.211h-5.903v-4.707h17.633v4.707h-5.896v21.747c0,6.896,4.707,9.484,10.275,9.484
		s10.143-2.655,10.143-9.547v-21.685h-6.097v-4.707h17.432v4.707h-5.9v21.813c0,9.347-6.231,14.649-15.772,14.649
		C1203.219,526.231,1195.932,521.856,1195.932,511.979"/>
	<polygon fill="#FFFFFF" points="1244.928,520.731 1251.295,520.731 1251.295,489.769 1241.483,489.769 1241.483,496.466 
		1236.176,496.466 1236.176,485.062 1272.25,485.062 1272.25,496.466 1266.873,496.466 1266.873,489.769 1257.126,489.769 
		1257.126,520.731 1263.496,520.731 1263.496,525.438 1244.928,525.438 	"/>
</g>
</svg>
