<?xml version="1.0" encoding="utf-8"?>
<!-- Generator: Adobe Illustrator 16.0.3, SVG Export Plug-In . SVG Version: 6.00 Build 0)  -->
<!DOCTYPE svg PUBLIC "-//W3C//DTD SVG 1.1//EN" "http://www.w3.org/Graphics/SVG/1.1/DTD/svg11.dtd">
<svg version="1.1" id="Calque_1" xmlns="http://www.w3.org/2000/svg" xmlns:xlink="http://www.w3.org/1999/xlink" x="0px" y="0px"
	 width="640px" height="268.4px" viewBox="0 0 640 268.4" enable-background="new 0 0 640 268.4" xml:space="preserve">
<polygon points="79.739,106.459 91.96,106.459 91.96,47.015 73.121,47.015 73.121,59.873 62.937,59.873 62.937,37.978 
	132.182,37.978 132.182,59.873 121.87,59.873 121.87,47.015 103.159,47.015 103.159,106.459 115.38,106.459 115.38,115.499 
	79.739,115.499 "/>
<polygon points="141.542,106.459 152.999,106.459 152.999,47.015 141.542,47.015 141.542,37.978 204.295,37.978 204.295,59.746 
	193.985,59.746 193.985,47.015 164.198,47.015 164.198,71.965 196.277,71.965 196.277,81 164.198,81 164.198,106.459 
	194.241,106.459 194.241,93.349 204.676,93.349 204.676,115.499 141.542,115.499 "/>
<path d="M243.245,77.06v-0.77l28.13-29.402h-10.058v-8.91h32.587v9.037h-9.8l-27.368,29.023l26.602,30.421h11.711v9.04h-18.583
	L243.245,77.06z M215.497,106.459h11.454V47.015h-11.454v-9.037h33.732v9.037h-11.077v59.444h12.094v9.04h-34.749V106.459z"/>
<polygon points="303.519,106.459 314.977,106.459 314.977,47.015 303.519,47.015 303.519,37.978 326.432,37.978 368.309,97.423 
	368.309,47.015 356.98,47.015 356.98,37.978 390.328,37.978 390.328,47.015 379.004,47.015 379.004,115.499 368.946,115.499 
	325.54,54.271 325.54,106.459 336.869,106.459 336.869,115.499 303.519,115.499 "/>
<polygon points="398.727,106.459 410.186,106.459 410.186,47.015 398.727,47.015 398.727,37.978 432.715,37.978 432.715,47.015 
	421.384,47.015 421.384,106.459 432.715,106.459 432.715,115.499 398.727,115.499 "/>
<path d="M470.137,77.06v-0.77l28.131-29.402h-10.057v-8.91h32.586v9.037h-9.803l-27.366,29.023l26.605,30.421h11.71v9.04h-18.586
	L470.137,77.06z M442.388,106.459h11.457V47.015h-11.457v-9.037h33.732v9.037h-11.077v59.444h12.095v9.04h-34.75V106.459z"/>
<path d="M570.47,82.528l-13.233-33.731l-13.241,33.731H570.47z M513.577,106.459h9.926l24.056-59.444h-11.071v-9.037h27.241
	l27.747,68.481h10.055v9.04h-33.222v-9.04h11.584l-5.983-14.892h-33.478l-5.856,14.892h11.458v9.04h-32.456V106.459z"/>
<rect x="251.078" y="146.371" width="162.313" height="1.626"/>
<polygon points="107.453,193.225 109.688,193.225 109.688,181.634 107.453,181.634 107.453,179.869 114.4,179.869 114.4,181.634 
	111.871,181.634 111.871,193.225 117.729,193.225 117.729,190.517 119.763,190.517 119.763,194.985 107.453,194.985 "/>
<path d="M131.258,188.557l-2.583-6.578l-2.58,6.578H131.258z M120.163,193.225h1.936l4.692-11.591h-2.163v-1.765h5.314l5.41,13.355
	h1.961v1.761h-6.478v-1.761h2.261l-1.171-2.91h-6.524l-1.143,2.91h2.233v1.761h-6.329V193.225z"/>
<path d="M142.876,194.49v-3.528h1.982v2.162c0.747,0.2,1.887,0.397,3.079,0.397c2.084,0,3.575-0.697,3.575-2.286
	c0-3.871-8.388-2.058-8.388-7.495c0-2.779,2.208-4.172,5.408-4.172c1.615,0,3.375,0.351,4.62,0.771v3.478h-2.014v-2.185
	c-0.644-0.151-1.614-0.297-2.532-0.297c-2.058,0-3.372,0.792-3.372,2.209c0,3.624,8.388,1.933,8.388,7.542
	c0,3.006-2.432,4.199-5.56,4.199C146.225,195.284,144.291,194.885,142.876,194.49"/>
<polygon points="155.606,193.225 157.841,193.225 157.841,181.634 155.606,181.634 155.606,179.869 167.844,179.869 
	167.844,184.113 165.834,184.113 165.834,181.634 160.029,181.634 160.029,186.495 166.28,186.495 166.28,188.259 160.029,188.259 
	160.029,193.225 165.884,193.225 165.884,190.665 167.918,190.665 167.918,194.985 155.606,194.985 "/>
<path d="M170.055,187.488c0-4.814,3.129-7.92,8.039-7.92c2.237,0,4.321,0.646,5.414,1.17v3.973h-2.11v-2.783
	c-0.842-0.298-2.087-0.521-3.203-0.521c-3.425,0-5.882,2.11-5.882,5.981c0,4.047,2.705,6.008,5.981,6.008
	c1.986,0,3.873-0.746,5.214-1.517v2.087c-1.116,0.596-3.029,1.316-5.388,1.316C173.356,195.284,170.055,192.404,170.055,187.488"/>
<polygon points="188.224,193.225 190.607,193.225 190.607,181.634 186.935,181.634 186.935,184.138 184.949,184.138 
	184.949,179.869 198.452,179.869 198.452,184.138 196.438,184.138 196.438,181.634 192.791,181.634 192.791,193.225 
	195.174,193.225 195.174,194.985 188.224,194.985 "/>
<polygon points="199.894,193.225 202.128,193.225 202.128,181.634 199.894,181.634 199.894,179.869 206.522,179.869 
	206.522,181.634 204.311,181.634 204.311,193.225 206.522,193.225 206.522,194.985 199.894,194.985 "/>
<path d="M221.46,187.438c0-3.671-2.281-6.03-5.533-6.03c-3.227,0-5.512,2.384-5.512,6.03c0,3.674,2.258,6.008,5.512,6.008
	C219.152,193.446,221.46,191.087,221.46,187.438 M208.159,187.438c0-4.567,3.154-7.87,7.768-7.87c4.619,0,7.766,3.303,7.766,7.87
	c0,4.565-3.147,7.846-7.766,7.846C211.313,195.284,208.159,192.004,208.159,187.438"/>
<polygon points="225.336,193.225 227.569,193.225 227.569,181.634 225.336,181.634 225.336,179.869 229.804,179.869 237.97,191.461 
	237.97,181.634 235.759,181.634 235.759,179.869 242.267,179.869 242.267,181.634 240.056,181.634 240.056,194.985 238.096,194.985 
	229.632,183.046 229.632,193.225 231.839,193.225 231.839,194.985 225.336,194.985 "/>
<polygon points="251.574,193.225 253.954,193.225 253.954,181.634 250.28,181.634 250.28,184.138 248.299,184.138 248.299,179.869 
	261.799,179.869 261.799,184.138 259.789,184.138 259.789,181.634 256.141,181.634 256.141,193.225 258.523,193.225 
	258.523,194.985 251.574,194.985 "/>
<polygon points="263.241,193.225 265.474,193.225 265.474,181.634 263.241,181.634 263.241,179.869 275.476,179.869 
	275.476,184.113 273.468,184.113 273.468,181.634 267.656,181.634 267.656,186.495 273.913,186.495 273.913,188.259 
	267.656,188.259 267.656,193.225 273.518,193.225 273.518,190.665 275.552,190.665 275.552,194.985 263.241,194.985 "/>
<path d="M277.688,187.488c0-4.814,3.129-7.92,8.039-7.92c2.237,0,4.32,0.646,5.414,1.17v3.973h-2.11v-2.783
	c-0.848-0.298-2.087-0.521-3.205-0.521c-3.423,0-5.878,2.11-5.878,5.981c0,4.047,2.704,6.008,5.979,6.008
	c1.987,0,3.874-0.746,5.214-1.517v2.087c-1.119,0.596-3.03,1.316-5.388,1.316C280.989,195.284,277.688,192.404,277.688,187.488"/>
<polygon points="293.027,193.225 295.261,193.225 295.261,181.634 293.027,181.634 293.027,179.869 299.68,179.869 299.68,181.634 
	297.449,181.634 297.449,186.47 305.539,186.47 305.539,181.634 303.307,181.634 303.307,179.869 309.929,179.869 309.929,181.634 
	307.723,181.634 307.723,193.225 309.929,193.225 309.929,194.985 303.307,194.985 303.307,193.225 305.539,193.225 
	305.539,188.308 297.449,188.308 297.449,193.225 299.68,193.225 299.68,194.985 293.027,194.985 "/>
<polygon points="311.844,193.225 314.076,193.225 314.076,181.634 311.844,181.634 311.844,179.869 316.311,179.869 
	324.476,191.461 324.476,181.634 322.265,181.634 322.265,179.869 328.769,179.869 328.769,181.634 326.561,181.634 
	326.561,194.985 324.601,194.985 316.139,183.046 316.139,193.225 318.348,193.225 318.348,194.985 311.844,194.985 "/>
<polygon points="330.408,193.225 332.642,193.225 332.642,181.634 330.408,181.634 330.408,179.869 337.039,179.869 
	337.039,181.634 334.83,181.634 334.83,193.225 337.039,193.225 337.039,194.985 330.408,194.985 "/>
<path d="M352.003,187.438c0-3.673-2.283-6.033-5.531-6.033c-3.254,0-5.539,2.387-5.539,6.033c0,3.672,2.285,6.008,5.539,6.008
	C349.694,193.446,352.003,191.085,352.003,187.438 M346.196,195.284c-4.493-0.15-7.497-3.379-7.497-7.846
	c0-4.57,3.127-7.865,7.772-7.865c4.614,0,7.766,3.295,7.766,7.865c0,3.726-2.084,6.602-5.409,7.495l3.175,1.863l-1.166,1.665
	L346.196,195.284z"/>
<path d="M357.713,189.947v-8.315h-2.208v-1.762h6.601v1.762h-2.208v8.14c0,2.581,1.764,3.553,3.847,3.553
	c2.084,0,3.797-0.994,3.797-3.575v-8.118h-2.28v-1.762h6.529v1.762h-2.211v8.165c0,3.502-2.332,5.488-5.906,5.488
	C360.445,195.284,357.713,193.646,357.713,189.947"/>
<polygon points="373.228,193.225 375.461,193.225 375.461,181.634 373.228,181.634 373.228,179.869 385.464,179.869 
	385.464,184.113 383.455,184.113 383.455,181.634 377.645,181.634 377.645,186.495 383.899,186.495 383.899,188.259 
	377.645,188.259 377.645,193.225 383.503,193.225 383.503,190.665 385.541,190.665 385.541,194.985 373.228,194.985 "/>
<path d="M387.825,194.49v-3.528h1.984v2.162c0.745,0.2,1.887,0.397,3.078,0.397c2.086,0,3.574-0.697,3.574-2.286
	c0-3.871-8.39-2.058-8.39-7.495c0-2.779,2.209-4.172,5.413-4.172c1.61,0,3.372,0.351,4.615,0.771v3.478h-2.012v-2.185
	c-0.646-0.151-1.615-0.297-2.532-0.297c-2.058,0-3.375,0.792-3.375,2.209c0,3.624,8.391,1.933,8.391,7.542
	c0,3.006-2.432,4.199-5.562,4.199C391.175,195.284,389.239,194.885,387.825,194.49"/>
<path d="M406.021,187.512c0-4.663,2.927-7.944,8.161-7.944c2.338,0,4.497,0.646,5.739,1.246v3.645h-2.035v-2.455
	c-0.972-0.297-2.286-0.596-3.627-0.596c-3.821,0-6.058,2.357-6.058,6.055c0,3.725,2.236,5.958,6.005,5.958
	c1.419,0,2.684-0.326,3.751-0.722v-3.922h-3.521v-1.734h6.948v1.734h-1.392v5.067c-1.165,0.619-3.2,1.439-5.829,1.439
	C409.123,195.284,406.021,192.303,406.021,187.512"/>
<path d="M430.069,187.49c2.683,0,3.774-1.242,3.774-2.93c0-1.689-1.116-2.927-3.774-2.927h-2.703v5.856H430.069z M422.95,193.225
	h2.232v-11.591h-2.232v-1.765h7.072c3.621,0,6.03,1.79,6.03,4.616c0,2.036-1.216,3.549-3.325,4.147l2.558,4.592h2.084v1.761h-3.574
	l-3.201-5.783h-3.228v4.022h2.211v1.761h-6.627V193.225z"/>
<path d="M448.937,188.557l-2.582-6.578l-2.582,6.578H448.937z M437.842,193.225h1.934l4.694-11.591h-2.163v-1.765h5.315l5.41,13.355
	h1.961v1.761h-6.479v-1.761h2.257l-1.165-2.91h-6.524l-1.144,2.91h2.232v1.761h-6.328V193.225z"/>
<path d="M460.154,187.686h2.487c2.675,0,3.771-1.339,3.771-3.027c0-1.687-1.096-3.025-3.771-3.025h-2.487V187.686z M455.74,193.225
	h2.232v-11.591h-2.232v-1.765h6.852c3.647,0,6.031,1.863,6.031,4.79c0,2.931-2.384,4.792-6.031,4.792h-2.438v3.774h2.684v1.761
	h-7.098V193.225z"/>
<polygon points="470.038,193.225 472.271,193.225 472.271,181.634 470.038,181.634 470.038,179.869 476.691,179.869 
	476.691,181.634 474.455,181.634 474.455,186.47 482.548,186.47 482.548,181.634 480.313,181.634 480.313,179.869 486.938,179.869 
	486.938,181.634 484.729,181.634 484.729,193.225 486.938,193.225 486.938,194.985 480.313,194.985 480.313,193.225 
	482.548,193.225 482.548,188.308 474.455,188.308 474.455,193.225 476.691,193.225 476.691,194.985 470.038,194.985 "/>
<polygon points="488.853,193.225 491.087,193.225 491.087,181.634 488.853,181.634 488.853,179.869 495.481,179.869 
	495.481,181.634 493.271,181.634 493.271,193.225 495.481,193.225 495.481,194.985 488.853,194.985 "/>
<path d="M510.446,187.438c0-3.673-2.282-6.033-5.534-6.033c-3.248,0-5.535,2.387-5.535,6.033c0,3.672,2.287,6.008,5.535,6.008
	C508.139,193.446,510.446,191.085,510.446,187.438 M504.639,195.284c-4.489-0.15-7.495-3.379-7.495-7.846
	c0-4.57,3.13-7.865,7.769-7.865c4.618,0,7.772,3.295,7.772,7.865c0,3.726-2.088,6.602-5.416,7.495l3.178,1.863l-1.166,1.665
	L504.639,195.284z"/>
<path d="M516.161,189.947v-8.315h-2.208v-1.762h6.598v1.762h-2.208v8.14c0,2.581,1.763,3.553,3.848,3.553
	c2.086,0,3.798-0.994,3.798-3.575v-8.118h-2.284v-1.762h6.528v1.762h-2.211v8.165c0,3.502-2.332,5.488-5.905,5.488
	C518.888,195.284,516.161,193.646,516.161,189.947"/>
<polygon points="531.671,193.225 533.905,193.225 533.905,181.634 531.671,181.634 531.671,179.869 543.908,179.869 
	543.908,184.113 541.9,184.113 541.9,181.634 536.09,181.634 536.09,186.495 542.343,186.495 542.343,188.259 536.09,188.259 
	536.09,193.225 541.948,193.225 541.948,190.665 543.981,190.665 543.981,194.985 531.671,194.985 "/>
<path d="M546.271,194.49v-3.528h1.982v2.162c0.747,0.2,1.887,0.397,3.08,0.397c2.084,0,3.574-0.697,3.574-2.286
	c0-3.871-8.391-2.058-8.391-7.495c0-2.779,2.209-4.172,5.41-4.172c1.614,0,3.375,0.351,4.619,0.771v3.478h-2.012v-2.185
	c-0.646-0.151-1.617-0.297-2.535-0.297c-2.059,0-3.372,0.792-3.372,2.209c0,3.624,8.386,1.933,8.386,7.542
	c0,3.006-2.43,4.199-5.558,4.199C549.616,195.284,547.686,194.885,546.271,194.49"/>
<path d="M146.099,226.449c3.698,0,5.786-2.136,5.786-5.783c0-3.671-2.087-5.809-5.786-5.809h-2.581v11.592H146.099z
	 M139.102,226.449h2.233v-11.592h-2.233v-1.762h6.998c4.915,0,8.019,2.782,8.019,7.57c0,4.768-3.104,7.547-8.019,7.547h-6.998
	V226.449z"/>
<polygon points="155.806,226.449 158.041,226.449 158.041,214.857 155.806,214.857 155.806,213.096 168.042,213.096 168.042,217.34 
	166.034,217.34 166.034,214.857 160.223,214.857 160.223,219.722 166.479,219.722 166.479,221.486 160.223,221.486 160.223,226.449 
	166.083,226.449 166.083,223.895 168.119,223.895 168.119,228.213 155.806,228.213 "/>
<polygon points="175.64,226.449 177.873,226.449 177.873,214.857 175.64,214.857 175.64,213.096 182.588,213.096 182.588,214.857 
	180.056,214.857 180.056,226.449 185.915,226.449 185.915,223.744 187.951,223.744 187.951,228.213 175.64,228.213 "/>
<path d="M199.444,221.784l-2.581-6.579l-2.583,6.579H199.444z M188.348,226.449h1.94l4.688-11.592h-2.16v-1.762h5.312l5.41,13.354
	h1.962v1.764h-6.479v-1.764h2.262l-1.172-2.902h-6.523l-1.142,2.902h2.231v1.764h-6.329V226.449z"/>
<polygon points="210.891,226.449 213.122,226.449 213.122,214.857 210.891,214.857 210.891,213.096 217.538,213.096 
	217.538,214.857 215.308,214.857 215.308,219.697 223.4,219.697 223.4,214.857 221.166,214.857 221.166,213.096 227.792,213.096 
	227.792,214.857 225.583,214.857 225.583,226.449 227.792,226.449 227.792,228.213 221.166,228.213 221.166,226.449 223.4,226.449 
	223.4,221.535 215.308,221.535 215.308,226.449 217.538,226.449 217.538,228.213 210.891,228.213 "/>
<path d="M239.833,221.784l-2.582-6.579l-2.583,6.579H239.833z M228.737,226.449h1.936l4.692-11.592h-2.162v-1.762h5.313
	l5.413,13.354h1.96v1.764h-6.478v-1.764h2.261l-1.171-2.902h-6.523l-1.144,2.902h2.232v1.764h-6.328V226.449z"/>
<path d="M247.701,223.174v-8.313h-2.211v-1.765h6.604v1.765h-2.208v8.139c0,2.583,1.762,3.551,3.848,3.551
	c2.083,0,3.796-0.992,3.796-3.572v-8.117h-2.281v-1.765h6.524v1.765h-2.211v8.163c0,3.499-2.331,5.485-5.904,5.485
	C250.43,228.509,247.701,226.871,247.701,223.174"/>
<polygon points="266.045,226.449 268.428,226.449 268.428,214.857 264.752,214.857 264.752,217.365 262.769,217.365 
	262.769,213.096 276.27,213.096 276.27,217.365 274.258,217.365 274.258,214.857 270.611,214.857 270.611,226.449 272.994,226.449 
	272.994,228.213 266.045,228.213 "/>
<polygon points="277.713,226.449 279.948,226.449 279.948,214.857 277.713,214.857 277.713,213.096 289.947,213.096 289.947,217.34 
	287.938,217.34 287.938,214.857 282.131,214.857 282.131,219.722 288.385,219.722 288.385,221.486 282.131,221.486 282.131,226.449 
	287.989,226.449 287.989,223.895 290.023,223.895 290.023,228.213 277.713,228.213 "/>
<polygon points="297.547,226.449 299.778,226.449 299.778,214.857 297.547,214.857 297.547,213.096 309.78,213.096 309.78,217.34 
	307.771,217.34 307.771,214.857 301.961,214.857 301.961,219.722 308.217,219.722 308.217,221.486 301.961,221.486 301.961,226.449 
	307.822,226.449 307.822,223.895 309.856,223.895 309.856,228.213 297.547,228.213 "/>
<path d="M311.991,220.715c0-4.813,3.13-7.915,8.043-7.915c2.233,0,4.317,0.643,5.409,1.166v3.971h-2.108v-2.779
	c-0.849-0.3-2.084-0.524-3.202-0.524c-3.426,0-5.883,2.11-5.883,5.983c0,4.046,2.704,6.008,5.984,6.008
	c1.982,0,3.867-0.745,5.209-1.517v2.088c-1.117,0.596-3.029,1.316-5.385,1.316C315.294,228.512,311.991,225.631,311.991,220.715"/>
<path d="M340.634,220.666c0-3.671-2.282-6.027-5.533-6.027c-3.225,0-5.512,2.381-5.512,6.027c0,3.671,2.259,6.008,5.512,6.008
	C338.326,226.674,340.634,224.312,340.634,220.666 M327.332,220.666c0-4.565,3.152-7.869,7.769-7.869s7.771,3.304,7.771,7.869
	s-3.155,7.846-7.771,7.846S327.332,225.231,327.332,220.666"/>
<polygon points="344.507,226.449 346.742,226.449 346.742,214.857 344.507,214.857 344.507,213.096 351.456,213.096 
	351.456,214.857 348.925,214.857 348.925,226.449 354.784,226.449 354.784,223.744 356.816,223.744 356.816,228.213 
	344.507,228.213 "/>
<polygon points="358.186,226.449 360.419,226.449 360.419,214.857 358.186,214.857 358.186,213.096 370.422,213.096 370.422,217.34 
	368.414,217.34 368.414,214.857 362.603,214.857 362.603,219.722 368.857,219.722 368.857,221.486 362.603,221.486 362.603,226.449 
	368.463,226.449 368.463,223.895 370.495,223.895 370.495,228.213 358.186,228.213 "/>
<polygon points="378.02,226.449 380.252,226.449 380.252,214.857 378.02,214.857 378.02,213.096 390.254,213.096 390.254,217.34 
	388.246,217.34 388.246,214.857 382.436,214.857 382.436,219.722 388.691,219.722 388.691,221.486 382.436,221.486 382.436,226.449 
	388.295,226.449 388.295,223.895 390.328,223.895 390.328,228.213 378.02,228.213 "/>
<polygon points="392.44,226.449 394.673,226.449 394.673,214.857 392.44,214.857 392.44,213.096 396.906,213.096 405.076,224.688 
	405.076,214.857 402.867,214.857 402.867,213.096 409.365,213.096 409.365,214.857 407.16,214.857 407.16,228.213 405.199,228.213 
	396.734,216.274 396.734,226.449 398.942,226.449 398.942,228.213 392.44,228.213 "/>
<polygon points="416.42,226.449 418.651,226.449 418.651,214.857 416.42,214.857 416.42,213.096 423.074,213.096 423.074,214.857 
	420.836,214.857 420.836,219.697 428.931,219.697 428.931,214.857 426.697,214.857 426.697,213.096 433.323,213.096 
	433.323,214.857 431.114,214.857 431.114,226.449 433.323,226.449 433.323,228.213 426.697,228.213 426.697,226.449 
	428.931,226.449 428.931,221.535 420.836,221.535 420.836,226.449 423.074,226.449 423.074,228.213 416.42,228.213 "/>
<path d="M445.361,221.784l-2.582-6.579l-2.581,6.579H445.361z M434.267,226.449h1.935l4.693-11.592h-2.159v-1.762h5.313l5.41,13.354
	h1.961v1.764h-6.48v-1.764h2.258l-1.166-2.902h-6.523l-1.145,2.902h2.233v1.764h-6.329V226.449z"/>
<polygon points="452.163,226.449 454.398,226.449 454.398,214.857 452.163,214.857 452.163,213.096 458.79,213.096 458.79,214.857 
	456.579,214.857 456.579,226.449 458.79,226.449 458.79,228.213 452.163,228.213 "/>
<polygon points="460.681,226.449 462.914,226.449 462.914,214.857 460.681,214.857 460.681,213.096 465.144,213.096 
	473.312,224.688 473.312,214.857 471.101,214.857 471.101,213.096 477.605,213.096 477.605,214.857 475.396,214.857 
	475.396,228.213 473.437,228.213 464.969,216.274 464.969,226.449 467.182,226.449 467.182,228.213 460.681,228.213 "/>
<path d="M488.927,221.784l-2.581-6.579l-2.582,6.579H488.927z M477.832,226.449h1.938l4.688-11.592h-2.158v-1.762h5.312
	l5.412,13.354h1.959v1.764h-6.478v-1.764h2.257l-1.167-2.902h-6.524l-1.143,2.902h2.234v1.764h-6.329V226.449z"/>
<path d="M496.795,223.174v-8.313h-2.209v-1.765h6.601v1.765h-2.208v8.139c0,2.583,1.765,3.551,3.847,3.551
	c2.084,0,3.797-0.992,3.797-3.572v-8.117h-2.279v-1.765h6.525v1.765h-2.211v8.163c0,3.499-2.331,5.485-5.903,5.485
	C499.524,228.509,496.795,226.871,496.795,223.174"/>
<polygon points="515.138,226.449 517.522,226.449 517.522,214.857 513.848,214.857 513.848,217.365 511.861,217.365 
	511.861,213.096 525.367,213.096 525.367,217.365 523.353,217.365 523.353,214.857 519.706,214.857 519.706,226.449 
	522.087,226.449 522.087,228.213 515.138,228.213 "/>
</svg>
