<?xml version="1.0" encoding="utf-8"?>
<!-- Generator: Adobe Illustrator 16.0.3, SVG Export Plug-In . SVG Version: 6.00 Build 0)  -->
<!DOCTYPE svg PUBLIC "-//W3C//DTD SVG 1.1//EN" "http://www.w3.org/Graphics/SVG/1.1/DTD/svg11.dtd">
<svg version="1.1" id="Calque_1" xmlns="http://www.w3.org/2000/svg" xmlns:xlink="http://www.w3.org/1999/xlink" x="0px" y="0px"
	 width="640px" height="130.586px" viewBox="0 0 640 130.586" enable-background="new 0 0 640 130.586" xml:space="preserve">
<polygon points="21.375,79.339 27.977,79.339 27.977,47.219 17.799,47.219 17.799,54.166 12.295,54.166 12.295,42.337 
	49.709,42.337 49.709,54.166 44.139,54.166 44.139,47.219 34.029,47.219 34.029,79.339 40.632,79.339 40.632,84.222 21.375,84.222 
	"/>
<polygon points="54.769,79.339 60.957,79.339 60.957,47.219 54.769,47.219 54.769,42.337 88.674,42.337 88.674,54.097 
	83.103,54.097 83.103,47.219 67.01,47.219 67.01,60.702 84.343,60.702 84.343,65.584 67.01,65.584 67.01,79.339 83.242,79.339 
	83.242,72.254 88.88,72.254 88.88,84.222 54.769,84.222 "/>
<path d="M109.72,63.453v-0.416l15.198-15.887h-5.433v-4.813h17.606v4.882h-5.294L117.01,62.9l14.374,16.439h6.326v4.883h-10.041
	L109.72,63.453z M94.726,79.339h6.188V47.219h-6.188v-4.882h18.227v4.882h-5.986v32.121h6.534v4.883H94.726V79.339z"/>
<polygon points="142.287,79.339 148.478,79.339 148.478,47.219 142.287,47.219 142.287,42.337 154.667,42.337 177.294,74.456 
	177.294,47.219 171.172,47.219 171.172,42.337 189.192,42.337 189.192,47.219 183.07,47.219 183.07,84.222 177.637,84.222 
	154.185,51.141 154.185,79.339 160.306,79.339 160.306,84.222 142.287,84.222 "/>
<polygon points="193.729,79.339 199.919,79.339 199.919,47.219 193.729,47.219 193.729,42.337 212.093,42.337 212.093,47.219 
	205.972,47.219 205.972,79.339 212.093,79.339 212.093,84.222 193.729,84.222 "/>
<path d="M232.313,63.453v-0.416l15.2-15.887h-5.433v-4.813h17.605v4.882h-5.295L239.603,62.9l14.375,16.439h6.327v4.883h-10.043
	L232.313,63.453z M217.32,79.339h6.19V47.219h-6.19v-4.882h18.226v4.882h-5.985v32.121h6.534v4.883H217.32V79.339z"/>
<path d="M286.525,66.407l-7.152-18.223l-7.152,18.223H286.525z M255.784,79.339h5.363l13-32.121h-5.982v-4.882h14.718l14.993,37.002
	h5.433v4.883h-17.951v-4.883h6.261l-3.233-8.045h-18.088l-3.164,8.045h6.188v4.883h-17.535V79.339z"/>
<rect x="317.986" y="19.43" width="0.877" height="87.703"/>
<polygon points="336.268,57.196 337.707,57.196 337.707,49.737 336.268,49.737 336.268,48.604 340.737,48.604 340.737,49.737 
	339.111,49.737 339.111,57.196 342.879,57.196 342.879,55.455 344.19,55.455 344.19,58.331 336.268,58.331 "/>
<path d="M351.586,54.193l-1.661-4.233l-1.663,4.233H351.586z M344.445,57.196h1.246l3.018-7.459h-1.39v-1.133h3.417l3.481,8.592
	h1.265v1.135h-4.168v-1.135h1.453l-0.753-1.87h-4.197l-0.736,1.87h1.437v1.135h-4.072V57.196z"/>
<path d="M359.061,58.011v-2.269h1.276v1.39c0.481,0.127,1.212,0.254,1.979,0.254c1.345,0,2.302-0.446,2.302-1.469
	c0-2.491-5.398-1.325-5.398-4.821c0-1.79,1.422-2.685,3.482-2.685c1.038,0,2.172,0.225,2.969,0.498v2.234h-1.291v-1.404
	c-0.417-0.097-1.039-0.193-1.63-0.193c-1.325,0-2.173,0.511-2.173,1.421c0,2.334,5.399,1.248,5.399,4.855
	c0,1.934-1.566,2.7-3.579,2.7C361.217,58.521,359.971,58.267,359.061,58.011"/>
<polygon points="367.253,57.196 368.691,57.196 368.691,49.737 367.253,49.737 367.253,48.604 375.125,48.604 375.125,51.333 
	373.832,51.333 373.832,49.737 370.096,49.737 370.096,52.868 374.12,52.868 374.12,54.001 370.096,54.001 370.096,57.196 
	373.864,57.196 373.864,55.553 375.175,55.553 375.175,58.331 367.253,58.331 "/>
<path d="M376.549,53.508c0-3.1,2.012-5.096,5.174-5.096c1.438,0,2.779,0.417,3.482,0.75v2.556h-1.358v-1.789
	c-0.543-0.19-1.342-0.335-2.061-0.335c-2.205,0-3.784,1.357-3.784,3.848c0,2.603,1.741,3.866,3.849,3.866
	c1.276,0,2.492-0.48,3.354-0.977v1.344c-0.719,0.382-1.949,0.846-3.468,0.846C378.672,58.521,376.549,56.668,376.549,53.508"/>
<polygon points="388.238,57.196 389.772,57.196 389.772,49.737 387.409,49.737 387.409,51.35 386.132,51.35 386.132,48.604 
	394.817,48.604 394.817,51.35 393.526,51.35 393.526,49.737 391.179,49.737 391.179,57.196 392.71,57.196 392.71,58.331 
	388.238,58.331 "/>
<polygon points="395.746,57.196 397.185,57.196 397.185,49.737 395.746,49.737 395.746,48.604 400.011,48.604 400.011,49.737 
	398.591,49.737 398.591,57.196 400.011,57.196 400.011,58.331 395.746,58.331 "/>
<path d="M409.624,53.475c0-2.363-1.469-3.881-3.561-3.881c-2.076,0-3.545,1.532-3.545,3.881c0,2.363,1.453,3.864,3.545,3.864
	C408.14,57.339,409.624,55.822,409.624,53.475 M401.066,53.475c0-2.94,2.028-5.064,4.997-5.064c2.971,0,4.999,2.125,4.999,5.064
	c0,2.938-2.028,5.045-4.999,5.045C403.095,58.521,401.066,56.413,401.066,53.475"/>
<polygon points="412.12,57.196 413.555,57.196 413.555,49.737 412.12,49.737 412.12,48.604 414.994,48.604 420.246,56.062 
	420.246,49.737 418.825,49.737 418.825,48.604 423.011,48.604 423.011,49.737 421.591,49.737 421.591,58.331 420.326,58.331 
	414.881,50.648 414.881,57.196 416.304,57.196 416.304,58.331 412.12,58.331 "/>
<polygon points="429,57.196 430.532,57.196 430.532,49.737 428.169,49.737 428.169,51.35 426.892,51.35 426.892,48.604 
	435.578,48.604 435.578,51.35 434.284,51.35 434.284,49.737 431.938,49.737 431.938,57.196 433.471,57.196 433.471,58.331 
	429,58.331 "/>
<polygon points="436.508,57.196 437.943,57.196 437.943,49.737 436.508,49.737 436.508,48.604 444.379,48.604 444.379,51.333 
	443.086,51.333 443.086,49.737 439.349,49.737 439.349,52.868 443.373,52.868 443.373,54.001 439.349,54.001 439.349,57.196 
	443.118,57.196 443.118,55.553 444.428,55.553 444.428,58.331 436.508,58.331 "/>
<path d="M445.802,53.508c0-3.1,2.012-5.096,5.177-5.096c1.435,0,2.776,0.417,3.479,0.75v2.556H453.1v-1.789
	c-0.543-0.19-1.34-0.335-2.058-0.335c-2.205,0-3.786,1.357-3.786,3.848c0,2.603,1.74,3.866,3.849,3.866
	c1.278,0,2.491-0.48,3.354-0.977v1.344c-0.72,0.382-1.946,0.846-3.464,0.846C447.927,58.521,445.802,56.668,445.802,53.508"/>
<polygon points="455.674,57.196 457.112,57.196 457.112,49.737 455.674,49.737 455.674,48.604 459.952,48.604 459.952,49.737 
	458.517,49.737 458.517,52.851 463.723,52.851 463.723,49.737 462.285,49.737 462.285,48.604 466.549,48.604 466.549,49.737 
	465.129,49.737 465.129,57.196 466.549,57.196 466.549,58.331 462.285,58.331 462.285,57.196 463.723,57.196 463.723,54.034 
	458.517,54.034 458.517,57.196 459.952,57.196 459.952,58.331 455.674,58.331 "/>
<polygon points="467.78,57.196 469.218,57.196 469.218,49.737 467.78,49.737 467.78,48.604 470.653,48.604 475.91,56.062 
	475.91,49.737 474.486,49.737 474.486,48.604 478.672,48.604 478.672,49.737 477.25,49.737 477.25,58.331 475.989,58.331 
	470.542,50.648 470.542,57.196 471.964,57.196 471.964,58.331 467.78,58.331 "/>
<polygon points="479.727,57.196 481.164,57.196 481.164,49.737 479.727,49.737 479.727,48.604 483.99,48.604 483.99,49.737 
	482.568,49.737 482.568,57.196 483.99,57.196 483.99,58.331 479.727,58.331 "/>
<path d="M493.62,53.475c0-2.363-1.468-3.881-3.561-3.881s-3.561,1.534-3.561,3.881c0,2.363,1.468,3.866,3.561,3.866
	C492.135,57.341,493.62,55.822,493.62,53.475 M489.883,58.521c-2.889-0.096-4.823-2.173-4.823-5.046c0-2.94,2.014-5.063,5-5.063
	c2.97,0,4.997,2.123,4.997,5.063c0,2.396-1.341,4.246-3.479,4.821l2.043,1.2l-0.749,1.07L489.883,58.521z"/>
<path d="M497.297,55.087v-5.348h-1.423v-1.135h4.247v1.135h-1.42v5.237c0,1.661,1.133,2.285,2.474,2.285
	c1.343,0,2.443-0.642,2.443-2.299v-5.223h-1.468v-1.135h4.201v1.135h-1.424v5.254c0,2.25-1.498,3.529-3.798,3.529
	C499.052,58.521,497.297,57.468,497.297,55.087"/>
<polygon points="507.277,57.196 508.716,57.196 508.716,49.737 507.277,49.737 507.277,48.604 515.148,48.604 515.148,51.333 
	513.856,51.333 513.856,49.737 510.118,49.737 510.118,52.868 514.145,52.868 514.145,54.001 510.118,54.001 510.118,57.196 
	513.887,57.196 513.887,55.553 515.199,55.553 515.199,58.331 507.277,58.331 "/>
<path d="M516.669,58.011v-2.269h1.277v1.39c0.48,0.127,1.212,0.254,1.98,0.254c1.342,0,2.3-0.446,2.3-1.469
	c0-2.491-5.399-1.325-5.399-4.821c0-1.79,1.422-2.685,3.482-2.685c1.039,0,2.172,0.225,2.971,0.498v2.234h-1.294v-1.404
	c-0.416-0.097-1.039-0.193-1.628-0.193c-1.325,0-2.172,0.511-2.172,1.421c0,2.334,5.398,1.248,5.398,4.855
	c0,1.934-1.566,2.7-3.577,2.7C518.825,58.521,517.579,58.267,516.669,58.011"/>
<path d="M528.376,53.522c0-3,1.885-5.112,5.254-5.112c1.502,0,2.891,0.417,3.688,0.8v2.347h-1.309v-1.581
	c-0.624-0.191-1.471-0.383-2.33-0.383c-2.461,0-3.897,1.518-3.897,3.897c0,2.396,1.437,3.832,3.864,3.832
	c0.911,0,1.725-0.208,2.41-0.462v-2.525h-2.266v-1.117h4.471v1.117h-0.894v3.259c-0.751,0.399-2.062,0.925-3.753,0.925
	C530.371,58.521,528.376,56.605,528.376,53.522"/>
<path d="M543.854,53.506c1.723,0,2.427-0.796,2.427-1.884c0-1.086-0.72-1.885-2.427-1.885h-1.741v3.769H543.854z M539.269,57.196
	h1.438v-7.459h-1.438v-1.133h4.552c2.332,0,3.882,1.15,3.882,2.971c0,1.31-0.783,2.283-2.142,2.667l1.646,2.955h1.341v1.135h-2.299
	l-2.062-3.722h-2.074v2.587h1.422v1.135h-4.266V57.196z"/>
<path d="M555.991,54.193l-1.661-4.233l-1.662,4.233H555.991z M548.851,57.196h1.247l3.019-7.459h-1.392v-1.133h3.418l3.483,8.592
	h1.261v1.135h-4.167v-1.135h1.451l-0.748-1.87h-4.201l-0.734,1.87h1.438v1.135h-4.074V57.196z"/>
<path d="M563.209,53.634h1.599c1.725,0,2.426-0.861,2.426-1.947c0-1.086-0.701-1.95-2.426-1.95h-1.599V53.634z M560.366,57.196
	h1.438v-7.459h-1.438v-1.133h4.408c2.349,0,3.881,1.199,3.881,3.083c0,1.883-1.532,3.082-3.881,3.082h-1.565v2.427h1.727v1.135
	h-4.569V57.196z"/>
<polygon points="569.566,57.196 571.006,57.196 571.006,49.737 569.566,49.737 569.566,48.604 573.847,48.604 573.847,49.737 
	572.41,49.737 572.41,52.851 577.615,52.851 577.615,49.737 576.177,49.737 576.177,48.604 580.441,48.604 580.441,49.737 
	579.022,49.737 579.022,57.196 580.441,57.196 580.441,58.331 576.177,58.331 576.177,57.196 577.615,57.196 577.615,54.034 
	572.41,54.034 572.41,57.196 573.847,57.196 573.847,58.331 569.566,58.331 "/>
<polygon points="581.675,57.196 583.112,57.196 583.112,49.737 581.675,49.737 581.675,48.604 585.939,48.604 585.939,49.737 
	584.517,49.737 584.517,57.196 585.939,57.196 585.939,58.331 581.675,58.331 "/>
<path d="M595.568,53.475c0-2.363-1.469-3.881-3.56-3.881c-2.093,0-3.563,1.534-3.563,3.881c0,2.363,1.47,3.866,3.563,3.866
	C594.084,57.341,595.568,55.822,595.568,53.475 M591.832,58.521c-2.89-0.096-4.823-2.173-4.823-5.046c0-2.94,2.012-5.063,5-5.063
	c2.968,0,4.997,2.123,4.997,5.063c0,2.396-1.341,4.246-3.481,4.821l2.044,1.2l-0.75,1.07L591.832,58.521z"/>
<path d="M599.243,55.087v-5.348h-1.421v-1.135h4.248v1.135h-1.423v5.237c0,1.661,1.135,2.285,2.478,2.285
	c1.34,0,2.442-0.642,2.442-2.299v-5.223h-1.469v-1.135h4.2v1.135h-1.421v5.254c0,2.25-1.502,3.529-3.802,3.529
	C601,58.521,599.243,57.468,599.243,55.087"/>
<polygon points="609.225,57.196 610.662,57.196 610.662,49.737 609.225,49.737 609.225,48.604 617.097,48.604 617.097,51.333 
	615.806,51.333 615.806,49.737 612.066,49.737 612.066,52.868 616.093,52.868 616.093,54.001 612.066,54.001 612.066,57.196 
	615.836,57.196 615.836,55.553 617.146,55.553 617.146,58.331 609.225,58.331 "/>
<path d="M618.618,58.011v-2.269h1.276v1.39c0.479,0.127,1.212,0.254,1.979,0.254c1.344,0,2.303-0.446,2.303-1.469
	c0-2.491-5.399-1.325-5.399-4.821c0-1.79,1.42-2.685,3.48-2.685c1.039,0,2.172,0.225,2.972,0.498v2.234h-1.295v-1.404
	c-0.415-0.097-1.037-0.193-1.627-0.193c-1.326,0-2.173,0.511-2.173,1.421c0,2.334,5.398,1.248,5.398,4.855
	c0,1.934-1.565,2.7-3.578,2.7C620.773,58.521,619.527,58.267,618.618,58.011"/>
<path d="M340.771,78.575c2.38,0,3.721-1.375,3.721-3.721c0-2.365-1.341-3.737-3.721-3.737h-1.66v7.458H340.771z M336.268,78.575
	h1.439v-7.458h-1.439v-1.136h4.504c3.162,0,5.158,1.79,5.158,4.873c0,3.063-1.996,4.854-5.158,4.854h-4.504V78.575z"/>
<polygon points="347.016,78.575 348.454,78.575 348.454,71.117 347.016,71.117 347.016,69.981 354.89,69.981 354.89,72.715 
	353.597,72.715 353.597,71.117 349.859,71.117 349.859,74.247 353.883,74.247 353.883,75.38 349.859,75.38 349.859,78.575 
	353.627,78.575 353.627,76.929 354.939,76.929 354.939,79.708 347.016,79.708 "/>
<polygon points="359.777,78.575 361.217,78.575 361.217,71.117 359.777,71.117 359.777,69.981 364.249,69.981 364.249,71.117 
	362.618,71.117 362.618,78.575 366.389,78.575 366.389,76.833 367.7,76.833 367.7,79.708 359.777,79.708 "/>
<path d="M375.096,75.572l-1.661-4.232l-1.663,4.232H375.096z M367.957,78.575h1.243l3.021-7.458h-1.391v-1.136h3.418l3.48,8.594
	h1.264v1.134h-4.17v-1.134h1.455l-0.753-1.868h-4.198l-0.736,1.868h1.438v1.134h-4.07V78.575z"/>
<polygon points="382.459,78.575 383.896,78.575 383.896,71.117 382.459,71.117 382.459,69.981 386.738,69.981 386.738,71.117 
	385.301,71.117 385.301,74.23 390.508,74.23 390.508,71.117 389.07,71.117 389.07,69.981 393.335,69.981 393.335,71.117 
	391.913,71.117 391.913,78.575 393.335,78.575 393.335,79.708 389.07,79.708 389.07,78.575 390.508,78.575 390.508,75.413 
	385.301,75.413 385.301,78.575 386.738,78.575 386.738,79.708 382.459,79.708 "/>
<path d="M401.081,75.572l-1.66-4.232l-1.662,4.232H401.081z M393.941,78.575h1.247l3.019-7.458h-1.39v-1.136h3.416l3.481,8.594
	h1.263v1.134h-4.168v-1.134h1.453l-0.75-1.868h-4.2l-0.734,1.868h1.435v1.134h-4.071V78.575z"/>
<path d="M406.144,76.468v-5.351h-1.421v-1.133h4.247v1.133h-1.42v5.236c0,1.662,1.133,2.287,2.474,2.287s2.443-0.641,2.443-2.3
	v-5.223h-1.468v-1.133h4.198v1.133h-1.419v5.256c0,2.251-1.503,3.528-3.802,3.528C407.903,79.901,406.144,78.846,406.144,76.468"/>
<polygon points="417.948,78.575 419.481,78.575 419.481,71.117 417.117,71.117 417.117,72.731 415.838,72.731 415.838,69.981 
	424.526,69.981 424.526,72.731 423.232,72.731 423.232,71.117 420.887,71.117 420.887,78.575 422.42,78.575 422.42,79.708 
	417.948,79.708 "/>
<polygon points="425.454,78.575 426.893,78.575 426.893,71.117 425.454,71.117 425.454,69.981 433.326,69.981 433.326,72.715 
	432.035,72.715 432.035,71.117 428.297,71.117 428.297,74.247 432.322,74.247 432.322,75.38 428.297,75.38 428.297,78.575 
	432.065,78.575 432.065,76.929 433.377,76.929 433.377,79.708 425.454,79.708 "/>
<polygon points="438.216,78.575 439.653,78.575 439.653,71.117 438.216,71.117 438.216,69.981 446.088,69.981 446.088,72.715 
	444.796,72.715 444.796,71.117 441.058,71.117 441.058,74.247 445.083,74.247 445.083,75.38 441.058,75.38 441.058,78.575 
	444.827,78.575 444.827,76.929 446.137,76.929 446.137,79.708 438.216,79.708 "/>
<path d="M447.512,74.887c0-3.1,2.013-5.096,5.174-5.096c1.438,0,2.778,0.415,3.481,0.751v2.555h-1.355v-1.787
	c-0.545-0.193-1.344-0.337-2.063-0.337c-2.204,0-3.784,1.355-3.784,3.848c0,2.603,1.742,3.867,3.849,3.867
	c1.276,0,2.492-0.479,3.354-0.976v1.342c-0.719,0.382-1.949,0.846-3.467,0.846C449.635,79.901,447.512,78.049,447.512,74.887"/>
<path d="M465.941,74.854c0-2.365-1.469-3.88-3.561-3.88c-2.076,0-3.547,1.532-3.547,3.88c0,2.362,1.454,3.864,3.547,3.864
	C464.456,78.718,465.941,77.2,465.941,74.854 M457.381,74.854c0-2.939,2.03-5.063,5-5.063c2.971,0,4.999,2.123,4.999,5.063
	c0,2.937-2.028,5.047-4.999,5.047C459.411,79.901,457.381,77.791,457.381,74.854"/>
<polygon points="468.434,78.575 469.872,78.575 469.872,71.117 468.434,71.117 468.434,69.981 472.904,69.981 472.904,71.117 
	471.277,71.117 471.277,78.575 475.044,78.575 475.044,76.833 476.356,76.833 476.356,79.708 468.434,79.708 "/>
<polygon points="477.234,78.575 478.673,78.575 478.673,71.117 477.234,71.117 477.234,69.981 485.107,69.981 485.107,72.715 
	483.813,72.715 483.813,71.117 480.078,71.117 480.078,74.247 484.102,74.247 484.102,75.38 480.078,75.38 480.078,78.575 
	483.846,78.575 483.846,76.929 485.157,76.929 485.157,79.708 477.234,79.708 "/>
<polygon points="489.996,78.575 491.434,78.575 491.434,71.117 489.996,71.117 489.996,69.981 497.868,69.981 497.868,72.715 
	496.574,72.715 496.574,71.117 492.839,71.117 492.839,74.247 496.863,74.247 496.863,75.38 492.839,75.38 492.839,78.575 
	496.607,78.575 496.607,76.929 497.917,76.929 497.917,79.708 489.996,79.708 "/>
<polygon points="499.276,78.575 500.713,78.575 500.713,71.117 499.276,71.117 499.276,69.981 502.15,69.981 507.403,77.441 
	507.403,71.117 505.983,71.117 505.983,69.981 510.167,69.981 510.167,71.117 508.746,71.117 508.746,79.708 507.484,79.708 
	502.037,72.029 502.037,78.575 503.46,78.575 503.46,79.708 499.276,79.708 "/>
<polygon points="514.704,78.575 516.142,78.575 516.142,71.117 514.704,71.117 514.704,69.981 518.984,69.981 518.984,71.117 
	517.546,71.117 517.546,74.23 522.753,74.23 522.753,71.117 521.315,71.117 521.315,69.981 525.58,69.981 525.58,71.117 
	524.158,71.117 524.158,78.575 525.58,78.575 525.58,79.708 521.315,79.708 521.315,78.575 522.753,78.575 522.753,75.413 
	517.546,75.413 517.546,78.575 518.984,78.575 518.984,79.708 514.704,79.708 "/>
<path d="M533.327,75.572l-1.662-4.232l-1.66,4.232H533.327z M526.188,78.575h1.246l3.018-7.458h-1.388v-1.136h3.416l3.482,8.594
	h1.263v1.134h-4.17v-1.134h1.454l-0.752-1.868h-4.199l-0.734,1.868h1.438v1.134h-4.073V78.575z"/>
<polygon points="537.702,78.575 539.141,78.575 539.141,71.117 537.702,71.117 537.702,69.981 541.969,69.981 541.969,71.117 
	540.545,71.117 540.545,78.575 541.969,78.575 541.969,79.708 537.702,79.708 "/>
<polygon points="543.182,78.575 544.619,78.575 544.619,71.117 543.182,71.117 543.182,69.981 546.057,69.981 551.311,77.441 
	551.311,71.117 549.89,71.117 549.89,69.981 554.074,69.981 554.074,71.117 552.651,71.117 552.651,79.708 551.39,79.708 
	545.944,72.029 545.944,78.575 547.367,78.575 547.367,79.708 543.182,79.708 "/>
<path d="M561.356,75.572l-1.66-4.232l-1.662,4.232H561.356z M554.22,78.575h1.244l3.02-7.458h-1.39v-1.136h3.416l3.482,8.594h1.262
	v1.134h-4.169v-1.134h1.453l-0.75-1.868h-4.2l-0.736,1.868h1.439v1.134h-4.071V78.575z"/>
<path d="M566.421,76.468v-5.351H565v-1.133h4.247v1.133h-1.422v5.236c0,1.662,1.136,2.287,2.477,2.287s2.443-0.641,2.443-2.3v-5.223
	h-1.469v-1.133h4.199v1.133h-1.422v5.256c0,2.251-1.5,3.528-3.8,3.528C568.176,79.901,566.421,78.846,566.421,76.468"/>
<polygon points="578.224,78.575 579.756,78.575 579.756,71.117 577.393,71.117 577.393,72.731 576.117,72.731 576.117,69.981 
	584.803,69.981 584.803,72.731 583.511,72.731 583.511,71.117 581.162,71.117 581.162,78.575 582.695,78.575 582.695,79.708 
	578.224,79.708 "/>
</svg>
