<?xml version="1.0" encoding="utf-8"?>
<!-- Generator: Adobe Illustrator 16.0.3, SVG Export Plug-In . SVG Version: 6.00 Build 0)  -->
<!DOCTYPE svg PUBLIC "-//W3C//DTD SVG 1.1//EN" "http://www.w3.org/Graphics/SVG/1.1/DTD/svg11.dtd">
<svg version="1.1" xmlns="http://www.w3.org/2000/svg" xmlns:xlink="http://www.w3.org/1999/xlink" x="0px" y="0px"
	 width="1938.204px" height="304.504px" viewBox="0 0 1938.204 304.504" enable-background="new 0 0 1938.204 304.504"
	 xml:space="preserve">
<g id="Calque_2">
	<rect x="-8.504" y="-17.496" width="1964.504" height="340"/>
</g>
<g id="Calque_1">
	<polygon fill="#FFFFFF" points="69.024,202.078 89.499,202.078 89.499,102.417 57.922,102.417 57.922,123.975 40.841,123.975 
		40.841,87.274 156.93,87.274 156.93,123.975 139.646,123.975 139.646,102.417 108.273,102.417 108.273,202.078 128.765,202.078 
		128.765,217.23 69.024,217.23 	"/>
	<polygon fill="#FFFFFF" points="172.627,202.078 191.83,202.078 191.83,102.417 172.627,102.417 172.627,87.274 277.839,87.274 
		277.839,123.762 260.551,123.762 260.551,102.417 210.604,102.417 210.604,144.253 264.383,144.253 264.383,159.395 
		210.604,159.395 210.604,202.078 260.973,202.078 260.973,180.098 278.465,180.098 278.465,217.23 172.627,217.23 	"/>
	<path fill="#FFFFFF" d="M296.616,202.078h19.203v-99.661h-19.203V87.274h56.541v15.143h-18.559v99.661h20.27v15.152h-58.252
		V202.078z M343.139,152.785v-1.288l47.15-49.292h-16.867V87.274h54.643v15.143h-16.421l-45.898,48.657l44.61,51.004h19.638v15.152
		h-31.165L343.139,152.785z"/>
	<polygon fill="#FFFFFF" points="444.182,202.078 463.385,202.078 463.385,102.417 444.182,102.417 444.182,87.274 482.585,87.274 
		552.798,186.928 552.798,102.417 533.816,102.417 533.816,87.274 589.71,87.274 589.71,102.417 570.73,102.417 570.73,217.23 
		553.868,217.23 481.093,114.586 481.093,202.078 500.094,202.078 500.094,217.23 444.182,217.23 	"/>
	<polygon fill="#FFFFFF" points="603.795,202.078 622.996,202.078 622.996,102.417 603.795,102.417 603.795,87.274 660.789,87.274 
		660.789,102.417 641.795,102.417 641.795,202.078 660.789,202.078 660.789,217.23 603.795,217.23 	"/>
	<polygon fill="#FFFFFF" points="714.973,102.417 733.549,102.417 733.549,87.274 676.996,87.274 676.996,102.417 696.195,102.417 
		696.195,202.078 676.996,202.078 676.996,217.23 735.26,217.23 735.26,202.078 714.973,202.078 	"/>
	<path fill="#FFFFFF" d="M926.942,202.078L880.418,87.275h-45.656v15.142h18.556l-40.334,99.661h-22.251l-44.606-51.004
		l45.893-48.657h16.42V87.275h-54.62v14.93h16.862l-47.167,49.292v1.288l55.69,64.445h71.555v-15.152h-19.203l9.816-24.965h56.131
		l10.014,24.965h-19.407v15.152h55.692v-15.152H926.942z M847.338,161.964l22.201-56.556l22.201,56.556H847.338z"/>
	<rect x="994.596" y="16.195" fill="#FFFFFF" width="2.712" height="272.113"/>
	<polygon fill="#FFFFFF" points="1050.424,131.559 1054.693,131.559 1054.693,109.375 1050.424,109.375 1050.424,106.003 
		1063.707,106.003 1063.707,109.375 1058.879,109.375 1058.879,131.559 1070.08,131.559 1070.08,126.372 1073.982,126.372 
		1073.982,134.924 1050.424,134.924 	"/>
	<path fill="#FFFFFF" d="M1074.742,131.559h3.711l8.969-22.184h-4.123v-3.372h10.154l10.355,25.556h3.744v3.365h-12.391v-3.365
		h4.326l-2.238-5.565h-12.472l-2.19,5.565h4.271v3.365h-12.117V131.559z M1095.98,122.627l-4.953-12.582l-4.928,12.582H1095.98z"/>
	<path fill="#FFFFFF" d="M1118.217,133.973v-6.743h3.773v4.134c1.428,0.384,3.631,0.763,5.902,0.763c3.979,0,6.83-1.329,6.83-4.372
		c0-7.415-16.053-3.939-16.053-14.338c0-5.319,4.238-7.981,10.355-7.981c3.084,0,6.459,0.661,8.83,1.474v6.646h-3.846v-4.179
		c-1.223-0.287-3.083-0.568-4.83-0.568c-3.947,0-6.475,1.518-6.475,4.229c0,6.933,16.064,3.703,16.064,14.43
		c0,5.746-4.66,8.033-10.643,8.033C1124.619,135.498,1120.908,134.736,1118.217,133.973"/>
	<polygon fill="#FFFFFF" points="1142.568,131.559 1146.838,131.559 1146.838,109.375 1142.568,109.375 1142.568,106.003 
		1165.976,106.003 1165.976,114.129 1162.127,114.129 1162.127,109.375 1151.021,109.375 1151.021,118.678 1162.99,118.678 
		1162.99,122.061 1151.021,122.061 1151.021,131.559 1162.23,131.559 1162.23,126.662 1166.127,126.662 1166.127,134.924 
		1142.568,134.924 	"/>
	<path fill="#FFFFFF" d="M1170.209,120.586c0-9.211,5.982-15.15,15.389-15.15c4.273,0,8.255,1.234,10.354,2.234v7.594h-4.047v-5.313
		c-1.609-0.576-3.982-1-6.121-1c-6.559,0-11.25,4.042-11.25,11.439c0,7.744,5.168,11.498,11.439,11.498
		c3.793,0,7.405-1.422,9.979-2.905v3.999c-2.133,1.135-5.793,2.516-10.32,2.516C1176.534,135.498,1170.209,129.99,1170.209,120.586"
		/>
	<polygon fill="#FFFFFF" points="1204.969,131.559 1209.531,131.559 1209.531,109.375 1202.498,109.375 1202.498,114.178 
		1198.699,114.178 1198.699,106.003 1224.525,106.003 1224.525,114.178 1220.68,114.178 1220.68,109.375 1213.699,109.375 
		1213.699,131.559 1218.275,131.559 1218.275,134.924 1204.969,134.924 	"/>
	<polygon fill="#FFFFFF" points="1227.291,131.559 1231.56,131.559 1231.56,109.375 1227.291,109.375 1227.291,106.003 
		1239.967,106.003 1239.967,109.375 1235.744,109.375 1235.744,131.559 1239.967,131.559 1239.967,134.924 1227.291,134.924 	"/>
	<path fill="#FFFFFF" d="M1243.102,120.492c0-8.746,6.037-15.058,14.863-15.058c8.83,0,14.883,6.312,14.883,15.058
		c0,8.734-6.053,15.006-14.883,15.006C1249.139,135.498,1243.102,129.227,1243.102,120.492 M1268.557,120.492
		c0-7.033-4.355-11.541-10.592-11.541c-6.17,0-10.543,4.559-10.543,11.541c0,7.025,4.326,11.49,10.543,11.49
		C1264.15,131.982,1268.557,127.465,1268.557,120.492"/>
	<polygon fill="#FFFFFF" points="1275.984,131.559 1280.252,131.559 1280.252,109.375 1275.984,109.375 1275.984,106.003 
		1284.523,106.003 1300.15,128.178 1300.15,109.375 1295.931,109.375 1295.931,106.003 1308.367,106.003 1308.367,109.375 
		1304.133,109.375 1304.133,134.924 1300.389,134.924 1284.199,112.084 1284.199,131.559 1288.422,131.559 1288.422,134.924 
		1275.984,134.924 	"/>
	<polygon fill="#FFFFFF" points="1326.18,131.559 1330.74,131.559 1330.74,109.375 1323.708,109.375 1323.708,114.178 
		1319.91,114.178 1319.91,106.003 1345.741,106.003 1345.741,114.178 1341.908,114.178 1341.908,109.375 1334.928,109.375 
		1334.928,131.559 1339.486,131.559 1339.486,134.924 1326.18,134.924 	"/>
	<polygon fill="#FFFFFF" points="1348.502,131.559 1352.773,131.559 1352.773,109.375 1348.502,109.375 1348.502,106.003 
		1371.908,106.003 1371.908,114.129 1368.076,114.129 1368.076,109.375 1356.959,109.375 1356.959,118.678 1368.922,118.678 
		1368.922,122.061 1356.959,122.061 1356.959,131.559 1368.181,131.559 1368.181,126.662 1372.06,126.662 1372.06,134.924 
		1348.502,134.924 	"/>
	<path fill="#FFFFFF" d="M1376.158,120.586c0-9.211,5.969-15.15,15.372-15.15c4.271,0,8.274,1.234,10.354,2.234v7.594h-4.031v-5.313
		c-1.627-0.576-4-1-6.134-1c-6.544,0-11.255,4.042-11.255,11.439c0,7.744,5.186,11.498,11.457,11.498
		c3.795,0,7.406-1.422,9.963-2.905v3.999c-2.133,1.135-5.793,2.516-10.303,2.516C1382.467,135.498,1376.158,129.99,1376.158,120.586
		"/>
	<polygon fill="#FFFFFF" points="1405.496,131.559 1409.77,131.559 1409.77,109.375 1405.496,109.375 1405.496,106.003 
		1418.225,106.003 1418.225,109.375 1413.955,109.375 1413.955,118.638 1429.426,118.638 1429.426,109.375 1425.158,109.375 
		1425.158,106.003 1437.834,106.003 1437.834,109.375 1433.611,109.375 1433.611,131.559 1437.834,131.559 1437.834,134.924 
		1425.158,134.924 1425.158,131.559 1429.426,131.559 1429.426,122.152 1413.955,122.152 1413.955,131.559 1418.225,131.559 
		1418.225,134.924 1405.496,134.924 	"/>
	<polygon fill="#FFFFFF" points="1441.493,131.559 1445.766,131.559 1445.766,109.375 1441.493,109.375 1441.493,106.003 
		1450.051,106.003 1465.664,128.178 1465.664,109.375 1461.442,109.375 1461.442,106.003 1473.88,106.003 1473.88,109.375 
		1469.66,109.375 1469.66,134.924 1465.898,134.924 1449.713,112.084 1449.713,131.559 1453.936,131.559 1453.936,134.924 
		1441.493,134.924 	"/>
	<polygon fill="#FFFFFF" points="1477.018,131.559 1481.303,131.559 1481.303,109.375 1477.018,109.375 1477.018,106.003 
		1489.711,106.003 1489.711,109.375 1485.472,109.375 1485.472,131.559 1489.711,131.559 1489.711,134.924 1477.018,134.924 	"/>
	<path fill="#FFFFFF" d="M1507.236,135.498c-8.611-0.288-14.355-6.465-14.355-15.006c0-8.746,5.982-15.058,14.861-15.058
		c8.848,0,14.885,6.312,14.885,15.058c0,7.125-4.002,12.627-10.375,14.339l6.084,3.558l-2.221,3.186L1507.236,135.498z
		 M1518.336,120.492c0-7.033-4.373-11.541-10.594-11.541c-6.217,0-10.576,4.559-10.576,11.541c0,7.025,4.359,11.49,10.576,11.49
		C1513.93,131.982,1518.336,127.465,1518.336,120.492"/>
	<path fill="#FFFFFF" d="M1529.266,125.287v-15.912h-4.217v-3.372h12.623v3.372h-4.222v15.574c0,4.939,3.358,6.798,7.358,6.798
		c3.982,0,7.254-1.899,7.254-6.839v-15.533h-4.355v-3.372h12.49v3.372h-4.221V125c0,6.703-4.473,10.498-11.32,10.498
		C1534.488,135.498,1529.266,132.365,1529.266,125.287"/>
	<polygon fill="#FFFFFF" points="1558.961,131.559 1563.23,131.559 1563.23,109.375 1558.961,109.375 1558.961,106.003 
		1582.363,106.003 1582.363,114.129 1578.52,114.129 1578.52,109.375 1567.4,109.375 1567.4,118.678 1579.383,118.678 
		1579.383,122.061 1567.4,122.061 1567.4,131.559 1578.6,131.559 1578.6,126.662 1582.502,126.662 1582.502,134.924 
		1558.961,134.924 	"/>
	<path fill="#FFFFFF" d="M1586.891,133.973v-6.743h3.795v4.134c1.424,0.384,3.594,0.763,5.884,0.763
		c3.979,0,6.829-1.329,6.829-4.372c0-7.415-16.053-3.939-16.053-14.338c0-5.319,4.238-7.981,10.354-7.981
		c3.086,0,6.459,0.661,8.832,1.474v6.646h-3.828v-4.179c-1.256-0.287-3.102-0.568-4.848-0.568c-3.947,0-6.459,1.518-6.459,4.229
		c0,6.933,16.051,3.703,16.051,14.43c0,5.746-4.664,8.033-10.643,8.033C1593.295,135.498,1589.584,134.736,1586.891,133.973"/>
	<path fill="#FFFFFF" d="M1621.699,120.628c0-8.923,5.596-15.193,15.609-15.193c4.475,0,8.609,1.235,10.986,2.372v6.982h-3.902
		v-4.705c-1.845-0.566-4.371-1.133-6.929-1.133c-7.323,0-11.597,4.508-11.597,11.59c0,7.121,4.273,11.391,11.492,11.391
		c2.713,0,5.137-0.621,7.172-1.375v-7.504h-6.748v-3.322h13.305v3.322h-2.66v9.69c-2.238,1.188-6.135,2.755-11.152,2.755
		C1627.631,135.498,1621.699,129.803,1621.699,120.628"/>
	<path fill="#FFFFFF" d="M1654.086,131.559h4.273v-22.184h-4.273v-3.372h13.545c6.912,0,11.521,3.421,11.521,8.837
		c0,3.891-2.318,6.789-6.354,7.932l4.898,8.787h3.982v3.365h-6.848l-6.117-11.059h-6.168v7.693h4.221v3.365h-12.682V131.559z
		 M1667.713,120.586c5.137,0,7.219-2.373,7.219-5.602c0-3.238-2.133-5.609-7.219-5.609h-5.166v11.211H1667.713z"/>
	<path fill="#FFFFFF" d="M1682.578,131.559h3.711l8.965-22.184h-4.117v-3.372h10.152l10.355,25.556h3.763v3.365h-12.408v-3.365
		h4.321l-2.238-5.565h-12.473l-2.187,5.565h4.272v3.365h-12.117V131.559z M1703.813,122.627l-4.947-12.582l-4.934,12.582H1703.813z"
		/>
	<path fill="#FFFFFF" d="M1716.828,131.559h4.273v-22.184h-4.273v-3.372h13.104c6.982,0,11.537,3.558,11.537,9.167
		c0,5.602-4.555,9.168-11.537,9.168h-4.662v7.221h5.133v3.365h-13.574V131.559z M1725.27,120.967h4.76
		c5.139,0,7.221-2.566,7.221-5.797c0-3.227-2.082-5.795-7.221-5.795h-4.76V120.967z"/>
	<polygon fill="#FFFFFF" points="1744.184,131.559 1748.451,131.559 1748.451,109.375 1744.184,109.375 1744.184,106.003 
		1756.912,106.003 1756.912,109.375 1752.639,109.375 1752.639,118.638 1768.111,118.638 1768.111,109.375 1763.84,109.375 
		1763.84,106.003 1776.52,106.003 1776.52,109.375 1772.299,109.375 1772.299,131.559 1776.52,131.559 1776.52,134.924 
		1763.84,134.924 1763.84,131.559 1768.111,131.559 1768.111,122.152 1752.639,122.152 1752.639,131.559 1756.912,131.559 
		1756.912,134.924 1744.184,134.924 	"/>
	<polygon fill="#FFFFFF" points="1780.18,131.559 1784.451,131.559 1784.451,109.375 1780.18,109.375 1780.18,106.003 
		1792.858,106.003 1792.858,109.375 1788.637,109.375 1788.637,131.559 1792.858,131.559 1792.858,134.924 1780.18,134.924 	"/>
	<path fill="#FFFFFF" d="M1810.381,135.498c-8.594-0.288-14.338-6.465-14.338-15.006c0-8.746,5.982-15.058,14.859-15.058
		c8.85,0,14.867,6.312,14.867,15.058c0,7.125-3.984,12.627-10.355,14.339l6.082,3.558l-2.232,3.186L1810.381,135.498z
		 M1821.496,120.492c0-7.033-4.354-11.541-10.594-11.541c-6.197,0-10.57,4.559-10.57,11.541c0,7.025,4.373,11.49,10.57,11.49
		C1817.09,131.982,1821.496,127.465,1821.496,120.492"/>
	<path fill="#FFFFFF" d="M1832.43,125.287v-15.912h-4.236v-3.372h12.639v3.372h-4.215v15.574c0,4.939,3.371,6.798,7.354,6.798
		s7.27-1.899,7.27-6.839v-15.533h-4.373v-3.372h12.492v3.372h-4.232V125c0,6.703-4.461,10.498-11.291,10.498
		C1837.65,135.498,1832.43,132.365,1832.43,125.287"/>
	<polygon fill="#FFFFFF" points="1862.105,131.559 1866.393,131.559 1866.393,109.375 1862.105,109.375 1862.105,106.003 
		1885.525,106.003 1885.525,114.129 1881.681,114.129 1881.681,109.375 1870.559,109.375 1870.559,118.678 1882.527,118.678 
		1882.527,122.061 1870.559,122.061 1870.559,131.559 1881.762,131.559 1881.762,126.662 1885.66,126.662 1885.66,134.924 
		1862.105,134.924 	"/>
	<path fill="#FFFFFF" d="M1890.053,133.973v-6.743h3.793v4.134c1.426,0.384,3.596,0.763,5.885,0.763
		c3.995,0,6.831-1.329,6.831-4.372c0-7.415-16.054-3.939-16.054-14.338c0-5.319,4.236-7.981,10.355-7.981
		c3.084,0,6.458,0.661,8.83,1.474v6.646h-3.846v-4.179c-1.223-0.287-3.084-0.568-4.848-0.568c-3.932,0-6.441,1.518-6.441,4.229
		c0,6.933,16.049,3.703,16.049,14.43c0,5.746-4.66,8.033-10.644,8.033C1896.441,135.498,1892.744,134.736,1890.053,133.973"/>
	<path fill="#FFFFFF" d="M1050.424,195.129h4.27v-22.176h-4.27v-3.371h13.406c9.404,0,15.318,5.313,15.318,14.48
		c0,9.118-5.914,14.441-15.318,14.441h-13.406V195.129z M1063.83,195.129c7.066,0,11.047-4.092,11.047-11.066
		c0-7.023-3.98-11.109-11.047-11.109h-4.951v22.176H1063.83z"/>
	<polygon fill="#FFFFFF" points="1082.385,195.129 1086.676,195.129 1086.676,172.953 1082.385,172.953 1082.385,169.582 
		1105.809,169.582 1105.809,177.699 1101.959,177.699 1101.959,172.953 1090.844,172.953 1090.844,182.256 1102.811,182.256 
		1102.811,185.631 1090.844,185.631 1090.844,195.129 1102.047,195.129 1102.047,190.241 1105.943,190.241 1105.943,198.504 
		1082.385,198.504 	"/>
	<polygon fill="#FFFFFF" points="1120.334,195.129 1124.605,195.129 1124.605,172.953 1120.334,172.953 1120.334,169.582 
		1133.633,169.582 1133.633,172.953 1128.787,172.953 1128.787,195.129 1139.994,195.129 1139.994,189.951 1143.891,189.951 
		1143.891,198.504 1120.334,198.504 	"/>
	<path fill="#FFFFFF" d="M1144.65,195.129h3.717l8.963-22.176h-4.117v-3.371h10.148l10.355,25.547h3.745v3.375h-12.387v-3.375h4.321
		l-2.238-5.557h-12.488l-2.17,5.557h4.254v3.375h-12.104V195.129z M1165.889,186.201l-4.951-12.586l-4.928,12.586H1165.889z"/>
	<polygon fill="#FFFFFF" points="1187.783,195.129 1192.055,195.129 1192.055,172.953 1187.783,172.953 1187.783,169.582 
		1200.514,169.582 1200.514,172.953 1196.242,172.953 1196.242,182.207 1211.717,182.207 1211.717,172.953 1207.444,172.953 
		1207.444,169.582 1220.119,169.582 1220.119,172.953 1215.902,172.953 1215.902,195.129 1220.119,195.129 1220.119,198.504 
		1207.444,198.504 1207.444,195.129 1211.717,195.129 1211.717,185.726 1196.242,185.726 1196.242,195.129 1200.514,195.129 
		1200.514,198.504 1187.783,198.504 	"/>
	<path fill="#FFFFFF" d="M1221.916,195.129h3.713l8.984-22.176h-4.139v-3.371h10.152L1251,195.129h3.747v3.375h-12.392v-3.375h4.324
		l-2.238-5.557h-12.488l-2.186,5.557h4.268v3.375h-12.119V195.129z M1243.154,186.201l-4.934-12.586l-4.93,12.586H1243.154z"/>
	<path fill="#FFFFFF" d="M1258.219,188.857v-15.904h-4.233v-3.371h12.64v3.371h-4.238v15.575c0,4.942,3.375,6.799,7.377,6.799
		c3.982,0,7.252-1.9,7.252-6.841v-15.533h-4.355v-3.371h12.473v3.371h-4.22v15.617c0,6.703-4.46,10.502-11.302,10.502
		C1263.441,199.072,1258.219,195.934,1258.219,188.857"/>
	<polygon fill="#FFFFFF" points="1293.32,195.129 1297.878,195.129 1297.878,172.953 1290.844,172.953 1290.844,177.74 
		1287.047,177.74 1287.047,169.582 1312.877,169.582 1312.877,177.74 1309.027,177.74 1309.027,172.953 1302.048,172.953 
		1302.048,195.129 1306.604,195.129 1306.604,198.504 1293.32,198.504 	"/>
	<polygon fill="#FFFFFF" points="1315.639,195.129 1319.91,195.129 1319.91,172.953 1315.639,172.953 1315.639,169.582 
		1339.045,169.582 1339.045,177.699 1335.194,177.699 1335.194,172.953 1324.097,172.953 1324.097,182.256 1336.063,182.256 
		1336.063,185.631 1324.097,185.631 1324.097,195.129 1335.299,195.129 1335.299,190.241 1339.195,190.241 1339.195,198.504 
		1315.639,198.504 	"/>
	<polygon fill="#FFFFFF" points="1353.588,195.129 1357.854,195.129 1357.854,172.953 1353.588,172.953 1353.588,169.582 
		1376.988,169.582 1376.988,177.699 1373.143,177.699 1373.143,172.953 1362.041,172.953 1362.041,182.256 1374.009,182.256 
		1374.009,185.631 1362.041,185.631 1362.041,195.129 1373.247,195.129 1373.247,190.241 1377.144,190.241 1377.144,198.504 
		1353.588,198.504 	"/>
	<path fill="#FFFFFF" d="M1381.225,184.164c0-9.219,5.986-15.158,15.39-15.158c4.273,0,8.257,1.237,10.339,2.238v7.592h-4.031
		v-5.314c-1.609-0.568-3.982-1.001-6.121-1.001c-6.558,0-11.25,4.042-11.25,11.45c0,7.736,5.184,11.49,11.458,11.49
		c3.792,0,7.388-1.426,9.944-2.898v3.99c-2.117,1.137-5.775,2.52-10.285,2.52C1387.553,199.072,1381.225,193.563,1381.225,184.164"
		/>
	<path fill="#FFFFFF" d="M1410.584,184.063c0-8.736,6.027-15.057,14.859-15.057c8.83,0,14.865,6.32,14.865,15.057
		c0,8.738-6.035,15.01-14.865,15.01C1416.611,199.072,1410.584,192.801,1410.584,184.063 M1436.037,184.063
		c0-7.023-4.373-11.542-10.594-11.542c-6.168,0-10.542,4.56-10.542,11.542c0,7.025,4.323,11.492,10.542,11.492
		C1431.611,195.555,1436.037,191.037,1436.037,184.063"/>
	<polygon fill="#FFFFFF" points="1443.441,195.129 1447.713,195.129 1447.713,172.953 1443.441,172.953 1443.441,169.582 
		1456.747,169.582 1456.747,172.953 1451.898,172.953 1451.898,195.129 1463.102,195.129 1463.102,189.951 1466.986,189.951 
		1466.986,198.504 1443.441,198.504 	"/>
	<polygon fill="#FFFFFF" points="1469.611,195.129 1473.88,195.129 1473.88,172.953 1469.611,172.953 1469.611,169.582 
		1493.033,169.582 1493.033,177.699 1489.188,177.699 1489.188,172.953 1478.066,172.953 1478.066,182.256 1490.033,182.256 
		1490.033,185.631 1478.066,185.631 1478.066,195.129 1489.27,195.129 1489.27,190.241 1493.17,190.241 1493.17,198.504 
		1469.611,198.504 	"/>
	<polygon fill="#FFFFFF" points="1507.557,195.129 1511.828,195.129 1511.828,172.953 1507.557,172.953 1507.557,169.582 
		1530.98,169.582 1530.98,177.699 1527.131,177.699 1527.131,172.953 1516.016,172.953 1516.016,182.256 1527.978,182.256 
		1527.978,185.631 1516.016,185.631 1516.016,195.129 1527.216,195.129 1527.216,190.241 1531.113,190.241 1531.113,198.504 
		1507.557,198.504 	"/>
	<polygon fill="#FFFFFF" points="1535.149,195.129 1539.416,195.129 1539.416,172.953 1535.149,172.953 1535.149,169.582 
		1543.707,169.582 1559.334,191.759 1559.334,172.953 1555.096,172.953 1555.096,169.582 1567.538,169.582 1567.538,172.953 
		1563.316,172.953 1563.316,198.504 1559.57,198.504 1543.365,175.657 1543.365,195.129 1547.588,195.129 1547.588,198.504 
		1535.149,198.504 	"/>
	<polygon fill="#FFFFFF" points="1581.043,195.129 1585.297,195.129 1585.297,172.953 1581.043,172.953 1581.043,169.582 
		1593.77,169.582 1593.77,172.953 1589.482,172.953 1589.482,182.207 1604.971,182.207 1604.971,172.953 1600.703,172.953 
		1600.703,169.582 1613.379,169.582 1613.379,172.953 1609.158,172.953 1609.158,195.129 1613.379,195.129 1613.379,198.504 
		1600.703,198.504 1600.703,195.129 1604.971,195.129 1604.971,185.726 1589.482,185.726 1589.482,195.129 1593.77,195.129 
		1593.77,198.504 1581.043,198.504 	"/>
	<path fill="#FFFFFF" d="M1615.193,195.129h3.693l8.98-22.176h-4.135v-3.371h10.17l10.338,25.547h3.764v3.375h-12.389v-3.375h4.318
		l-2.234-5.557h-12.493l-2.185,5.557h4.273v3.375h-12.102V195.129z M1636.412,186.201l-4.934-12.586l-4.934,12.586H1636.412z"/>
	<polygon fill="#FFFFFF" points="1649.426,195.129 1653.715,195.129 1653.715,172.953 1649.426,172.953 1649.426,169.582 
		1662.105,169.582 1662.105,172.953 1657.885,172.953 1657.885,195.129 1662.105,195.129 1662.105,198.504 1649.426,198.504 	"/>
	<polygon fill="#FFFFFF" points="1665.712,195.129 1669.984,195.129 1669.984,172.953 1665.712,172.953 1665.712,169.582 
		1674.27,169.582 1689.896,191.759 1689.896,172.953 1685.664,172.953 1685.664,169.582 1698.1,169.582 1698.1,172.953 
		1693.879,172.953 1693.879,198.504 1690.117,198.504 1673.934,175.657 1673.934,195.129 1678.171,195.129 1678.171,198.504 
		1665.712,198.504 	"/>
	<path fill="#FFFFFF" d="M1698.541,195.129h3.693l8.986-22.176h-4.121v-3.371h10.152l10.355,25.547h3.744v3.375h-12.389v-3.375
		h4.324l-2.238-5.557h-12.49l-2.186,5.557h4.268v3.375h-12.1V195.129z M1719.762,186.201l-4.934-12.586l-4.93,12.586H1719.762z"/>
	<path fill="#FFFFFF" d="M1734.826,188.857v-15.904h-4.221v-3.371h12.611v3.371h-4.221v15.575c0,4.942,3.373,6.799,7.374,6.799
		c3.981,0,7.271-1.9,7.271-6.841v-15.533h-4.373v-3.371h12.473v3.371h-4.221v15.617c0,6.703-4.458,10.502-11.305,10.502
		C1740.049,199.072,1734.826,195.934,1734.826,188.857"/>
	<polygon fill="#FFFFFF" points="1769.928,195.129 1774.485,195.129 1774.485,172.953 1767.453,172.953 1767.453,177.74 
		1763.654,177.74 1763.654,169.582 1789.502,169.582 1789.502,177.74 1785.635,177.74 1785.635,172.953 1778.652,172.953 
		1778.652,195.129 1783.213,195.129 1783.213,198.504 1769.928,198.504 	"/>
</g>
</svg>
