<?xml version="1.0" encoding="UTF-8" standalone="no"?>
<!-- Created with Inkscape (http://www.inkscape.org/) -->

<svg
   width="100.87768mm"
   height="146.29117mm"
   viewBox="0 0 100.87768 146.29117"
   version="1.1"
   id="svg1"
   xml:space="preserve"
   inkscape:version="1.3 (0e150ed6c4, 2023-07-21)"
   sodipodi:docname="idea person svg.svg"
   xmlns:inkscape="http://www.inkscape.org/namespaces/inkscape"
   xmlns:sodipodi="http://sodipodi.sourceforge.net/DTD/sodipodi-0.dtd"
   xmlns="http://www.w3.org/2000/svg"
   xmlns:svg="http://www.w3.org/2000/svg"><sodipodi:namedview
     id="namedview1"
     pagecolor="#ffffff"
     bordercolor="#000000"
     borderopacity="0.25"
     inkscape:showpageshadow="2"
     inkscape:pageopacity="0.0"
     inkscape:pagecheckerboard="0"
     inkscape:deskcolor="#d1d1d1"
     inkscape:document-units="mm"
     inkscape:zoom="0.24787674"
     inkscape:cx="443.76895"
     inkscape:cy="-227.93587"
     inkscape:window-width="1920"
     inkscape:window-height="1001"
     inkscape:window-x="-9"
     inkscape:window-y="-9"
     inkscape:window-maximized="1"
     inkscape:current-layer="layer1" /><defs
     id="defs1"><inkscape:path-effect
       effect="fillet_chamfer"
       id="path-effect168"
       is_visible="true"
       lpeversion="1"
       nodesatellites_param="F,0,0,1,0,0,0,1 @ F,0,0,1,0,0,0,1 @ F,0,0,1,0,0,0,1 | F,0,0,1,0,0,0,1 @ F,0,0,1,0,0,0,1 @ F,0,0,1,0,0,0,1 @ F,0,0,1,0,0,0,1 @ F,0,0,1,0,0,0,1 @ F,0,0,1,0,0,0,1 @ F,0,0,1,0,0,0,1 @ F,0,0,1,0,0,0,1 @ F,0,0,1,0,0,0,1 @ F,0,0,1,0,0,0,1 @ F,0,0,1,0,0,0,1"
       radius="0"
       unit="px"
       method="auto"
       mode="F"
       chamfer_steps="1"
       flexible="false"
       use_knot_distance="true"
       apply_no_radius="true"
       apply_with_radius="true"
       only_selected="false"
       hide_knots="false" /></defs><g
     inkscape:label="Calque 1"
     inkscape:groupmode="layer"
     id="layer1"
     transform="translate(154.08999,-96.789386)"><path
       style="fill:#3f3231;fill-opacity:1;stroke-width:0.5"
       d="m -120.1464,199.78342 c -0.53518,-0.60332 -2.23872,-6.60979 -1.97921,-6.97846 0.17152,-0.24364 0.75851,-0.24931 1.80094,-0.0172 2.37853,0.52948 5.67384,-0.13593 7.70304,-1.55542 1.89626,-1.32648 3.82439,-3.74554 4.35555,-5.46447 0.79784,-2.58206 -0.0105,-3.39743 -2.87595,-2.89958 l -1.92886,0.33517 -0.55406,1.48081 c -0.77546,2.07247 -2.09026,3.17286 -3.96198,3.31587 -2.12593,0.16242 -4.93362,-0.68713 -7.16892,-2.16919 -1.60741,-1.06577 -2.12608,-1.62887 -2.94058,-3.19246 -1.38197,-2.65303 -2.37823,-7.11574 -2.11547,-9.47621 0.29877,-2.68381 1.13028,-3.43997 5.16209,-4.69422 4.00707,-1.24657 4.71343,-1.86212 4.37456,-3.81225 -0.21223,-1.22132 -0.33336,-1.36909 -1.39351,-1.70005 -0.92051,-0.28736 -1.69344,-0.24617 -3.73035,0.19878 -3.26227,0.71264 -5.41628,1.98166 -6.94837,4.09357 -1.30821,1.8033 -1.72121,4.10241 -1.57203,8.75095 0.10468,3.26166 -0.25844,3.68707 -1.98872,2.32996 -2.41932,-1.89752 -4.74355,-6.15501 -5.61711,-10.28935 -0.26052,-1.23305 -0.64194,-3.86212 -0.84757,-5.84239 l -0.37385,-3.60045 -1.10648,-0.0148 c -1.69482,-0.0227 -2.99672,1.05487 -3.53144,2.92296 -0.35069,1.22504 -0.34798,2.05762 0.0133,4.12556 0.83815,4.79613 2.67101,7.79775 7.86735,12.88349 1.3541,1.32526 1.46069,2.07123 0.26938,1.88529 -0.7791,-0.12159 -3.44735,-1.87344 -5.12795,-3.36677 -2.44818,-2.17539 -3.83121,-4.16141 -5.01017,-7.1946 -1.59597,-4.10599 -1.45456,-3.91794 -2.77405,-3.68865 -1.74585,0.30337 -2.14984,1.16716 -1.56459,3.3454 1.0938,4.07109 5.70802,8.46754 12.40858,11.82297 3.89236,1.94916 3.58381,3.05772 -0.53117,1.9084 -2.53774,-0.70881 -4.64846,-1.94373 -7.50041,-4.38836 -2.6318,-2.2559 -3.57533,-2.60355 -4.35558,-1.6048 -0.71002,0.90886 -0.49558,1.75363 0.81021,3.19171 2.57572,2.83666 8.29614,5.31358 14.38569,6.22896 1.19266,0.17928 2.27371,0.44458 2.40232,0.58957 0.12859,0.14499 1.10017,3.31826 2.15901,7.05174 1.05883,3.73347 2.07074,7.23236 2.24868,7.77528"
       id="path48" /><path
       style="fill:#3f3231;stroke:none;stroke-width:0.5"
       d="m -85.756061,227.73471 c 0,2.25315 -0.150508,4.68666 1.270045,6.60315 1.894216,2.55551 5.756214,2.19461 7.55695,-0.25724 1.28687,-1.75217 1.49037,-3.98358 1.49176,-6.08133 h -0.79375 c -0.0722,3.49892 -3.82679,10.64805 -7.501227,5.55217 -1.220032,-1.692 -1.230028,-3.82782 -1.230028,-5.81675 z"
       id="path167" /><path
       style="fill:#3f3231;stroke:none;stroke-width:0.5"
       d="m -104.80606,226.41179 c 0,2.37124 -0.18615,5.17766 1.42703,7.13212 4.558617,5.52298 8.880236,-2.44148 8.891718,-6.60295 h -0.79375 c -0.290974,3.68192 -4.464521,11.17343 -7.827058,5.02688 -0.92256,-1.68641 -0.90419,-3.69319 -0.90419,-5.55605 h -0.79375"
       id="path166" /><path
       style="fill:#3f3231;stroke:none;stroke-width:0.5"
       d="m -130.19157,214.4294 c 1.61327,-0.46113 2.30313,1.98293 0.75068,2.55723 -1.76237,0.65195 -2.42713,-2.07804 -0.75068,-2.55723"
       id="path137" /><path
       style="fill:#3f3231;stroke:none;stroke-width:0.5"
       d="m -130.97103,208.3203 c 1.58678,-0.58914 2.56216,1.70828 0.99995,2.40493 -1.51954,0.67762 -2.65657,-1.78985 -0.99995,-2.40493"
       id="path101" /><path
       style="fill:#3f3231;fill-opacity:1;stroke:none;stroke-width:0.5;stroke-opacity:1"
       d="m -72.824723,218.58158 c 1.422191,3.49202 2.844386,6.98403 4.266577,10.47605 1.263804,-0.65665 2.633008,-2.32837 4.159311,-1.33945 1.991024,1.31382 0.578254,5.34492 -1.918325,5.30184 2.486968,3.13969 4.899912,8.64483 8.706147,9.92083 1.466235,0.0466 2.932469,0.0931 4.398704,0.1397 -0.03493,-10.27828 0.200398,-21.02437 -1.889213,-31.15524 -0.391659,4.81538 -14.134673,6.26209 -17.723201,6.65627 z"
       id="path100"
       sodipodi:nodetypes="cccccccc" /><path
       style="fill:#3f3231;stroke:none;stroke-width:0.5"
       d="m -131.23663,202.20039 c 1.75777,-0.37493 2.283,2.31705 0.49385,2.63665 -1.6531,0.29529 -2.06953,-2.30057 -0.49385,-2.63665"
       id="path67" /><path
       style="fill:#3f3231;stroke:none;stroke-width:0.5"
       d="m -134.96856,199.15973 2.34021,20.10833 2.95145,23.8125 h 17.19792 l -1.83085,-11.64167 -5.57748,-34.13125 -15.08125,1.85209"
       id="path66" /><ellipse
       style="fill:none;fill-opacity:1;stroke:#3f3231;stroke-width:0.5"
       id="path168"
       cx="-80.308693"
       cy="211.92531"
       rx="25.20717"
       ry="6.970583" /><ellipse
       style="fill:#3f3231;fill-opacity:1;stroke:#3f3231;stroke-width:0.5"
       id="path168-5"
       cx="-80.308693"
       cy="211.92531"
       rx="19.295055"
       ry="4.3291178" /><path
       style="fill:#3f3231;fill-opacity:1;stroke-width:0.5"
       d="m -83.131307,204.33243 c -0.7857,-0.0374 -1.323,-0.13119 -1.6813,-0.29366 -0.1602,-0.0726 -0.3094,-0.19895 -0.3617,-0.30618 -0.1103,-0.2263 -0.1642,-0.93372 -0.1818,-2.38609 -0.01,-0.65486 10e-5,-2.11375 0.015,-2.70436 l 0.01,-0.27575 -0.024,-0.007 c -0.044,-0.0131 -0.1702,-0.0922 -0.2515,-0.15734 -0.2093,-0.16781 -0.4096,-0.46417 -0.5746,-0.85056 -0.125,-0.29256 -0.2201,-0.58093 -0.4174,-1.26577 -0.1746,-0.60581 -0.2848,-0.92912 -0.3835,-1.12464 -0.119,-0.2359 -0.4828,-0.73102 -1.2582,-1.71245 -0.873,-1.10494 -1.357,-1.75591 -1.8068,-2.43039 -0.3054,-0.4581 -0.5304,-0.82413 -0.6373,-1.03723 -0.4896,-0.97567 -0.7366,-2.64839 -0.6958,-4.71149 0.035,-1.76103 0.2637,-3.54832 0.651,-5.08515 0.2948,-1.16959 0.6319,-2.01947 1.0321,-2.60158 0.5411,-0.78705 1.2157,-1.46584 2.045,-2.05752 1.6393,-1.16959 3.8019,-1.89053 6.2328,-2.07777 0.4822,-0.0371 0.6641,-0.0439 1.1858,-0.044 0.5426,-1.1e-4 0.7359,0.009 1.1662,0.0541 1.9034,0.20004 3.7809,0.85822 5.3679,1.88175 0.9247,0.5964 1.7255,1.3108 2.3536,2.0996 0.5781,0.7259 1.0257,1.54787 1.3057,2.39759 0.064,0.19361 0.1414,0.47203 0.1747,0.62719 0.013,0.062 0.031,0.14357 0.04,0.1813 0.1409,0.63091 0.1904,1.49168 0.1275,2.22157 -0.1876,2.18063 -0.7327,4.08242 -1.6047,5.59881 -0.617,1.07293 -1.3501,1.94109 -2.5164,2.98006 -0.073,0.0648 -0.2691,0.23643 -0.4361,0.38137 -0.4421,0.38347 -0.6482,0.56979 -0.8075,0.73005 -0.4367,0.4394 -0.7921,0.94539 -1.0256,1.4602 -0.1772,0.39085 -0.3079,0.81444 -0.3763,1.22009 -0.053,0.31591 -0.069,0.50445 -0.079,0.9506 -0.01,0.31995 -0.012,0.39756 -0.028,0.47654 -0.067,0.32182 -0.2092,0.6016 -0.4493,0.88107 -0.2666,0.31021 -0.6792,0.59497 -1.1054,0.76292 l -0.098,0.0386 v 0.16992 c 0,0.0935 0.01,0.42129 0.013,0.72852 0.013,0.71039 0.013,2.0479 -8e-4,2.38629 -0.032,0.81236 -0.092,1.25275 -0.226,1.6415 -0.09,0.26301 -0.2084,0.45998 -0.3763,0.62784 -0.2401,0.23997 -0.5332,0.37786 -0.966,0.45442 -0.3099,0.0548 -1.1347,0.12787 -1.8914,0.16754 -0.2601,0.0136 -1.2389,0.02 -1.4594,0.01 z m 1.7289,-0.87154 c 0.7531,-0.0439 1.3621,-0.11401 1.6317,-0.18787 0.3501,-0.0959 0.5166,-0.32677 0.607,-0.84184 0.065,-0.37175 0.099,-0.95925 0.099,-1.74195 v -0.41405 l -0.037,1.2e-4 c -0.02,3e-5 -0.5902,0.011 -1.2666,0.0244 -1.5362,0.0304 -1.5517,0.0304 -1.6242,0.005 -0.1759,-0.0618 -0.2868,-0.2191 -0.2868,-0.40672 0,-0.18895 0.1106,-0.34475 0.2891,-0.40707 0.057,-0.0199 0.1004,-0.0213 1.4881,-0.0486 0.7861,-0.0154 1.4304,-0.0295 1.4319,-0.0312 0,-0.002 -0.001,-0.19938 -0.01,-0.43923 0,-0.23986 -0.01,-0.48145 -0.01,-0.53688 l -6e-4,-0.10078 -0.1397,0.006 c -0.1631,0.007 -3.3969,0.0714 -4.1576,0.0829 -0.2857,0.004 -0.6479,0.011 -0.8049,0.0148 l -0.2856,0.007 -0.01,0.12875 c -0.011,0.22398 -0.027,2.17626 -0.02,2.42536 l 0.01,0.23862 0.4665,-0.008 c 0.2566,-0.005 0.5944,-0.008 0.7507,-0.008 h 0.2842 l 0.066,0.0314 c 0.087,0.0413 0.1646,0.11877 0.2059,0.20597 0.03,0.0633 0.032,0.072 0.032,0.18399 0,0.11204 0,0.12073 -0.032,0.18398 -0.041,0.0867 -0.1189,0.16487 -0.2038,0.20458 -0.086,0.0403 -0.1454,0.044 -0.9207,0.0575 -0.3447,0.006 -0.6307,0.0134 -0.6355,0.0164 -0.02,0.0122 0.03,0.97844 0.06,1.14964 0.01,0.0434 0.01,0.0444 0.068,0.0656 0.1214,0.0433 0.3944,0.0883 0.6986,0.11526 0.1392,0.0123 0.2456,0.0189 0.6272,0.0386 0.1449,0.007 1.4499,-0.003 1.6219,-0.013 z m -2.548,-5.88942 0.2352,-0.006 v -0.0343 c -0.01,-0.0642 0,-0.14189 0.033,-0.35279 0.056,-0.33673 0.1494,-1.02234 0.1676,-1.225 0,-0.035 0.019,-0.18497 0.035,-0.3332 0.076,-0.70231 0.1324,-1.43659 0.1661,-2.15109 0.042,-0.8977 0.043,-2.05611 3e-4,-2.87629 -0.1059,-2.06077 -0.4371,-3.7955 -0.9942,-5.20868 -0.1518,-0.38513 -0.2982,-0.69616 -0.5326,-1.1319 -0.5675,-1.0551 -0.8148,-1.8568 -0.7316,-2.37159 0.083,-0.51497 0.5098,-0.79414 1.0342,-0.67698 0.4344,0.097 0.9591,0.47345 1.4051,1.00794 0.037,0.0446 0.071,0.0777 0.074,0.0735 0,-0.004 0.023,-0.0649 0.043,-0.13496 0.1114,-0.38498 0.2744,-0.70541 0.4464,-0.87749 0.129,-0.12902 0.2448,-0.18447 0.4022,-0.19263 0.1535,-0.008 0.2911,0.0324 0.4629,0.1356 0.2411,0.14487 0.5014,0.40758 0.7518,0.75856 0.044,0.0617 0.081,0.11226 0.083,0.11226 0,0 0.034,-0.054 0.072,-0.12005 0.3605,-0.62485 0.7903,-0.95922 1.2368,-0.96211 0.1273,-8.3e-4 0.1882,0.0114 0.2891,0.0578 0.3094,0.14251 0.4527,0.47613 0.4166,0.96992 -0.042,0.56849 -0.1952,1.1516 -0.7743,2.94053 -0.4817,1.48772 -0.6268,2.01403 -0.6851,2.48429 -0.015,0.12346 -0.037,0.40633 -0.052,0.6615 -0.017,0.30269 -0.017,2.17606 -10e-5,2.70969 0.052,1.61962 0.1231,3.07902 0.2571,5.25278 0.023,0.37693 0.084,1.26994 0.093,1.35729 l 0.01,0.0588 0.3792,-0.007 c 0.2086,-0.004 0.4322,-0.0117 0.4969,-0.0177 0.3012,-0.028 0.6094,-0.11781 0.8789,-0.25623 0.3717,-0.19096 0.6731,-0.48457 0.7911,-0.77076 0.05,-0.1217 0.06,-0.18671 0.06,-0.41067 2e-4,-0.62493 0.075,-1.22127 0.2204,-1.75225 0.2117,-0.77396 0.6144,-1.5242 1.1598,-2.1609 0.2673,-0.31203 0.4766,-0.51558 1.0012,-0.97384 0.1913,-0.16716 0.4206,-0.36767 0.5096,-0.44559 0.6315,-0.55323 1.1229,-1.04337 1.5153,-1.51118 1.289,-1.53712 2.0423,-3.42019 2.3599,-5.89945 0.072,-0.56278 0.098,-0.90591 0.097,-1.308 -2e-4,-0.31478 -0.01,-0.4933 -0.039,-0.7546 -0.2081,-1.84409 -1.1618,-3.48485 -2.7775,-4.77852 -0.316,-0.25302 -0.7477,-0.55364 -1.0926,-0.76087 -1.393,-0.83686 -3.0167,-1.38384 -4.6305,-1.55989 -0.4347,-0.0474 -0.5774,-0.0542 -1.1515,-0.0544 -0.5546,-2.2e-4 -0.6962,0.005 -1.1809,0.0443 -2.5495,0.20623 -4.7547,1.03013 -6.3036,2.35519 -0.599,0.5125 -1.1497,1.15913 -1.4479,1.70021 -0.928,1.6842 -1.5386,5.80199 -1.2984,8.75753 0.085,1.04282 0.2616,1.84307 0.533,2.41156 0.1319,0.27624 0.5776,0.97337 0.9988,1.56233 0.3583,0.50093 0.6251,0.85152 1.3837,1.81789 1.0668,1.3591 1.2774,1.66221 1.4452,2.07997 0.077,0.19197 0.1929,0.55222 0.327,1.01682 0.07,0.24255 0.1519,0.51907 0.182,0.61449 0.211,0.66948 0.4023,1.03181 0.5967,1.1301 l 0.051,0.0256 0.3822,-0.007 c 0.2102,-0.004 0.488,-0.01 0.6174,-0.0129 z m 2.1444,-0.0396 c 0.5057,-0.0101 0.9212,-0.0201 0.9233,-0.0222 0,-0.002 -0.01,-0.15358 -0.02,-0.33658 -0.013,-0.183 -0.04,-0.55984 -0.059,-0.83742 -0.019,-0.27759 -0.039,-0.55982 -0.044,-0.6272 -0.01,-0.0674 -0.025,-0.38269 -0.044,-0.7007 -0.2088,-3.52298 -0.2628,-6.06862 -0.1566,-7.38427 0.034,-0.42153 0.081,-0.68746 0.2012,-1.13872 0.021,-0.0792 0.038,-0.14646 0.038,-0.14945 0,-0.003 -0.017,-0.005 -0.037,-0.005 -0.057,0 -0.1466,-0.0259 -0.2274,-0.0661 -0.1035,-0.0513 -0.2159,-0.16462 -0.273,-0.27498 -0.1103,-0.21313 -0.1497,-0.42492 -0.1498,-0.80556 -1e-4,-0.39918 0.054,-0.82837 0.1685,-1.3475 0.042,-0.19149 0.119,-0.48414 0.1654,-0.63176 l 0.029,-0.0928 -0.06,-0.11304 c -0.1845,-0.3482 -0.4104,-0.67923 -0.6019,-0.88225 -0.095,-0.10024 -0.096,-0.10069 -0.1269,-0.0323 -0.082,0.18357 -0.2141,0.66654 -0.2985,1.09057 l -0.042,0.2107 0.052,0.1372 c 0.3156,0.83175 0.354,1.63575 0.1174,2.45598 -0.2014,0.69815 -0.3586,0.99732 -0.5838,1.11126 -0.029,0.0147 -0.051,0.0297 -0.048,0.0335 0.01,0.013 0.1122,0.5365 0.1512,0.76029 0.1737,0.99503 0.2746,2.02103 0.3147,3.19969 0.013,0.37261 0.013,1.47528 1e-4,1.86689 -0.038,1.16923 -0.1252,2.25808 -0.2688,3.34517 -0.064,0.48681 -0.1689,1.17647 -0.1879,1.23876 -0.01,0.0213 -0.095,0.0214 1.0675,-0.002 z m -1.6248,-13.35794 c 0.019,-0.13747 0.05,-0.34601 0.069,-0.46342 l 0.034,-0.21347 -0.051,-0.0952 c -0.295,-0.54888 -0.7196,-1.01859 -1.1393,-1.26042 -0.05,-0.0287 -0.1787,-0.0843 -0.1954,-0.0843 -0.015,0 0,0.19717 0.022,0.30654 0.04,0.18654 0.1306,0.45762 0.2369,0.70617 0.1265,0.29565 0.2194,0.48314 0.4935,0.99555 0.1036,0.19367 0.237,0.47565 0.3487,0.73728 l 0.082,0.19265 0.032,-0.2857 c 0.017,-0.15714 0.047,-0.39818 0.067,-0.53565 z m 3.4311,-0.95065 c 0.1405,-0.4866 0.226,-0.84478 0.2635,-1.10462 0.01,-0.0605 0.014,-0.1198 0.013,-0.13187 0,-0.0198 -0.01,-0.0167 -0.056,0.0315 -0.072,0.0729 -0.1586,0.18827 -0.2348,0.31238 -0.078,0.1263 -0.2268,0.43119 -0.2943,0.60131 l -0.05,0.12523 0.053,0.13246 c 0.029,0.0729 0.078,0.20392 0.1078,0.29127 0.03,0.0874 0.057,0.16543 0.06,0.17351 0.01,0.0169 0.021,-0.0293 0.1373,-0.4312 z m 14.3253,12.48475 c -0.067,-0.0118 -0.1265,-0.0384 -0.1846,-0.0829 -0.027,-0.0203 -0.8385,-0.70194 -1.8042,-1.51468 -1.3951,-1.17416 -1.7623,-1.48793 -1.7877,-1.52749 -0.052,-0.0814 -0.071,-0.15682 -0.067,-0.26645 0,-0.0852 0.01,-0.10123 0.04,-0.16748 0.044,-0.0897 0.1098,-0.15383 0.2012,-0.1971 0.063,-0.0298 0.071,-0.0312 0.1846,-0.0312 h 0.1188 l 0.075,0.0392 c 0.061,0.0318 0.4106,0.32208 1.851,1.53543 1.3256,1.11673 1.7844,1.5085 1.8086,1.54458 0.052,0.0778 0.073,0.15724 0.068,0.26668 0,0.0793 -0.01,0.10272 -0.034,0.15801 -0.084,0.1793 -0.2742,0.27779 -0.4697,0.24338 z m -0.8163,-7.09067 c -0.121,-0.0325 -0.2229,-0.11895 -0.2772,-0.23506 -0.024,-0.0516 -0.031,-0.0816 -0.035,-0.15007 -0.01,-0.14092 0.036,-0.25705 0.132,-0.34434 0.065,-0.0594 0.1386,-0.0947 0.2249,-0.10775 0.038,-0.006 1.204,-0.0315 2.6738,-0.0591 2.3652,-0.0444 2.6121,-0.0475 2.6635,-0.0341 0.078,0.0204 0.1288,0.0481 0.1856,0.10122 0.1811,0.16933 0.1799,0.46844 0,0.6324 -0.067,0.0605 -0.1415,0.0951 -0.2276,0.10607 -0.054,0.007 -5.1676,0.1095 -5.265,0.10568 -0.011,-4.2e-4 -0.043,-0.007 -0.072,-0.015 z m -33.3199,-0.64189 c -0.221403,-0.0435 -0.374403,-0.26664 -0.336103,-0.49006 0.028,-0.16029 0.1328,-0.28839 0.277303,-0.33736 0.034,-0.0114 1.6315,-0.26572 3.1202,-0.49658 0.1024,-0.0159 0.528,-0.0819 0.9457,-0.1468 0.866,-0.13447 0.8578,-0.13384 0.9835,-0.0741 0.1302,0.0618 0.2197,0.18106 0.2435,0.32435 0.033,0.20186 -0.099,0.41232 -0.296,0.47116 -0.064,0.019 -4.8141,0.76052 -4.8622,0.75895 -0.018,-5.9e-4 -0.052,-0.005 -0.076,-0.01 z m 33.1989,-4.94762 c -0.2039,-0.0652 -0.3362,-0.27588 -0.3017,-0.48068 0.032,-0.19219 0.1848,-0.33875 0.3775,-0.36281 0.1116,-0.0139 5.6483,-0.11626 5.716,-0.10565 0.146,0.0229 0.286,0.14316 0.3361,0.28878 0.021,0.0612 0.025,0.16675 0.01,0.2373 -0.041,0.17618 -0.187,0.30501 -0.3701,0.3258 -0.041,0.005 -0.5823,0.0175 -1.2022,0.0284 -0.6198,0.011 -1.2924,0.0243 -1.4945,0.0296 -0.4652,0.0122 -2.7961,0.0583 -2.9204,0.0577 -0.062,-2.9e-4 -0.1117,-0.006 -0.1493,-0.0184 z m -27.6189,-2.79787 c -0.291,-0.0615 -0.5667,-0.11955 -0.6125,-0.12905 -0.097,-0.0202 -0.345,-0.0716 -2.2148,-0.45946 -0.768,-0.15934 -1.4257,-0.29837 -1.4614,-0.30896 -0.1186,-0.0351 -0.2185,-0.13013 -0.2678,-0.25461 -0.028,-0.072 -0.032,-0.20012 -0.01,-0.2819 0.04,-0.13052 0.1521,-0.24397 0.2792,-0.28173 0.1136,-0.0337 0.075,-0.0406 2.0761,0.37279 1.0311,0.21304 2.1129,0.43601 2.4039,0.49549 0.5907,0.1207 0.6133,0.12772 0.7054,0.21986 0.1744,0.1744 0.1726,0.4473 0,0.61582 -0.086,0.0821 -0.1646,0.11601 -0.2785,0.12021 -0.083,0.003 -0.1269,-0.005 -0.6188,-0.10846 z m 26.4402,-2.34517 c -0.1484,-0.053 -0.2459,-0.15666 -0.2837,-0.30175 -0.044,-0.16728 0.019,-0.3538 0.1503,-0.44913 0.06,-0.0431 4.991,-2.5194 5.0475,-2.53451 0.1087,-0.029 0.2575,-0.007 0.3515,0.0525 0.2307,0.14561 0.2619,0.49051 0.061,0.67538 -0.049,0.0453 -0.1959,0.12155 -1.3043,0.67762 -0.6869,0.34459 -1.6524,0.82975 -2.1456,1.07812 -0.4932,0.24838 -1.0614,0.53303 -1.2627,0.63257 l -0.366,0.18096 -0.099,0.003 c -0.076,0.002 -0.1109,-0.001 -0.1486,-0.0147 z m -22.6268,-3.63886 c -0.1173,-0.0292 -0.043,0.0439 -1.9584,-1.91493 -2.0414,-2.08712 -1.8621,-1.8884 -1.8681,-2.06975 0,-0.1229 0.011,-0.18294 0.07,-0.26937 0.078,-0.11544 0.1851,-0.17443 0.3325,-0.18246 0.1143,-0.006 0.1996,0.019 0.2825,0.0836 0.078,0.0608 3.5727,3.63598 3.6121,3.69534 0.044,0.0662 0.064,0.12451 0.07,0.20348 0.014,0.17841 -0.085,0.34495 -0.2512,0.42382 -0.065,0.031 -0.084,0.0353 -0.1622,0.0374 -0.049,10e-4 -0.1057,-0.002 -0.1266,-0.007 z m 18.8782,-0.80575 c -0.1742,-0.0594 -0.2937,-0.22579 -0.2937,-0.40888 0,-0.0784 0.027,-0.1738 0.066,-0.23134 0.015,-0.0221 0.4549,-0.61238 0.9777,-1.31166 0.5229,-0.69927 1.1833,-1.58301 1.4676,-1.96385 0.2844,-0.38084 0.539,-0.71302 0.5658,-0.73819 0.1291,-0.12112 0.3229,-0.14758 0.4875,-0.0666 0.2015,0.0992 0.29,0.35485 0.1949,0.5631 -0.022,0.0484 -0.3407,0.47881 -1.5741,2.12659 -0.3469,0.46354 -0.8046,1.07653 -1.0171,1.3622 -0.2125,0.28567 -0.4062,0.53993 -0.4306,0.56503 -0.1112,0.11471 -0.2893,0.15626 -0.4439,0.10355 z m -6.2768,-2.6707 c -0.075,-0.026 -0.1322,-0.0632 -0.1891,-0.1235 -0.085,-0.0895 -0.1279,-0.21303 -0.1158,-0.33057 0.01,-0.0532 0.1212,-0.38755 1.6298,-4.7068 0.2446,-0.70027 0.4564,-1.29462 0.4706,-1.32078 0.035,-0.0652 0.1083,-0.1305 0.187,-0.16779 0.063,-0.0297 0.072,-0.0312 0.1835,-0.0312 0.1118,0 0.1208,0.002 0.1835,0.0312 0.091,0.0434 0.1567,0.10737 0.2013,0.19767 0.036,0.0724 0.037,0.0761 0.037,0.18708 v 0.11324 l -0.6134,1.75909 c -0.3374,0.9675 -0.7998,2.29491 -1.0275,2.94979 -0.2278,0.65488 -0.4254,1.21151 -0.4391,1.23695 -0.03,0.0557 -0.095,0.12486 -0.148,0.15861 -0.1,0.0629 -0.2547,0.0832 -0.3594,0.047 z m -6.2175,-0.94368 c -0.1044,-0.0205 -0.2357,-0.11735 -0.2866,-0.21146 -0.014,-0.026 -0.1315,-0.36044 -0.2609,-0.74313 -0.1294,-0.38269 -0.4924,-1.45211 -0.8066,-2.37649 l -0.5713,-1.68069 -4e-4,-0.1176 c -3e-4,-0.11367 8e-4,-0.11983 0.032,-0.1843 0.1044,-0.2135 0.3593,-0.30193 0.575,-0.19949 0.079,0.0377 0.1446,0.0959 0.1839,0.16412 0.014,0.0238 0.2677,0.75769 0.5643,1.63086 0.2967,0.87318 0.6626,1.94922 0.8132,2.39119 0.1505,0.44198 0.2767,0.82569 0.2804,0.85269 0,0.027 0,0.0772 0,0.11148 -0.04,0.24712 -0.2745,0.41092 -0.5199,0.36282 z"
       id="path1-7" /><path
       id="path171"
       style="fill:#3f3231;fill-opacity:1;stroke:none;stroke-width:2.54583"
       d="m -96.9821,96.792766 c -0.21651,0.0084 -0.43735,0.03242 -0.66197,0.0739 -3.48908,0.16422 -6.24794,3.654824 -9.71517,3.634924 -4.22853,-0.768513 -8.50096,-2.046595 -12.80284,-1.405086 -3.56312,0.690779 -4.56455,6.039406 -7.89357,7.341676 -4.8085,2.46184 -10.41909,4.32883 -13.3656,10.18439 -2.68358,4.65788 -1.4368,10.65648 -3.02927,15.75562 -1.9994,4.99276 -3.28085,10.949 -1.44435,16.3344 2.53748,8.21519 9.39183,13.03734 16.18557,13.75679 3.05206,1.16763 7.54613,-2.10533 9.43405,2.18643 l 9.13322,18.21248 36.418971,-20.01377 -10.90831,-21.95178 c 0.54724,-1.92818 -1.04122,-5.04206 0.11782,-6.86883 3.05026,-2.81679 6.10955,-6.31154 6.79442,-11.21534 0.20867,-4.35467 -0.55399,-8.88519 -2.18281,-12.76202 -1.4776,-4.47644 -5.53342,-4.93054 -8.35401,-7.28275 -2.12155,-2.66223 -4.47847,-6.10749 -7.726151,-5.981031 z"
       sodipodi:nodetypes="sccccccccccccccccss" /></g></svg>
