<?xml version="1.0" encoding="UTF-8" standalone="no"?>
<svg
   xml:space="preserve"
   width="107.38504mm"
   height="251.51431mm"
   viewBox="0 0 107.38504 251.51431"
   version="1.1"
   id="svg60"
   xmlns="http://www.w3.org/2000/svg"
   xmlns:svg="http://www.w3.org/2000/svg"><defs
     id="defs60" /><path
     d="m 37.841036,5.2128626 c -2.77473,1.82112 -5.45,6.0630004 -7.532,10.2100004 -1.941,3.867 -2.485,5.997 -3.609,14.124 -0.476,3.444 -0.641,4.05 -1.614,5.924 -0.95,1.829 -1.037,2.135 -0.698,2.473 0.62,0.621 1.337,0.02 2.16,-1.812 0.628,-1.402 0.764,-2.142 0.925,-5.019 0.159,-2.857 0.293,-3.59 0.874,-4.785 0.411,-0.846 0.807,-2.311 0.988,-3.66 0.197,-1.465 0.526,-2.636 0.946,-3.358 0.354,-0.61 1.008,-2.143 1.455,-3.407 1.138,-3.225 2.046,-5.052 3.03,-6.0960004 1.622,-1.719 2.524,-0.857 1.198,1.1450004 -0.457,0.69 -1.007,1.912 -1.223,2.715 -0.216,0.803 -0.758,2.532 -1.204,3.841 -2.224,6.53 -2.782,9.7 -2.02,11.468 0.254,0.587 0.32,1.227 0.196,1.901 -0.17,0.934 -0.095,1.12 0.927,2.29 0.611,0.701 1.312,1.662 1.555,2.135 0.46,0.892 1.488,1.21 1.488,0.46 0,-0.954 -1.066,-4.11 -1.95,-5.774 -0.929,-1.748 -0.96,-1.9 -0.96,-4.591 0,-2.402 0.11,-3.115 0.81,-5.204 0.445,-1.33 1.688,-4.087 2.762,-6.124 2.126,-4.034 3.352,-5.4720004 6.394,-7.5000004 1.22,-0.814 1.11339,-2.28253 0.77374,-2.79211 0,0 -0.43511,-1.467 -1.06019,-1.59056 -0.99112,-0.19592 -4.61155,3.02667 -4.61155,3.02667 z m 6.26044,-3.51687 c 0.50907,0.69866 3.41249,3.38151 2.90856,3.73987 -0.12899,0.52093 -3.649,2.156 -4.65,2.899 -1.693,1.255 -1.945,1.58 -3.566,4.6000004 -2.17,4.045 -3.222,6.673 -3.788,9.467 -0.632,3.117 -0.446,5.155 0.626,6.88 0.47,0.755 0.97,1.868 1.11,2.473 0.513,2.192 1.994,6.08 2.419,6.346 0.315,0.197 0.968,0.114 2.38,-0.305 2.665,-0.79 5.413,-0.77 7.41499,0.053 1.575,0.649 4.324,2.397 5.614,3.571 1.159,1.055 2.28,2.951 2.28,3.856 0,0.444 0.26,2.066 0.58,3.604 0.633,3.044 0.611,3.386 -0.578,8.978 -0.263,1.237 -0.55,3.105 -0.638,4.152 -0.087,1.047 -0.456,3.13 -0.82,4.63 -0.76,3.14 -0.816,4.628 -0.27,7.245 0.405,1.94 0.367,2.472 -0.465,6.595 -0.206,1.019 -0.395,3.28 -0.42,5.027 -0.025,1.746 -0.155,3.77 -0.288,4.498 -0.134,0.727 -0.32,2.394 -0.412,3.704 -0.093,1.31 -0.35,3.096 -0.573,3.969 -0.313,1.224 -0.37,2.434997 -0.254,5.290997 0.198,4.85 0.834,11.732 1.16,12.568 0.143,0.364 0.344,2.09 0.447,3.837 0.103,1.746 0.414,4.365 0.691,5.82 0.516,2.708 2.159,8.411 3.324,11.542 0.359,0.963 0.96,2.868 1.338,4.233 0.377,1.365 0.842,3.018 1.032,3.672 0.378,1.302 1.996,4.587 2.592,5.264 0.468,0.532 2.08,3.74 3.243,6.454 0.486,1.134 1.242,2.583 1.681,3.222 0.44,0.638 0.926,1.496 1.083,1.908 0.156,0.41 0.93,1.772 1.72,3.025 0.79,1.252 1.437,2.398 1.437,2.544 0,0.308 2.5,4.192 3.711,5.766 0.45,0.584 1.09,1.732 1.423,2.551 0.333,0.819 1.308,2.452 2.167,3.63 0.86,1.177 2.456,3.396 3.547,4.93 1.092,1.535 2.49,3.386 3.109,4.115 0.618,0.728 1.124,1.567 1.124,1.864 0,0.657 2.012,4.107 2.505,4.297 0.194,0.074 0.5,0.59 0.68,1.146 0.43,1.324 1.854,4.16 3.17,6.308 1.323,2.163 3.147,5.808 4.066,8.127 0.389,0.981 0.955,2.204 1.258,2.719 0.61,1.034 2.112004,5.13 2.859004,7.801 0.264,0.946 0.851,2.63 1.304,3.744 0.453,1.113 1.133,3.552 1.512,5.421 0.378,1.869 0.807,3.621 0.953,3.894 0.547,1.023 1.537,6.913 1.537,9.145 -0.001,2.323 -0.977,6.827 -1.658,7.646 -0.48,0.58 -2.51,1.373 -3.457,1.352 -0.46,-0.01 -1.31,-0.191 -1.888,-0.403 v -0.001 c -1.286004,-0.47 -2.400004,-1.494 -3.093004,-2.842 -0.287,-0.56 -0.918,-1.571 -1.4,-2.25 -0.484,-0.678 -1.488,-2.423 -2.232,-3.878 -3.033,-5.935 -2.887,-5.75 -10.91,-13.953 -4.164,-4.259 -7.914,-8.114 -8.334,-8.568 -0.776,-0.84 -3.482,-3.354 -6.941,-6.451 -1.057,-0.946 -3.075,-2.893 -4.485,-4.328 -1.41,-1.434 -3.036,-2.848 -3.614,-3.143 -2.621,-1.337 -7.494,-5.95 -11.813,-11.182 -0.60099,-0.728 -1.39899,-1.525 -1.77299,-1.772 -0.374,-0.247 -0.926,-0.85 -1.225,-1.342 -0.3,-0.491 -2.126,-2.491 -4.059,-4.444 -2.556,-2.582 -3.595,-3.82 -3.811,-4.543 -0.164,-0.546 -0.815,-1.598 -1.447,-2.339 -0.632,-0.74 -1.15,-1.472 -1.15,-1.627 0,-0.154 -0.651,-1.313 -1.448,-2.576 -0.796,-1.262 -1.737,-2.942 -2.09,-3.733 -0.352,-0.79 -1.007,-1.784 -1.455,-2.208 -0.474,-0.449 -1.11,-1.553 -1.524,-2.645 -0.39,-1.032 -1.03,-2.352 -1.423,-2.934 -0.393,-0.582 -0.86,-1.676 -1.04,-2.43 -0.178,-0.756 -0.69,-1.946 -1.136,-2.647 -0.447,-0.7 -1.095,-1.91 -1.44,-2.687 -0.347,-0.778 -0.97,-1.85 -1.387,-2.381 -0.416,-0.532 -0.905,-1.444 -1.087,-2.026 -0.181,-0.582 -0.716,-1.832 -1.188,-2.778 -1.271,-2.55 -2.773,-6.28 -2.773,-6.89 0,-0.294 -0.284,-1.215 -0.632,-2.047 -0.347,-0.833 -0.717,-2.05 -0.82,-2.704 -0.105,-0.655 -0.58,-2.088 -1.058,-3.185 -0.478,-1.097 -1.008,-2.667 -1.179,-3.489 -0.181,-0.873 -0.619,-1.882 -1.054,-2.43 -0.409,-0.514 -0.819,-1.408 -0.911,-1.987 -0.093,-0.578 -0.377,-1.207 -0.6299998,-1.397 -0.2996,-0.23368 -0.57257,-0.49961 -0.814,-0.793 -0.552,-0.706 -2.905,-8.716 -3.106,-10.575 -0.1,-0.922 -0.45,-2.514 -0.78,-3.536 -0.328,-1.023 -0.738,-2.988 -0.91,-4.366 -0.172,-1.378 -0.48,-3.103 -0.685,-3.832 -0.205,-0.729 -0.561,-2.335997 -0.791,-3.570997 -0.23,-1.236 -0.587,-2.842 -0.793,-3.57 -0.206,-0.727 -0.734,-3.171 -1.17400002,-5.431 -0.789,-4.054 -0.794,-4.137 -0.391,-6.218 0.356,-1.842 0.372,-3.434 0.125,-12.56 -0.156,-5.748 -0.355,-10.845 -0.442,-11.325 -0.154,-0.85 -0.064,-1.76 0.97500002,-9.842 0.662,-5.147 1.41,-7.173 3.48,-9.419 1.08,-1.171 4.201,-3.064 5.5899998,-3.39 1.868,-0.438 6.435,-0.429 8.845,0.018 l 2.448,0.453 0.756,-0.724 c 0.978,-0.937 2.418,-3.732 2.418,-4.694 0,-2.175 1.258,-8.906 2.567,-13.73 0.875,-3.22 3.971,-8.164 7.914,-12.6330004 1.458,-1.653 7.76603,-6.72085 7.96752,-5.28167998 z M 104.43403,248.68786 c 0.608,-1.163 1.172,-5.724 1.011,-8.176 -0.21,-3.186 -0.392,-3.532 -1.873,-3.532 -1.92,0 -2.211,-1.05 -0.42,-1.512 1.08,-0.279 1.243,-0.792 0.738,-2.335 -0.275,-0.839 -0.527,-1.107 -1.268,-1.347 -1.08,-0.349 -1.211,-0.93 -0.264,-1.162 0.597,-0.146 0.654,-0.276 0.585,-1.321 -0.131,-1.976 -0.529,-2.497 -1.976,-2.59 -1.533004,-0.098 -1.683004,-0.66 -0.329,-1.225 1.04,-0.434 1.157,-0.938 0.552,-2.386 -0.416,-0.995 -1.099,-1.468 -2.122004,-1.468 -0.937,0 -0.872,-0.68 0.115,-1.19 0.863004,-0.446 0.982004,-0.989 0.478,-2.17 -0.57,-1.337 -1.013,-1.667 -2.239,-1.667 -1.39,0 -1.464,-0.361 -0.223,-1.093 1.133,-0.669 1.152,-1.092 0.124,-2.713 -0.781,-1.232 -0.828,-1.26 -1.825,-1.092 -1.768,0.299 -1.7,-0.518 0.135,-1.605 0.462,-0.274 0.463,-0.334 0.019,-1.498 -0.255,-0.667 -0.637,-1.28 -0.85,-1.36 -0.213,-0.082 -1.005,-0.032 -1.76,0.112 -1.115,0.211 -1.448,0.186 -1.767,-0.133 -0.347,-0.347 -0.217,-0.47 1.128,-1.065 1.734,-0.767 1.739,-0.809 0.375,-3.233 -0.847,-1.504 -1.266,-1.74 -2.936,-1.653 -2.203,0.116 -2.419,-0.283 -0.58,-1.07 1.435,-0.616 1.51,-1.112 0.456,-3.044 l -0.721,-1.322 -1.72,-0.08 c -2.254,-0.106 -2.525,-0.426 -0.938,-1.106 1.205,-0.516 1.259,-0.584 1.1,-1.373 -0.09,-0.457 -0.492,-1.348 -0.891,-1.98 -0.803,-1.271 -1.062,-1.338 -3.226,-0.839 -1.032,0.239 -1.422,0.239 -1.66,0.001 -0.392,-0.392 0.288,-0.932 1.71,-1.358 1.143,-0.343 1.212,-0.665 0.462,-2.136 -0.811,-1.59 -1.536,-1.956 -3.175,-1.604 -1.626,0.348 -3.172,0.375 -3.172,0.053 0,-0.129 0.774,-0.563 1.72,-0.965 0.946,-0.402 1.72,-0.862 1.719,-1.022 0,-0.16 -0.396,-0.946 -0.88,-1.747 -0.831,-1.378 -0.932,-1.454 -1.917,-1.433 -0.571,0.013 -1.74,0.12 -2.596,0.24 -1.284,0.178 -1.535,0.151 -1.435,-0.155 0.067,-0.204 0.745,-0.622 1.506,-0.929 2.006,-0.807 2.09,-0.956 1.26,-2.21 -0.62,-0.938 -0.828,-1.067 -1.696,-1.057 -0.543,0.006 -1.524,0.115 -2.179,0.241 -1.259,0.243 -1.927,-0.013 -1.685,-0.645 0.075,-0.195 0.961,-0.556 1.97,-0.803 2.054,-0.504 2.229,-0.81 1.188,-2.083 -0.616,-0.753 -0.654,-0.761 -2.527,-0.577 -1.741,0.172 -1.894,0.147 -1.81,-0.287 0.054,-0.282 0.57,-0.652 1.268,-0.91 0.647,-0.238 1.223,-0.575 1.28,-0.747 0.058,-0.172 -0.216,-0.797 -0.608,-1.39 -0.782,-1.18 -0.721,-1.172 -4.336,-0.591 -1.67,0.268 -1.339,-0.35 0.718,-1.338 0.956,-0.46 1.63,-0.953 1.63,-1.19 -0.002,-0.225 -0.511,-1.3 -1.132,-2.392 -0.781,-1.373 -1.304,-2.01 -1.697,-2.066 -0.312,-0.045 -1.48,0.401 -2.595,0.992 -1.754,0.93 -2.253,1.074 -3.704,1.074 -1.193,0 -2.336,0.233 -3.968,0.81 -2.29,0.807 -3.572,0.921 -3.764,0.334 -0.064,-0.195 1.066,-0.668 3.022,-1.267 1.718,-0.525 3.643,-1.144 4.278,-1.375 0.634,-0.231 1.706,-0.404 2.381,-0.385 1.416,0.04 3.635,-0.858 3.815,-1.544 0.064,-0.245 -0.314,-1.33 -0.84,-2.412 -0.722,-1.48 -1.106,-1.987 -1.557,-2.051 -0.837,-0.12 -2.924,0.616 -4.394,1.549 -0.681,0.432 -1.426,0.785 -1.656,0.785 -0.23,0 -1.425,0.243 -2.656,0.54 -2.212,0.536 -3.381,0.499 -3.187,-0.1 0.054,-0.17 0.805,-0.523 1.668,-0.786 5.844,-1.784 9.903,-3.174 9.903,-3.393 0,-0.388 -0.778,-1.844 -1.5,-2.81 -0.816,-1.09 -1.356,-1.083 -3.37,0.041 -2.818,1.574 -6.375,2.256 -6.375,1.224 0,-0.268 0.712,-0.572 2.275,-0.972 1.25,-0.32 3.067,-0.94 4.035,-1.38 1.912,-0.867 2.07,-1.169 1.333,-2.55 -0.623,-1.168 -1.389,-3.452 -1.863,-5.557 -0.23,-1.018 -0.837,-2.955 -1.35,-4.303 -1.207,-3.177 -1.14,-3.158 -6.534,-1.926 -2.505,0.572 -4.90799,0.712 -4.90799,0.285 0,-0.454 0.86,-0.738 5.13999,-1.695 2.315,-0.518 4.318,-1.052 4.453,-1.186 0.15,-0.15 -0.067,-1.36 -0.557,-3.118 -0.77,-2.764 -1.415,-5.383 -1.76,-7.15 -0.09,-0.46 -0.256,-2.247 -0.369,-3.97 -0.266,-4.08 -0.746,-5.205 -2.277,-5.342 -0.582,-0.052 -1.98,0.052 -3.10599,0.23 -2.095,0.331 -5.046,0.184 -5.765,-0.287 -0.331,-0.217 -0.312,-0.314 0.127,-0.649 0.366,-0.279 0.868,-0.35 1.72,-0.24 0.662,0.083 2.562,-0.029 4.22199,-0.25 1.66,-0.22 3.148,-0.378 3.307,-0.349 0.197,0.036 0.282,-0.946 0.268,-3.068 -0.027,-3.944 -0.004,-3.917 -3.474,-4.18 -1.42399,-0.107 -3.18499,-0.32 -3.91299,-0.471 -5.786,-1.207 -6.958,-1.595 -6.596,-2.18 0.249,-0.403 2.234,-0.249 5.67,0.44 1.819,0.365 4.3,0.738 5.51499,0.829 2.393,0.18 2.807,-0.009 2.52,-1.15 -0.079,-0.316 0.062,-1.913 0.314,-3.549997 0.43,-2.786 0.43,-2.994 0.013,-3.3 -0.272,-0.198 -1.915,-0.393 -4.20599,-0.5 -6.291,-0.294 -11.04,-1.202 -11.678,-2.235 -0.257,-0.416 1.686,-0.372 3.849,0.086 0.963,0.204 3.727,0.572 6.142,0.818 4.86499,0.494 6.39399,0.364 6.39399,-0.547 0,-0.462 -0.187,-0.519 -1.72,-0.519 -1.722,0 -2.74299,-0.222 -3.38499,-0.737 -0.496,-0.396 0.087,-0.709 1.33099,-0.714 1.023,-0.004 3.211,-0.448 3.907,-0.792 0.218,-0.108 0.397,-0.54 0.397,-0.96 0,-1.008 -0.986,-1.21 -1.686,-0.345 -0.468,0.577 -0.529,0.584 -2.555,0.257 -1.14099,-0.184 -2.23199,-0.395 -2.42299,-0.469 -0.704,-0.27 -0.318,-0.606 0.697,-0.606 0.75,0 1.24799,-0.188 1.76299,-0.665 0.63,-0.585 0.918,-0.657 2.372,-0.595 1.764,0.074 2.122,-0.062 1.873,-0.713 -0.108,-0.28 -0.514,-0.408 -1.29,-0.41 -1.725,-0.001 -4.24399,-0.475 -4.46999,-0.839 -0.353,-0.573 0.026,-0.746 1.63299,-0.746 2.247,0 2.107,-0.578 -0.33,-1.368 -3.63599,-1.178 -2.00099,-1.786 1.916,-0.713 2.393,0.656 2.896,0.56 2.896,-0.548 0,-0.947 -0.595,-1.34 -2.033,-1.34 -1.115,0 -2.874,-0.775 -2.705,-1.19 0.06,-0.146 0.685,-0.224 1.39,-0.173 1.09,0.08 1.267,0.026 1.19,-0.355 -0.136,-0.672 -2.94,-1.736 -5.22799,-1.983 -1.99,-0.215 -5.84,-0.971 -6.059,-1.19 -0.063,-0.062 -0.037,-0.314 0.057,-0.559 0.143,-0.372 0.418,-0.42 1.687,-0.288 5.43,0.562 4.942,0.579 5.29,-0.184 0.284,-0.625 0.457,-0.693 1.77599,-0.693 0.803,0 1.46,-0.104 1.46,-0.232 0,-0.562 -1.117,-0.966 -6.33999,-2.291 -5.817,-1.476 -6.281,-1.632 -5.92,-1.988 0.278,-0.274 3.72,0.144 6.767,0.822 3.132,0.696 3.74799,0.674 4.12199,-0.147 0.245,-0.536 0.491,-0.661 1.3,-0.66 0.548,0.001 1.343,0.182 1.764,0.402 0.838,0.437 1.1,0.363 0.868,-0.244 -0.256,-0.668 -1.29,-1.17 -3.237,-1.574 -1.027,-0.214 -2.33699,-0.588 -2.90999,-0.832 -0.574,-0.244 -2.639,-0.606 -4.589,-0.805 -3.51,-0.357 -4.532,-0.683 -3.729,-1.187 0.621,-0.39 5.434,0.011 8.068,0.672 1.31,0.329 2.97599,0.68 3.70399,0.781 0.728,0.1 1.844,0.412 2.481,0.69 1.49,0.654 1.62,0.641 1.62,-0.154 0,-0.563 -0.121,-0.661 -0.824,-0.661 -1.319,0 -3.378,-1.26 -3.627,-2.22 -0.168,-0.649 -0.391,-0.846 -1.12,-0.992 -1.21999,-0.243 -6.76299,-0.756 -8.21699,-0.76 -1.542,-0.005 -2.351,-0.242 -2.351,-0.689 0,-0.278 0.462,-0.367 1.918,-0.368 2.86,-0.003 8.16799,0.486 11.30999,1.042 1.529,0.271 2.828,0.446 2.888,0.389 0.284,-0.27 -1.52,-1.42 -2.474,-1.576 -2.133,-0.352 -2.22,-1.176 -0.125,-1.176 0.977,0 1.359,-0.112 1.483,-0.435 0.247,-0.644 -0.533,-1.08 -2.3,-1.285 -1.717,-0.199 -2.581,-0.654 -2.253,-1.185 0.236,-0.382 2.932,-0.23 5.363,0.304 0.765,0.167 1.48,0.216 1.587,0.108 0.37,-0.37 -0.766,-0.899 -2.322,-1.08 -1.683,-0.195 -2.384,-0.674 -1.88,-1.282 0.233,-0.28 0.615,-0.302 1.768,-0.103 0.809,0.14 1.538,0.186 1.62,0.104 0.454,-0.453 -0.432,-1.023 -2.744,-1.767 -2.154,-0.694 -3.358,-0.892 -7.09299,-1.167 -2.872,-0.212 -4.832,-0.482 -5.424,-0.748 -0.884,-0.398 -0.7,-0.418 4.071,-0.438 2.789,-0.012 5.73999,0.115 6.67999,0.288 0.925,0.17 1.767,0.226 1.87,0.122 0.104,-0.104 -0.005,-0.508 -0.242,-0.9 -0.4,-0.657 -0.399,-0.765 0.009,-1.455 0.387,-0.655 0.392,-0.775 0.046,-0.994 -0.217,-0.137 -0.827,-0.252 -1.355,-0.254 -1.7,-0.007 -2.104,-1.37 -0.51,-1.72 0.741,-0.163 1.562,-1.058 1.253,-1.368 -0.07,-0.07 -0.825,-0.312 -1.675,-0.537 -1.334,-0.352 -1.94799,-0.363 -4.45799,-0.08 -3.105,0.351 -3.863,0.316 -4.03,-0.187 -0.116,-0.348 0.859,-0.636 3.832,-1.132 1.504,-0.25 1.918,-0.417 1.918,-0.77 0,-0.634 -2.156,-2.676 -2.826,-2.676 -0.307,0 -1.738,0.468 -3.182,1.04 -3.493,1.384 -6.683,2.036 -8.015,1.637 -0.543,-0.163 -1.306,-0.296 -1.695,-0.296 -0.389,0 -1.186,-0.245 -1.772,-0.543 -1.77,-0.903 -5.493,-2.102 -8.552,-2.753 -2.529,-0.538 -3.274,-0.591 -5.956,-0.42 -3.353,0.214 -5.5729998,0.913 -5.5729998,1.753 0,0.405 0.305,0.435 3.1089998,0.302 2.67,-0.127 5.518,0.053 7.644,0.483 0.8,0.162 0.985,0.843 0.325,1.197 -0.391,0.209 -1.005,0.212 -2.173,0.012 -0.969,-0.165 -2.246,-0.192 -3.15,-0.067 -2.771,0.386 -2.355,0.884 1.109,1.328 1.265,0.163 3.044,0.295 3.954,0.295 1.554,0 1.707,-0.057 2.547,-0.948 0.713,-0.756 1.018,-0.91 1.504,-0.761 0.992,0.304 1.323,0.702 1.184,1.426 -0.194,1.018 0.204,1.5 1.677,2.03 1.463,0.526 2.272,1.222 1.977,1.701 -0.275,0.444 -1.84,0.174 -3.773,-0.65 -1.952,-0.832 -4.122,-1.17 -4.42,-0.688 -0.11,0.177 -0.045,0.61 0.144,0.964 0.551,1.03 0.016,1.35 -1.54,0.924 -0.69,-0.19 -2.237,-0.41 -3.437,-0.488 -1.888,-0.125 -2.183,-0.087 -2.183,0.28 0,0.782 1.094,1.092 3.969,1.124 4.968,0.056 8.01,0.382 8.6,0.921 0.36,0.33 1.035,0.511 2.114,0.566 1.26,0.065 1.602,0.177 1.672,0.545 0.078,0.41 -0.159,0.462 -2.114,0.459 -1.241,-0.002 -2.664,-0.17 -3.26,-0.386 -0.583,-0.21 -1.855,-0.386 -2.827,-0.392 -1.655,-0.011 -1.803,0.037 -2.315,0.756 -0.301,0.423 -0.547,0.885 -0.547,1.027 0,0.443 1.36,0.821 3.968,1.104 2.97,0.322 4.318,0.665 4.776,1.218 0.594,0.716 -0.058,0.895 -1.871,0.513 -1.006,-0.212 -4.348,-0.431 -8.004,-0.525 -5.5,-0.142 -6.278,-0.112 -6.278,0.238 0,0.556 0.836,0.948 2.033,0.954 1.023,0.005 5.103,0.655 5.194,0.827 0.572,1.084 0.697,1.159 2.194,1.314 1.877,0.195 4.57,0.89 4.96,1.28 0.199,0.2 0.15,0.412 -0.166,0.729 -0.42,0.42 -0.565,0.418 -2.37,-0.023 -1.462,-0.357 -3.445,-0.5 -8.273,-0.6 -6.2359998,-0.127 -7.3219998,-0.017 -6.8799998,0.7 0.146,0.236 1.344,0.307 4.4659998,0.266 4.053,-0.054 8.574,0.137 9.906,0.418 0.453,0.096 0.59,0.282 0.53,0.715 -0.076,0.526 -0.237,0.586 -1.582,0.586 -1.365,0 -2.085,0.21 -1.778,0.517 0.065,0.065 1.4,0.349 2.965,0.63 1.607,0.288 3.051,0.696 3.319,0.938 0.26,0.236 0.88,0.43 1.378,0.433 1.086,0.005 1.709,0.346 1.436,0.786 -0.244,0.396 -2.582,0.165 -4.463,-0.44 -1.48,-0.475 -8.248,-0.647 -8.9,-0.226 -0.218,0.14 -0.933,0.26 -1.587,0.264 -0.655,0.005 -1.22,0.128 -1.256,0.273 -0.041,0.167 1.28,0.265 3.572,0.265 3.936,0 4.652,0.19 4.933,1.312 0.182,0.725 0.163,0.718 3.73,1.348 1.31,0.232 2.832,0.65 3.382,0.93 0.55,0.281 1.444,0.513 1.985,0.515 1.155,0.005 1.794,0.335 1.516,0.785 -0.29,0.47 -4.282,0.079 -5.295,-0.518 -0.933,-0.55 -2.637,-0.815 -3.572,-0.555 l -0.661,0.184 0.612,0.333 c 0.469,0.255 0.544,0.415 0.322,0.684 -0.424,0.51 -1.76,0.702 -6.286,0.903 -2.417,0.107 -4.15,0.3 -4.33,0.48 -0.733,0.733 0.11,0.875 5.216,0.875 5.341,0 10.213,0.523 11.133,1.196 0.38,0.278 -0.722,0.334 -6.145,0.314 -3.634,-0.014 -6.882,0.068 -7.218,0.181 -0.372,0.126 -0.577,0.378 -0.526,0.647 0.072,0.376 0.603,0.46 3.653,0.58 3.858,0.151 5.156,0.517 5.156,1.451 0,0.44 -0.15,0.512 -0.926,0.44 -2.409,-0.224 -8.255,-0.099 -8.537,0.183 -0.747,0.746 0.296,0.926 5.689,0.978 6.755,0.065 9.375,0.56 8.703,1.648 -0.168,0.272 -1.015,0.292 -4.157,0.101 -5.988,-0.363 -11.884,-0.27 -11.884,0.19 0,0.526 0.494,0.72 3.148,1.24 2.13,0.416 2.38,0.528 2.625,1.178 0.27,0.714 0.302,0.723 4.75,1.206 4.713,0.511 5.67,0.81 4.947,1.546 -0.352,0.358 -0.784,0.376 -3.307,0.133 -3.348,-0.321 -9.657,-0.282 -10.88,0.067 -0.567,0.162 -0.888,0.451 -1,0.9 -0.28,1.113 0.013,1.253 2.257,1.08 2.045,-0.158 2.073,-0.151 2.602,0.591 l 0.534,0.75 4.505,0.193 c 2.477,0.106 4.577,0.31 4.666,0.454 0.403,0.652 -0.55,0.878 -3.814,0.902 -4.65,0.034 -9.806,0.356 -10.835,0.675 -0.473,0.147 -0.86,0.432 -0.86,0.634 0,0.561 1.028,0.987 1.941,0.804 0.45,-0.09 2.043,-0.084 3.54,0.013 2.757,0.178 3.223,0.41 2.325,1.156 -0.219,0.181 -0.397,0.494 -0.397,0.694 0,0.284 0.567,0.366 2.58,0.37 2.535,0.005 5.8,0.348 6.09,0.64 0.082,0.081 0.078,0.22 -0.008,0.306 -0.087,0.086 -3.98,0.235 -8.653,0.33 -7.047,0.144 -8.536,0.24 -8.735,0.562 -0.4749998,0.768 0.233,1.066 2.607,1.097 1.255,0.016 3.414,0.105 4.796,0.198 2.51,0.169 2.513,0.17 2.444,0.856 l -0.07,0.688 2.715,0.21 c 1.494,0.115 3.16,0.225 3.702,0.245 1.19,0.043 1.8,0.516997 1.302,1.013997 -0.231,0.232 -1.615,0.35 -4.617,0.395 -7.69,0.114 -8.81,0.182 -9.271,0.564 -1.078,0.893 -0.57,1.052 3.654,1.14 3.288,0.067 4.174,0.166 4.508,0.5 0.246,0.247 0.343,0.604 0.237,0.88 -0.152,0.396 -0.374,0.435 -1.531,0.266 -1.546,-0.225 -5.542,-0.199 -6.3,0.042 -0.29,0.092 -0.471,0.35 -0.423,0.601 0.076,0.392 0.676,0.446 5.373,0.492 5.42,0.052 9.512,0.428 10.115,0.928 0.258,0.214 0.266,0.37 0.035,0.648 -0.25,0.302 -1.373,0.336 -6.42,0.19 -7.113,-0.205 -9.157,-0.047 -9.157,0.706 0,1.105 1.597,1.308 4.907,0.624 2.421,-0.5 6.331,-0.319 6.57,0.306 0.174,0.45 0.042,0.529 -1.282,0.768 -0.577,0.104 -1.374,0.358 -1.772,0.564 -0.398,0.206 -1.137,0.374 -1.642,0.374 -1.334,0 -1.754,0.237 -1.754,0.989 0,0.664 0.007,0.666 1.654,0.46 0.909,-0.114 2.308,-0.174 3.108,-0.132 0.8,0.041 2.67,0.09 4.154,0.107 2.953,0.034 3.856,0.382 2.873,1.107 -0.535,0.395 -0.55,0.396 -9.276,0.471 -5.145,0.044 -5.953,0.226 -5.953,1.34 0,1.128 0.515,1.257 2.803,0.705 3.032,-0.732 3.964,-0.822 4.494,-0.435 0.728,0.533 0.288,1.209 -0.787,1.209 -1.562,0 -2.166,1.203 -0.935,1.862 0.28,0.15 1.416,0.192 2.68,0.1 3.797,-0.276 7.786,0.523 6.422,1.286 -0.455,0.255 -10.479,0.087 -11.682,-0.195 -0.69,-0.162 -1.012,-0.068 -1.786,0.523 -0.947,0.722 -1.233,1.56 -0.613,1.799 0.182,0.07 1.835,0.062 3.675,-0.018 1.839,-0.08 3.552,-0.065 3.806,0.033 0.436,0.167 0.437,0.205 0.01,0.677 -0.301,0.333 -0.998,0.562 -2.087,0.686 -1.076,0.122 -1.796,0.356 -2.109,0.687 -0.3442,0.34389 -0.72059,0.65398 -1.124,0.926 -0.66,0.433 -0.845,1.007 -0.409,1.276 0.464,0.287 1.082,-0.18 1.082,-0.816 0,-0.575 0.06,-0.61 0.569,-0.338 0.66,0.353 3.418,0.153 5.996,-0.434 0.919,-0.21 2.219,-0.381 2.889,-0.381 1.811,0 4.503,0.527 4.855,0.951 0.393,0.474 0.468,0.464 -3.593,0.5 -3.756,0.032 -5.458,0.38 -6.058,1.236 -0.352,0.503 -0.626,0.552 -2.854,0.516 -2.052,-0.033 -2.61,0.049 -3.325,0.491 -0.976,0.603 -1.072,0.936 -0.377,1.308 0.426,0.228 2.268,0.158 8.09,-0.31 0.423,-0.034 0.812,0.064 0.865,0.217 0.231,0.667 -4.888,2.235 -7.3,2.235 -1.142,0 -1.344,0.075 -1.344,0.5 0,0.588 0.518,0.845 1.294,0.642 0.303,-0.08 0.969,-0.066 1.48,0.03 1.08,0.203 2.253,1.682 2.253,2.842 0,0.394 0.105,0.782 0.233,0.861 0.129,0.08 1.52,-0.092 3.094,-0.381 3.114,-0.572 4.498,-0.657 4.726,-0.289 0.213,0.346 -0.418,0.559 -3.924,1.325 -2.123,0.463 -3.24,0.834 -3.43,1.138 -0.156,0.247 -0.2,0.533 -0.099,0.635 0.207,0.207 7.399,-0.625 8.27,-0.956 1.788,-0.68 4.937,-0.463 3.83,0.263 -0.2532,0.1545 -0.54003,0.24542 -0.836,0.265 -0.242,0.002 -1.195,0.241 -2.117,0.532 -0.923,0.29 -2.868,0.717 -4.323,0.948 -3.392,0.539 -3.837,0.814 -3.837,2.375 0,0.77 0.13,1.242 0.366,1.333 0.41,0.157 2.29,-0.337 5.058,-1.331 1.311,-0.47 2.406,-0.667 3.745,-0.671 1.867,-0.007 1.896,0.004 2.169,0.787 0.178,0.512 0.458,0.793 0.787,0.793 0.28,0 0.652,0.17 0.825,0.379 0.448,0.54 -0.409,0.943 -2.018,0.95 -0.7,0.003 -2.465,0.282 -3.92,0.62 -1.993,0.463 -2.842,0.553 -3.44,0.363 -1.797,-0.572 -2.076,-0.531 -3.24,0.468 -1.246,1.069 -1.449,1.724 -0.53,1.708 0.327,-0.006 2.411,-0.403 4.63,-0.882 2.22,-0.48 4.035,-0.802 4.034,-0.717 0,0.085 -0.438,0.392 -0.974,0.683 -1.09,0.592 -1.438,1.187 -0.7,1.198 0.266,0.004 1.52,-0.26 2.787,-0.587 1.266,-0.326 2.39,-0.505 2.497,-0.397 0.371,0.37 -0.572,0.894 -2.947,1.635 -3.423,1.069 -6.218,2.27 -6.218,2.674 0,0.645 1.665,0.696 3.922,0.12 2.084,-0.533 6.93,-1.32 8.183,-1.33 0.327,-0.004 0.595,0.154 0.595,0.349 0,0.398 -0.765,0.798 -2.34,1.222 -0.877,0.236 -1.08,0.415 -1.149,1.009 -0.065,0.568 -0.336,0.834 -1.273,1.25 -3.52,1.567 -5.207,2.688 -4.741,3.154 0.075,0.075 0.886,-0.167 1.804,-0.538 2.038,-0.823 7.834,-1.597 8.406,-1.122 0.526,0.437 0.02,0.908 -1.349,1.252 -0.884,0.223 -1.281,0.506 -1.697,1.212 -0.307,0.52 -0.838,0.994 -1.22,1.09 -0.809,0.203 -0.873,0.543 -0.145,0.774 0.291,0.092 0.653,0.398 0.803,0.68 0.328,0.612 1.104,0.638 3.298,0.108 3.152,-0.761 4.227,-0.193 1.434,0.759 -6.464,2.203 -9.504,3.457 -9.504,3.92 0,0.683 0.475,0.613 2.831,-0.413 2.418,-1.053 4.161,-1.409 4.703,-0.959 0.744,0.618 0.154,1.064 -1.41,1.065 -1.492,10e-4 -3.214,0.71 -3.214,1.322 0,0.15 0.533,0.53 1.185,0.847 l 1.184,0.575 1.66,-0.678 c 1.892,-0.773 5.222,-1.435 5.904,-1.173 0.834,0.32 -0.275,1.126 -2.209,1.604 -3.527,0.873 -7.09,2.986 -6.325,3.751 0.09,0.091 1.272,-0.369 2.624,-1.022 4.527,-2.186 7.33,-2.836 7.134,-1.655 -0.133,0.797 -0.35,0.926 -2.228,1.319 -1.906,0.399 -3.18,0.98 -4.923,2.252 -1.762,1.284 -1.043,1.507 1.44,0.447 3.157,-1.348 7.144,-2.1 7.41299,-1.4 0.147,0.385 -2.67599,3.375 -5.18599,5.493 -1.056,0.891 -1.377,1.31 -1.17,1.526 0.294,0.308 0.369,0.28 5.692,-2.127 2.30299,-1.04 3.55199,-1.303 3.35199,-0.704 -0.06,0.178 -1.969,1.28 -4.24299,2.448 -4.735,2.431 -5.87,3.223 -5.605,3.909 0.354,0.915 1.542,0.55 3.475,-1.07 1.836,-1.537 3.81999,-2.655 4.92099,-2.77 0.488,-0.052 0.604,0.086 0.673,0.797 0.099,1.029 0.408,1.072 2.499,0.353 1.403,-0.483 1.783,-0.478 1.783,0.024 0,0.123 -1,0.712 -2.221,1.309 -2.405,1.175 -4.92199,3.172 -4.92199,3.904 0,0.542 0.495,1.091 0.98499,1.091 0.193,0 1.127,-0.722 2.075,-1.604 1.218,-1.133 1.896,-1.58 2.306,-1.522 0.987,0.141 0.812,0.892 -0.495,2.127 -1.888,1.784 -1.414,2.036 1.22,0.647 2.61,-1.375 4.22,-1.866 5.323,-1.624 1.391,0.305 0.845,0.983 -1.073,1.33 -1.855,0.335 -2.404,0.8 -2.404,2.033 0,0.978 -0.537,1.987 -1.587,2.979 -1.049,0.991 -1.366,1.564 -1.162,2.097 0.244,0.637 0.721,0.51 2.399,-0.638 1.112,-0.761 2.079,-1.166 3.476,-1.455 2.382,-0.494 2.695,-0.498 2.695,-0.036 0,0.23 -0.868,0.635 -2.315,1.084 -2.53,0.784 -4.035,1.729 -4.035,2.533 0,0.39 0.183,0.516 0.746,0.516 1.075,0 3.368,-0.728 3.753,-1.192 0.537,-0.647 1.322,-0.497 1.322,0.252 0,0.494 -0.402,0.935 -1.691,1.855 -0.93,0.664 -1.87,1.48 -2.088,1.812 -0.219,0.333 -0.886,0.827 -1.484,1.096 -1.122,0.506 -1.318,0.867 -0.77,1.415 0.578,0.578 1.058,0.336 3.017,-1.526 1.067,-1.013 2.51,-2.131 3.206,-2.484 2.524,-1.278 5.371,-1.794 4.57,-0.828 -0.155,0.186 -0.666,0.41 -1.136,0.498 -1.843,0.346 -5.476,2.926 -5.476,3.889 0,0.89 0.251,0.783 5.974,-2.551 0.79,-0.46 1.699,-0.398 1.699,0.116 0,0.255 -0.466,0.648 -2.646,2.233 -1.258,0.914 -1.572,1.863 -0.783,2.361 0.304,0.192 0.834,-0.018 2.082,-0.825 1.648,-1.065 2.937,-1.5 3.9,-1.314 0.988,0.19 0.45,0.822 -1.214,1.424 -1.188,0.43 -2.044,0.967 -2.827,1.773 l -1.123,1.155 1.235,-0.016 c 1.165,-0.014 1.251,0.034 1.517,0.845 0.516,1.572 0.653,1.571 3.61,-0.015 2.126,-1.14 2.84,-1.409 3.202,-1.206 0.666,0.373 0.42,0.61 -1.871,1.81 -1.122,0.587 -2.566,1.543 -3.21,2.124 -1.265,1.144 -1.288,1.273 -0.117,0.662 1.644,-0.857 2.012,-0.246 1.055,1.753 -0.369,0.77 -0.625,1.445 -0.57,1.5 0.217,0.217 1.262,-0.298 3.237,-1.594 3.15,-2.067 6.069,-3 5.851,-1.87 -0.055,0.286 -0.687,0.658 -1.724,1.015 -1.792,0.617 -3.607,1.843 -3.444,2.327 0.057,0.169 0.42,0.312 0.807,0.319 0.386,0.007 0.852,0.165 1.035,0.354 0.268,0.277 0.092,0.556 -0.925,1.458 -1.25,1.11 -1.63,2.012 -0.845,2.012 0.226,0 1.09,-0.459 1.918,-1.02 1.953,-1.322 2.794,-1.744 4.461,-2.238 1.177,-0.348 1.435,-0.353 1.852,-0.033 0.423,0.323 0.434,0.405 0.089,0.64 -0.219,0.149 -0.874,0.4 -1.456,0.559 -2.598,0.709 -5.617,2.867 -5.271,3.769 0.26,0.679 0.674,0.544 2.702,-0.88 1.872,-1.315 2.702,-1.485 2.702,-0.555 0,0.248 -0.175,0.682 -0.389,0.964 -0.424,0.56 -0.543,1.705 -0.177,1.705 0.125,0 1.032,-0.365 2.015,-0.81 2.424,-1.1 3.045,-0.84 1.385,0.579 -0.686,0.586 -1.247,1.175 -1.247,1.31 0,0.364 1.334,0.294 2.797,-0.146 0.92,-0.276 1.371,-0.307 1.563,-0.105 0.187,0.197 0.115,0.379 -0.23,0.588 -0.276,0.167 -0.812,0.563 -1.191,0.88 -0.547,0.457 -0.622,0.646 -0.365,0.907 0.259,0.263 0.684,0.187 2.096,-0.373 1.312,-0.52 1.861,-0.628 2.119,-0.415 0.277,0.23 0.16,0.51 -0.58,1.384 -0.688,0.812 -1.388,1.268 -2.708,1.762 -1.388,0.52 -1.8,0.798 -1.866,1.257 -0.118,0.827 0.34,0.775 4.179,-0.477 3.922,-1.278 4.574,-1.092 2.028,0.582 -2.474,1.625 -2.31,2.251 0.376,1.436 0.823,-0.25 1.354,-0.284 1.669,-0.108 0.628,0.351 0.19,0.855 -1.487,1.704 -1.659,0.84 -1.516,1.29 0.41,1.29 1.154,0 1.568,0.112 1.854,0.502 0.312,0.427 0.57,0.475 1.718,0.323 1.158,-0.153 1.388,-0.109 1.615,0.317 0.315,0.587 -0.08,1.106 -0.838,1.106 -0.855,0 -1.517,0.52 -1.517,1.19 0,0.987 2.053,2.105 3.456,1.881 1.962,-0.314 3.079,0.45 1.909,1.305 -0.38,0.279 -0.404,0.436 -0.142,0.956 0.173,0.342 0.348,0.964 0.39,1.382 0.06,0.609 0.26,0.82 0.998,1.059 1.311,0.422 1.351004,1.102 0.083,1.402 -1.396,0.33 -1.308,0.94 0.185,1.274 1.703004,0.382 1.867004,0.547 1.789004,1.796 l -0.07,1.098 1.298,0.192 c 0.714,0.105 1.387,0.337 1.497,0.514 0.33,0.535 -0.036,1.05 -0.866,1.216 -1.1,0.22 -1.17,0.687 -0.301,2.061 0.81,1.283 1.72,1.59 2.168,0.732 z m -1.677,-7.471 c -0.292,-0.473 0.427,-1.095 1.166,-1.009 1.063,0.124 0.94,1.113 -0.151,1.219 -0.46,0.045 -0.916,-0.05 -1.015,-0.21 z m -8.735004,-9.002 c -0.286,-0.463 0.147,-1.372 0.576,-1.207 0.217,0.083 0.504,0.151 0.638,0.151 0.416,0 0.266,0.993 -0.176,1.163 -0.59,0.227 -0.848,0.2 -1.038,-0.107 z m -12.71,-33.352 c -0.243,-0.394 0.04,-0.609 0.546,-0.414 0.234,0.09 0.351,0.283 0.26,0.43 -0.214,0.346 -0.585,0.34 -0.805,-0.016 z m -2.675,-3.555 c -0.367,-0.272 -0.413,-0.437 -0.186,-0.668 0.408,-0.414 1.26,-0.222 1.361,0.307 0.113,0.587 -0.58,0.8 -1.175,0.361 z m -2.825,-3.219 c -0.36,-0.359 -0.158,-0.805 0.497,-1.104 0.986,-0.45 1.443,-0.377 1.443,0.229 0,0.675 -1.475,1.34 -1.94,0.875 z m -2.823,-3.9 c 0,-0.541 0.921,-1.002 1.8,-0.9 0.51,0.058 0.714,0.233 0.714,0.611 0,0.444 -0.203,0.542 -1.257,0.61 -0.983,0.063 -1.257,-0.007 -1.257,-0.322 z m -5.027,-5.257 c 0,-0.398 1.268,-1.127 2.25,-1.293 0.768,-0.13 0.668,0.631 -0.133,1.012 -1.256,0.598 -2.117,0.712 -2.117,0.28 z m -4.233,-5.6 c 0,-0.532 1.604,-1.28 1.973,-0.92 0.34,0.332 -0.315,0.952 -1.245,1.18 -0.573,0.141 -0.728,0.086 -0.728,-0.26 z m -2.596,-4.05 c 0.05,-0.255 0.325,-0.463 0.612,-0.463 0.287,0 0.562,0.208 0.61,0.463 0.067,0.347 -0.086,0.463 -0.61,0.463 -0.525,0 -0.678,-0.116 -0.612,-0.463 z m -4.053,-2.748 c -0.295,-0.194 -0.27,-0.31 0.136,-0.62 0.49,-0.374 1.365,-0.539 4,-0.752 l 1.322,-0.108 -1.19,0.538 c -1.675,0.757 -3.828,1.232 -4.268,0.942 z m -18.60699,-11.323 c -0.196,-0.316 0.055,-0.462 1.83,-1.073 1.871,-0.644 2.147,-0.224 0.426,0.648 -1.405,0.712 -2.009,0.826 -2.256,0.425 z m 10.58299,-11.112 c -0.201,-0.326 -0.246,-0.304 3.542,-1.744 1.81,-0.687 3.655,-1.265 4.101,-1.284 1.294,-0.053 0.987,0.646 -0.51,1.164 -0.728,0.251 -2.31,0.83 -3.514,1.284 -2.232,0.842 -3.347,1.02 -3.62,0.58 z m -4.09899,-5.426 c -0.277,-0.335 -0.266,-0.435 0.064,-0.561 0.736,-0.283 2.171,-0.01 2.171,0.412 0,0.566 -1.79,0.685 -2.235,0.149 z m 6.95499,-1.872 c -0.453,-0.334 -0.423,-0.386 0.44,-0.744 1.38,-0.574 3.644,-0.822 4.093,-0.45 0.635,0.527 0.153,1.032 -1.14,1.193 l -2.07,0.257 c -0.46,0.057 -1.056,-0.058 -1.323,-0.256 z m -26.38399,-7.487 c -0.105,-0.169 0.186,-0.493 0.688,-0.767 0.734,-0.4 1.474,-0.469 4.793,-0.439 3.843,0.035 4.806,0.232 4.077,0.837 -0.502,0.417 -9.318,0.757 -9.558,0.369 z m 18.886,-2.123 c -0.568,-0.108 -0.926,-0.33 -0.926,-0.573 0,-0.304 0.526,-0.45 2.25,-0.62 3.35999,-0.333 3.50999,-0.332 3.62799,0.01 0.271,0.784 -2.96999,1.56 -4.95199,1.183 z m -16.304,-1.454 c -0.307,-0.172 -0.326,-0.302 -0.082,-0.596 0.22,-0.266 0.916,-0.375 2.38,-0.375 1.903,0 2.712,0.27 2.237,0.745 -0.282,0.282 -4.094,0.473 -4.535,0.226 z m 13.818,-3.75 c -0.482,-0.364 -0.473,-0.39 0.215,-0.653 1.096,-0.416 6.82499,-0.351 7.41999,0.084 1.019,0.745 0.204,0.967 -3.50999,0.958 -2.73,-0.006 -3.747,-0.102 -4.125,-0.389 z m 1.472,-6.032 c -0.592,-0.713 0.595,-1.068 3.98999,-1.194 2.98,-0.11 3.11,-0.092 3.11,0.419 0,0.748 -0.525,0.892 -3.84199,1.05 -2.435,0.115 -2.972,0.07 -3.258,-0.275 z m -6.45,-1.259 c -0.65,-0.379 -0.28,-1.043 0.581,-1.043 0.791,0 1.479,0.599 1.202,1.047 -0.214,0.346 -1.185,0.344 -1.782,-0.003 z m 7.94,-9.742 c -2.548,-0.426 -3.345,-0.78 -3.003,-1.332 0.244,-0.396 1.55,-0.36 4.58,0.126 2.72699,0.437 3.14099,0.622 2.88599,1.288 -0.196,0.51 -1.013,0.495 -4.46299,-0.082 z m -16.879,-4.743 c -0.957,-0.098 -1.588,-0.457 -1.588,-0.903 0,-0.28 2.517,-0.025 3.15,0.32 0.58,0.315 -0.444,0.698 -1.562,0.583 z m 17.462,-4.684997 c -0.946,-0.185 -1.81,-0.35 -1.919,-0.365 -0.109,-0.016 -0.198,-0.207 -0.198,-0.426 0,-0.44 2.084,-0.539 4.70999,-0.223 1.232,0.148 1.393,0.236 1.323,0.725 -0.065,0.453 -0.277,0.563 -1.138,0.591 -0.582,0.019 -1.83199,-0.117 -2.77799,-0.302 z m -8.947,-11.777 c -0.774,-0.113 -1.47,-0.268 -1.548,-0.346 -0.382,-0.382 0.35,-0.706 1.596,-0.706 1.447,0 2.501,0.493 2.177,1.018 -0.205,0.332 -0.181,0.332 -2.225,0.034 z m -1.255,-6.457 c -0.495,-0.364 -0.496,-0.385 -0.025,-0.568 0.7,-0.27 3.948,0.22 4.077,0.615 0.16,0.49 -3.378,0.449 -4.052,-0.047 z m -2.618,-19.782 c -0.284,-0.164 -1.153,-0.488 -1.931,-0.719 -1.438,-0.427 -1.8,-0.98 -0.595,-0.911 1.038,0.06 3.743,1.169 3.635,1.49 -0.142,0.429 -0.527,0.477 -1.109,0.14 z m 8.719,-4.972 c -0.76625,-0.23308 -1.53815,-0.44715 -2.315,-0.642 -0.4,-0.091 -0.728,-0.342 -0.728,-0.557 0,-0.485 1.386,-0.521 3.525,-0.091 1.586,0.318 2.189,0.759 1.937,1.415 -0.188,0.49 -0.41,0.478 -2.42,-0.125 z m -8.533,-1.74 c -0.425,-0.313 -0.402,-0.364 0.282,-0.625 0.776,-0.296 1.923,0.045 1.647,0.491 -0.245,0.397 -1.456,0.48 -1.929,0.134 z m 2.164,-7.818 c -0.28,-0.455 0.349,-0.704 2.272,-0.897 1.57,-0.158 6.684,0.249 7.21,0.573 0.111,0.07 0.134,0.236 0.05,0.372 -0.225,0.364 -9.305,0.319 -9.532,-0.048 z m 59.15799,189.596997 c 0.184,-0.222 0.253,-0.485 0.152,-0.586 -0.22,-0.22 -1.01,0.242 -1.155,0.677 -0.151,0.453 0.61,0.383 1.003,-0.091 z m -7.678,-7.534 c 0,-0.146 -0.126,-0.265 -0.28,-0.265 -0.154,0 -0.207,0.12 -0.117,0.265 0.09,0.145 0.216,0.264 0.28,0.264 0.065,0 0.117,-0.119 0.117,-0.264 z m -10.04,-11.51 c -0.02,-0.392 -0.613,-0.32 -0.75,0.092 -0.074,0.222 0.047,0.322 0.323,0.264 0.242,-0.05 0.435,-0.21 0.427,-0.356 z m -5.73,-4.784 c 0.5,-1.304 -0.249,-2.129 -1.173,-1.292 -0.628,0.568 -0.643,0.756 -0.104,1.295 0.533,0.532 1.071,0.531 1.276,-0.003 z m -13.863,-11.487 c 0,-0.146 -0.126,-0.265 -0.28,-0.265 -0.155,0 -0.207,0.119 -0.117,0.265 0.09,0.145 0.216,0.264 0.28,0.264 0.064,0 0.117,-0.119 0.117,-0.264 z m -6.173,-7.297 c 0.212,-0.553 -0.494,-1.235 -1.056,-1.02 -0.443,0.17 -0.603,0.926 -0.268,1.261 0.33,0.33 1.163,0.178 1.324,-0.241 z m -2.558,-3.05 c 0,-0.608 -0.411,-0.662 -0.634,-0.083 -0.25899,0.675 -0.18699,0.898 0.237,0.736 0.218,-0.084 0.397,-0.378 0.397,-0.654 z m -2.11699,-1.692 c -5.5e-4,-0.21903 -0.17797,-0.39645 -0.397,-0.397 -0.413,0 -0.525,0.313 -0.22,0.617 0.304,0.305 0.617,0.193 0.617,-0.22 z m 2.32799,-1.244 c 0.429,-0.428 0.402,-1.005 -0.047,-1.005 -0.488,0 -1.04699,0.701 -0.833,1.047 0.223,0.361 0.49,0.349 0.88,-0.042 z m -3.65999,-0.277 c -0.013,-0.532 -0.674,-1.257 -1.145,-1.257 -0.499,0 -0.55,0.345 -0.16,1.076 0.303,0.564 1.319,0.705 1.306,0.18 z m 2.457,-6.35 c 0.59399,-0.546 1.00699,-1.066 0.91799,-1.155 -0.186,-0.185 -3.89499,2.215 -3.89499,2.52 0,0.812 1.216,0.255 2.977,-1.365 z m -3.832,-8.087 c 0.058,-0.173 -0.083,-0.314 -0.314,-0.314 -0.23118,5.5e-4 -0.41845,0.18782 -0.419,0.419 0,0.467 0.57,0.386 0.733,-0.105 z m -10.581,-14.459 c 1.103,-0.528 1.91,-1.082 1.91,-1.308 0,-0.346 -0.165,-0.345 -1.388,0.012 -2.015,0.588 -4.445,1.713 -4.279,1.981 0.302,0.489 1.925,0.193 3.757,-0.685 z m -2.446,-4.538 c 0.891,-0.584 0.819,-0.897 -0.207,-0.892 -1.375,0.006 -2.05,0.276 -2.05,0.82 0,0.642 1.323,0.684 2.257,0.072 z m 2.57,-1.345 c 0.11952,-0.0782 0.19398,-0.20928 0.2,-0.352 0,-0.283 -0.706,-0.058 -1.456,0.463 -0.49,0.34 -0.471,0.354 0.265,0.184 0.436,-0.101 0.883,-0.234 0.992,-0.295 z m 1.324,-0.52 c -0.21454,-0.0735 -0.44746,-0.0735 -0.662,0 -0.182,0.073 -0.033,0.133 0.331,0.133 0.364,0 0.513,-0.06 0.33,-0.133 z m -20.221,-30.34 c 0.049,-0.255 -0.084,-0.441 -0.316,-0.441 -0.491,0 -0.788,0.431 -0.555,0.808 0.24,0.387 0.767,0.164 0.87,-0.367 z m -1.326,-3.156 c 0.065,-0.339 -0.088,-0.46 -0.577,-0.46 -0.787,0 -1.182,0.49 -0.664,0.823 0.532,0.343 1.139,0.165 1.24,-0.363 z m 1.047,-2.527 c 0.059,-0.176 -0.139,-0.314 -0.446,-0.314 -0.55,0 -0.715,0.278 -0.37,0.623 0.245,0.245 0.687,0.078 0.816,-0.31 z m -4.3049998,-1.637 c -0.09,-0.146 -0.275,-0.265 -0.412,-0.265 -0.137,0 -0.25,0.12 -0.25,0.265 0,0.145 0.186,0.264 0.413,0.264 0.227,0 0.339,-0.119 0.25,-0.264 z m 6.7139998,-2.018 c 0.957,-0.191 1.104,-0.826 0.231,-1.003 -1.284,-0.26 -3.617,-0.41 -4.013,-0.258 -0.498,0.19 -0.558,1.062 -0.088,1.251 0.484,0.196 2.912,0.202 3.87,0.01 z m -2.282,-12.718 c 1.874,-0.670997 1.643,-1.139997 -0.563,-1.139997 -1.901,0 -2.632,0.374 -2.32,1.187997 0.204,0.529 1.327,0.51 2.883,-0.048 z m 2.183,-0.609997 c -0.09,-0.146 -0.283,-0.265 -0.428,-0.265 -0.146,0 -0.191,0.12 -0.102,0.265 0.09,0.145 0.283,0.265 0.429,0.265 0.145,0 0.19,-0.12 0.1,-0.265 z m 0.132,-5.292 c 0,-0.145 -0.417,-0.264 -0.926,-0.264 -0.51,0 -0.926,0.119 -0.926,0.264 0,0.146 0.417,0.265 0.926,0.265 0.51,0 0.926,-0.12 0.926,-0.265 z m -0.53,-10.952 c 0,-0.466 -0.8,-0.789 -1.132,-0.457 -0.13852,0.14456 -0.16764,0.36211 -0.072,0.538 0.258,0.417 1.205,0.354 1.205,-0.08 z m 37.65799,-7.178 c 0.025,-0.142 -0.37,-0.29 -0.88,-0.327 l -0.926,-0.07 0.661,0.39 c 0.71,0.418 1.07,0.42 1.145,0.007 z m -1.834,-4.538 c -0.822,-0.657 -1.806,-0.83 -1.627,-0.284 0.06,0.182 0.575,0.594 1.146,0.917 1.27,0.717 1.61,0.27 0.48,-0.633 z m -32.40599,-2.367 c 0.34,-0.309 -0.498,-0.47 -2.265,-0.437 -2.113,0.04 -2.377,0.118 -2.077,0.604 0.13,0.21 0.799,0.246 2.21,0.118 1.112,-0.102 2.072,-0.23 2.132,-0.285 z m -6.195,-0.1 c -0.09,-0.146 -0.514,-0.265 -0.942,-0.265 -0.428,0 -0.778,0.12 -0.778,0.265 0,0.145 0.424,0.264 0.942,0.264 0.56,0 0.875,-0.107 0.778,-0.264 z m 39.49399,-4.548 c -0.163,-0.49 -0.733,-0.572 -0.733,-0.104 0,0.23 0.189,0.419 0.419,0.419 0.23,0 0.372,-0.142 0.314,-0.315 z m -38.19399,-2.618 c 0.302,-0.279 -0.94,-0.772 -1.947,-0.772 -0.409,0 -0.891,0.178 -1.07,0.395 -0.272,0.326 -0.22,0.437 0.297,0.644 0.666,0.266 2.317,0.104 2.72,-0.267 z m 40.22799,-1.812 c 0.084,-0.135 0.025,-0.324 -0.13,-0.42 -0.391,-0.242 -1.12,0.075 -0.918,0.4 0.207,0.335 0.846,0.347 1.048,0.02 z m -48.4299898,-16.847 c 0.515,-0.198 0.557,-0.898 0.055,-0.898 -0.449,0 -1.018,0.646 -0.78,0.884 0.212,0.212 0.208,0.212 0.726,0.014 z"
     style="fill:#000000"
     id="path1-9" /></svg>
