<svg xmlns="http://www.w3.org/2000/svg"  width="22.215" height="23.355"><path d="M-310.672 252.844c-1.813 2.341-7.08 10.562-3.045 12.534-1.302 2.05-2.139 3.993-2.617 6.048l3.266-.656.035.102c.682 1.94 2.154 4.287 3.63 5.113-1.655-2.575-2.019-5.597-1.571-9.457 4.234 1.497 6.407-8.021 6.806-10.955l-1.02-.428-3.029 6.578a.685.685 0 0 1-1.263-.529l2.57-6.772-1.02-.427-3.03 6.58a.685.685 0 1 1-1.262-.531l2.568-6.774zm11.274 5.73a4.756 4.756 0 0 0-4.727 4.774c.015 2.402 1.753 4.415 4.139 4.69l-.584 7.468h2.467l-.621-7.476c2.381-.3 4.106-2.328 4.097-4.729a4.748 4.748 0 0 0-4.771-4.726zm.008 1.82a2.932 2.932 0 1 1 .03 5.863 2.932 2.932 0 0 1-.03-5.864zm-9.15 3.411a.59.59 0 0 1 .331 1.08.592.592 0 1 1-.332-1.08zm-.993 12.395c-1.563-.874-2.975-3.185-3.684-5.147l-3.117.627-.06.012c-.308 1.421-.448 2.899-.448 4.508z" style="fill:orange;" transform="translate(316.842 -252.844)"/></svg>